<svg id="Camada_1" data-name="Camada 1" xmlns="http://www.w3.org/2000/svg" viewBox="0 0 127.58 82.32"><defs><style>.cls-1{fill:#fff;}.cls-2{fill:#0072a2;fill-rule:evenodd;}</style></defs><title>bandeiras_estabelecimentos</title><rect class="cls-1" x="-0.42" y="-0.2" width="127.58" height="82.32"/><path class="cls-2" d="M123.17,56.18c0,3-1.92,4.37-5.29,4.37h-6.45v-3h6.45a2,2,0,0,0,1.3-.31,1.31,1.31,0,0,0,.41-0.89,1.36,1.36,0,0,0-.41-1,1.68,1.68,0,0,0-1.2-.31c-3.06-.1-7,0.11-7-4.32,0-2,1.31-4.16,4.78-4.16h6.66v3h-6.13a2.21,2.21,0,0,0-1.31.21,1.48,1.48,0,0,0-.52,1.09,1.05,1.05,0,0,0,.68,1,5.13,5.13,0,0,0,1.3.21h1.82a6,6,0,0,1,3.9,1.09,4.62,4.62,0,0,1,1,3m-14-3a5.94,5.94,0,0,0-3.9-1.09h-1.83a5.15,5.15,0,0,1-1.3-.21,1,1,0,0,1-.68-1,1.21,1.21,0,0,1,.52-1.09,2.17,2.17,0,0,1,1.3-.21h6.13v-3h-6.66c-3.59,0-4.78,2.18-4.78,4.16,0,4.43,3.9,4.22,7,4.32a1.68,1.68,0,0,1,1.2.31,1.38,1.38,0,0,1,.42,1,1.34,1.34,0,0,1-.42.89,2.17,2.17,0,0,1-1.3.31H98.38v3h6.44c3.38,0,5.31-1.4,5.31-4.37a4.59,4.59,0,0,0-1-3M96.35,57.69H88.5V54.87h7.69V52.06H88.5V49.51h7.85V46.6H85.22v14H96.35V57.69ZM81.64,47.27a8.78,8.78,0,0,0-4.11-.67H69.9v14h3.38V55.44h3.59a3.13,3.13,0,0,1,2.4.62,4.68,4.68,0,0,1,.56,2.82v1.67h3.33V57.84a4.37,4.37,0,0,0-.52-2.55,3.53,3.53,0,0,0-1.72-1.2,3.82,3.82,0,0,0,2.38-3.7,3.17,3.17,0,0,0-1.66-3.13M62.73,46.6H52.07l-4.32,4.58L43.7,46.6H30.24v14H43.49L47.75,56l4.12,4.58H58.3V55.86h4.2c2.87,0,5.78-.77,5.78-4.68s-3-4.58-5.56-4.58m16.21,5.77a3.93,3.93,0,0,1-1.61.21l-4.05.1V49.51h4.05a3.1,3.1,0,0,1,1.61.26,1.25,1.25,0,0,1,.68,1.2,1.67,1.67,0,0,1-.68,1.4m-16.21.68H58.3V49.51h4.42c1.19,0,2,.46,2,1.67a1.78,1.78,0,0,1-2,1.87m-12.83.52L55,48.1V59.35Zm-8.12,4.12H33.5V54.87H40.9V52.06H33.5V49.51h8.37l3.7,4.06Zm72.14-21.2h-4.78L102.85,26V36.49H96.09l-1.3-3.08h-7l-1.3,3.08H82.63c-1.61,0-3.69-.37-4.89-1.56A7.41,7.41,0,0,1,76,29.61c0-2.08.32-4,1.82-5.47,1-1.09,2.81-1.61,5.09-1.61h3.17v3H82.94a3.66,3.66,0,0,0-2.6.77,4.51,4.51,0,0,0-.88,3.18,5,5,0,0,0,.88,3.33,3.42,3.42,0,0,0,2.29.68h1.51l4.79-11h4.94L99.47,35.7V22.53h5.15l5.87,9.69V22.53h3.43v14Zm-39.55-14H71v14h3.37v-14Zm-7.06.63c-1.1-.63-2.3-0.63-4-0.63H55.65v14h3.28V31.43h3.58A3.58,3.58,0,0,1,65,32a4.42,4.42,0,0,1,.48,2.7v1.78h3.43V33.73a3.59,3.59,0,0,0-.63-2.5A4,4,0,0,0,66.67,30a4,4,0,0,0,2.4-3.71,3.38,3.38,0,0,0-1.77-3.17m-14,10.47H45.47V30.81h7.69V27.95H45.47v-2.5h7.79V22.53H42.08v14H53.26V33.63ZM39.59,22.53H34.14L30,32l-4.36-9.48H20.31V35.7L14.59,22.53H9.66l-6,14H7.27l1.25-3.08h7l1.25,3.08h6.81V25.55l4.88,10.94h2.86l4.89-10.94V36.49h3.38v-14Zm54,7.92L91.3,24.92,89,30.45H93.6ZM64.7,28.21a2.91,2.91,0,0,1-1.66.31H58.93V25.45H63a4.15,4.15,0,0,1,1.66.21,1.39,1.39,0,0,1,.63,1.3,1.25,1.25,0,0,1-.63,1.25m-55,2.24L12,24.92l2.29,5.52H9.71ZM122.34,3.83H3.58V29l4.06-9.27h8.68l1.2,2.29V19.77H27.64l2.29,4.95,2.23-4.95H64.5a5.66,5.66,0,0,1,3.79,1.09V19.77h8.89v1.09a11.29,11.29,0,0,1,5.56-1.09H95.57l1.2,2.29V19.77h9.46l1.4,2.29V19.77h9.25V39.3h-9.35l-1.82-3v3H94.06l-1.29-3.18H89.91L88.61,39.3H82.53a11.4,11.4,0,0,1-5.35-1.2v1.2H62.73V34.82c0-.63-0.11-0.73-0.52-0.73H61.73V39.3H33.83V36.79l-1,2.51H27l-1-2.4v2.4H14.7l-1.2-3.18H10.65L9.34,39.3H3.58V78.1H122.34V62.48a12.3,12.3,0,0,1-4.83.89h-8.68v-1.2a7.81,7.81,0,0,1-4.47,1.2H77.07V58.88c0-.62-0.1-0.62-0.62-0.62H76v5.1H67V58a10.48,10.48,0,0,1-4.67.73h-1v4.59h-11l-2.61-3-2.86,3H27.28V43.78H45.21l2.54,3,2.81-3H62.62c1.4,0,3.69.2,4.68,1.19V43.78H78.06A8.57,8.57,0,0,1,82.63,45V43.78H98.85V45a6.81,6.81,0,0,1,4.09-1.19H112V45a7.4,7.4,0,0,1,4.21-1.19h6.13v-40Z"/></svg>