<svg id="Camada_1" data-name="Camada 1" xmlns="http://www.w3.org/2000/svg" xmlns:xlink="http://www.w3.org/1999/xlink" viewBox="0 0 220.73 220.22"><defs><style>.cls-1{fill:url(#radial-gradient);}.cls-2{fill:#fff;}</style><radialGradient id="radial-gradient" cx="-110.34" cy="35.84" r="205.91" gradientTransform="matrix(1, 0, 0, -1, 149.05, 74.31)" gradientUnits="userSpaceOnUse"><stop offset="0" stop-color="#9dd5f6"/><stop offset="0.07" stop-color="#98d3f5"/><stop offset="0.16" stop-color="#89cef3"/><stop offset="0.25" stop-color="#70c6ef"/><stop offset="0.35" stop-color="#4ebbea"/><stop offset="0.45" stop-color="#23ade3"/><stop offset="0.5" stop-color="#0da6e0"/><stop offset="1" stop-color="#2e77bc"/></radialGradient></defs><title>bandeiras_plataforma</title><path class="cls-1" d="M219.43,0H0V220.22H219.43V147.54a8.32,8.32,0,0,0,1.3-4.84,7.53,7.53,0,0,0-1.3-4.83"/><path class="cls-2" d="M19.78,95.29L15.56,85l-4.2,10.29m101.41-4.1a5.72,5.72,0,0,1-3.05.53h-7.49V86h7.59a6.33,6.33,0,0,1,2.92.47,2.36,2.36,0,0,1,1.3,2.28A2.64,2.64,0,0,1,112.77,91.2Zm53.45,4.1L162,85l-4.24,10.29h8.51ZM66.59,106.43H60.27l0-20.21L51.3,106.43H45.89l-9-20.23v20.23H24.38L22,100.67H9.17l-2.39,5.76H0.07l11-25.8h9.16l10.49,24.43V80.62H40.83l8.07,17.5,7.41-17.5H66.59v25.8h0Zm25.2,0H71.19V80.62h20.6V86H77.35v4.65H91.44v5.29H77.35v5.15H91.79v5.34Zm29-18.85a7.26,7.26,0,0,1-4.35,6.88,7.15,7.15,0,0,1,3.05,2.17c0.87,1.28,1,2.43,1,4.73v5.07h-6.22l0-3.25c0-1.55.15-3.79-1-5-0.9-.91-2.27-1.1-4.49-1.1h-6.62v9.38H96.06V80.62h14.19c3.15,0,5.47.08,7.47,1.24A6,6,0,0,1,120.84,87.57Zm9.87,18.85h-6.29V80.62h6.29v25.8Zm73,0H195L183.28,87.06v19.37H170.72l-2.4-5.76H155.51l-2.33,5.76H146c-3,0-6.79-.66-8.94-2.85s-3.3-5.16-3.3-9.85c0-3.83.67-7.32,3.33-10.09,2-2.06,5.12-3,9.37-3h6v5.53h-5.85c-2.25,0-3.52.33-4.75,1.53-1.05,1.09-1.77,3.14-1.77,5.84s0.55,4.76,1.7,6.06c0.95,1,2.67,1.33,4.3,1.33h2.77l8.69-20.29h9.24L177.17,105V80.62h9.39l10.84,18v-18h6.32v25.8h0ZM0,111.49H10.54l2.38-5.73h5.32l2.37,5.73H41.34v-4.38l1.85,4.4H54L55.8,107v4.45h51.53l0-9.41h1c0.7,0,.9.09,0.9,1.24v8.17h26.65V109.3a21.11,21.11,0,0,0,9.89,2.19H157l2.4-5.73h5.32l2.35,5.73h21.6V106l3.27,5.44h17.31v-36H192.08v4.25l-2.4-4.25H172.1v4.25l-2.2-4.25H146.15c-4,0-7.47.55-10.29,2.1v-2.1H119.46v2.1c-1.8-1.59-4.24-2.1-7-2.1H52.63l-4,9.29-4.13-9.29H25.62v4.25l-2.07-4.25H7.47L0,92.62v18.88H0Z"/><path class="cls-2" d="M219.43,130.53H208.18a4.27,4.27,0,0,0-2.5.47,2,2,0,0,0-.9,1.86,2,2,0,0,0,1.35,1.92,7,7,0,0,0,2.38.29l3.34,0.09c3.37,0.08,5.62.66,7,2.08a3.32,3.32,0,0,1,.57.64m0,9.67c-1.5,2.19-4.42,3.3-8.37,3.3H199.15v-5.53H211a3.5,3.5,0,0,0,2.5-.64,2.27,2.27,0,0,0,.73-1.68,2.12,2.12,0,0,0-.75-1.71,3.13,3.13,0,0,0-2.17-.57c-5.79-.2-13,0.18-13-8,0-3.74,2.38-7.68,8.85-7.68h12.28V119.9H208a12.86,12.86,0,0,0-7.72,2.11V119.9H183.41c-2.7,0-5.87.67-7.37,2.11V119.9H145.89V122c-2.4-1.73-6.45-2.11-8.32-2.11H117.69V122c-1.9-1.84-6.12-2.11-8.69-2.11H86.74l-5.09,5.51-4.77-5.51H43.64v36H76.26l5.25-5.6,4.94,5.6,20.11,0v-8.47h2a21,21,0,0,0,8.59-1.27v9.72H133.7v-9.39h0.8c1,0,1.12,0,1.12,1.06v8.32H186c3.2,0,6.54-.82,8.39-2.3v2.3h16a21.41,21.41,0,0,0,9-1.66v-6.71h0Zm-24.6-10.31c1.2,1.24,1.84,2.81,1.84,5.47,0,5.55-3.47,8.14-9.69,8.14H175v-5.53h12a3.62,3.62,0,0,0,2.52-.64,2.29,2.29,0,0,0,.73-1.68,2.21,2.21,0,0,0-.75-1.71,3.25,3.25,0,0,0-2.2-.57c-5.77-.2-13,0.18-13-8,0-3.74,2.35-7.68,8.82-7.68h12.36v5.49H184.11a4.17,4.17,0,0,0-2.47.47,2.16,2.16,0,0,0,.42,3.78,7.09,7.09,0,0,0,2.4.29l3.32,0.09C191.13,135.24,193.43,135.82,194.82,137.23Zm-55.65-1.59a5.9,5.9,0,0,1-3,.53h-7.49v-5.8h7.59a6.08,6.08,0,0,1,2.94.47,2.46,2.46,0,0,1,1.28,2.32A2.78,2.78,0,0,1,139.17,135.64Zm3.72,3.21a6.71,6.71,0,0,1,3,2.17c0.87,1.26,1,2.44,1,4.71v5.12h-6.19v-3.23c0-1.55.15-3.85-1-5.05-0.9-.92-2.27-1.15-4.53-1.15h-6.59v9.43h-6.2V125h14.24c3.12,0,5.4.14,7.42,1.22a6,6,0,0,1,3.17,5.73A7.23,7.23,0,0,1,142.9,138.85ZM150.69,125h20.58v5.34H156.83v4.69h14.09v5.27H156.83v5.13l14.44,0v5.35H150.69V125Zm-41.61,11.91h-8v-6.57h8c2.23,0,3.77.91,3.77,3.16S111.45,136.94,109.08,136.94ZM95,148.49L85.5,138,95,127.8v20.69Zm-24.45-3H55.35v-5.13H68.89v-5.27H55.35v-4.69H70.81l6.75,7.52Zm49-11.93c0,7.17-5.35,8.65-10.74,8.65h-7.7v8.66h-12l-7.59-8.54-7.89,8.54H49.2V125H74l7.59,8.46L89.44,125h19.71C114,125,119.54,126.39,119.54,133.54Z"/></svg>