<svg id="Camada_1" data-name="Camada 1" xmlns="http://www.w3.org/2000/svg" viewBox="0 0 104.44 69.48"><defs><style>.cls-1{fill:#0077b9;}.cls-1,.cls-2,.cls-3{fill-rule:evenodd;}.cls-2{fill:#bd0411;}.cls-3{fill:#f6e068;}</style></defs><title>bandeiras_estabelecimentos</title><polygon class="cls-1" points="0 0 104.44 0 104.44 69.48 0 69.48 0 0 0 0"/><path class="cls-2" d="M0,29.35c39.08-9.19,72.84-6.93,104.44,0V69.48H0V29.35H0Z"/><path class="cls-3" d="M0,40.35a255.41,255.41,0,0,1,104.44,0V69.48H0V40.35H0Z"/><path class="cls-3" d="M71.68,24.23c-1.87-7-9.81-12.15-19.43-12.15S34.62,17.15,32.76,24.17a198.74,198.74,0,0,1,38.93.06h0Z"/><path class="cls-1" d="M25.13,56.21L32.33,48H35l7.67,8.21H39.83l-2.18-2.49H29.82l-2.06,2.49H25.13Zm5.41-3.37h6.34l-1.95-2.27a16.5,16.5,0,0,1-1.33-1.7,6.72,6.72,0,0,1-1,1.57l-2.05,2.41h0Zm22.67,3.37V55.34a6,6,0,0,1-1.87.75,10.69,10.69,0,0,1-2.43.25A10.58,10.58,0,0,1,46.17,56a3,3,0,0,1-1.52-.79,2,2,0,0,1-.38-1.3V50.26h2.29v3.3a2,2,0,0,0,.26,1.23,1.81,1.81,0,0,0,.95.5,6.12,6.12,0,0,0,1.59.19A6.49,6.49,0,0,0,52.06,55a1.54,1.54,0,0,0,.9-1.54V50.26h2.31v5.95H53.21Zm5.66,0V50.26h2.08v0.9a4.74,4.74,0,0,1,1.46-.83,5.05,5.05,0,0,1,1.49-.2,9,9,0,0,1,2.35.32l-0.78.94a6.7,6.7,0,0,0-1.67-.22,4.62,4.62,0,0,0-1.34.19,1.63,1.63,0,0,0-.86.51,2,2,0,0,0-.44,1.23v3.11H58.87Zm17.57-.73a13.22,13.22,0,0,1-2.4.65,15,15,0,0,1-2.59.22,10.17,10.17,0,0,1-3.38-.46,1.5,1.5,0,0,1-1.26-1.24,1.12,1.12,0,0,1,.59-0.91A4.71,4.71,0,0,1,69,53.11a20.93,20.93,0,0,1,3.12-.33q2.8-.15,4.11-0.35l0-.26a0.87,0.87,0,0,0-.61-0.86A7.24,7.24,0,0,0,73,51a9,9,0,0,0-2.4.24,1.91,1.91,0,0,0-1.17.89L67.2,52a3,3,0,0,1,2-1.39,15.65,15.65,0,0,1,4.21-.44,15.29,15.29,0,0,1,3.35.29,2.78,2.78,0,0,1,1.54.71,2,2,0,0,1,.32,1.24v1.34a6.15,6.15,0,0,0,.15,1.78,1.79,1.79,0,0,0,.59.71H76.91a1.42,1.42,0,0,1-.47-0.73h0Zm-0.19-2.25a35.89,35.89,0,0,1-3.76.38,17.68,17.68,0,0,0-2,.2,2.52,2.52,0,0,0-.89.32,0.59,0.59,0,0,0-.32.48,0.85,0.85,0,0,0,.73.68,6.35,6.35,0,0,0,2,.25,10.08,10.08,0,0,0,2.24-.23,4,4,0,0,0,1.51-.61,1.32,1.32,0,0,0,.49-1.12V53.23h0Z"/></svg>