<svg id="Camada_1" data-name="Camada 1" xmlns="http://www.w3.org/2000/svg" viewBox="0 0 207.96 138.36"><defs><style>.cls-1{fill:#0077b9;}.cls-1,.cls-2,.cls-3{fill-rule:evenodd;}.cls-2{fill:#bd0411;}.cls-3{fill:#f6e068;}</style></defs><title>bandeiras_plataforma</title><polygon class="cls-1" points="0 0 207.96 0 207.96 138.36 0 138.36 0 0 0 0"/><path class="cls-2" d="M0,58.44c77.82-18.3,145-13.79,208,0v79.92H0V58.44H0Z"/><path class="cls-3" d="M0,80.35c71.09-14.77,140.31-13.87,208,0v58H0v-58H0Z"/><path class="cls-3" d="M142.74,48.25C139,34.27,123.2,24.06,104,24.06S68.94,34.15,65.23,48.13c26.28-2.74,51.51-2.21,77.51.12h0Z"/><path class="cls-1" d="M50,111.93L64.38,95.58h5.31L85,111.93H79.31L75,107H59.38l-4.1,5H50Zm10.78-6.71H73.44l-3.88-4.52a32.85,32.85,0,0,1-2.64-3.39,13.38,13.38,0,0,1-2,3.12l-4.09,4.79h0ZM106,111.93v-1.74a11.91,11.91,0,0,1-3.72,1.5,21.28,21.28,0,0,1-4.84.5,21.06,21.06,0,0,1-5.47-.62,5.87,5.87,0,0,1-3-1.57,4.07,4.07,0,0,1-.75-2.59v-7.33H92.7v6.56a4,4,0,0,0,.52,2.45,3.6,3.6,0,0,0,1.89,1,12.18,12.18,0,0,0,3.16.37,12.92,12.92,0,0,0,5.39-1,3.06,3.06,0,0,0,1.8-3.06v-6.34h4.6v11.84H106Zm11.26,0V100.09h4.13v1.79a9.44,9.44,0,0,1,2.9-1.66,10.06,10.06,0,0,1,3-.41,17.93,17.93,0,0,1,4.68.65l-1.55,1.86a13.34,13.34,0,0,0-3.33-.44,9.2,9.2,0,0,0-2.67.37,3.24,3.24,0,0,0-1.71,1,4,4,0,0,0-.87,2.44v6.2h-4.57Zm35-1.46a26.32,26.32,0,0,1-4.78,1.29,29.85,29.85,0,0,1-5.15.43,20.24,20.24,0,0,1-6.74-.91q-2.51-.91-2.51-2.46A2.22,2.22,0,0,1,134.2,107a9.37,9.37,0,0,1,3.23-1.24,41.67,41.67,0,0,1,6.21-.66q5.58-.29,8.19-0.69l0-.51a1.73,1.73,0,0,0-1.21-1.71,14.41,14.41,0,0,0-5.25-.71,17.89,17.89,0,0,0-4.78.47,3.81,3.81,0,0,0-2.33,1.78l-4.5-.27a6,6,0,0,1,3.9-2.77,31.17,31.17,0,0,1,8.39-.87,30.44,30.44,0,0,1,6.68.57,5.53,5.53,0,0,1,3.06,1.42,4.07,4.07,0,0,1,.64,2.47V107a12.25,12.25,0,0,0,.3,3.54,3.56,3.56,0,0,0,1.17,1.42h-4.79a2.83,2.83,0,0,1-.93-1.46h0ZM151.84,106a71.46,71.46,0,0,1-7.48.76,35.19,35.19,0,0,0-4,.41,5,5,0,0,0-1.78.65,1.17,1.17,0,0,0-.64,1q0,0.84,1.46,1.35a12.64,12.64,0,0,0,4,.51,20.08,20.08,0,0,0,4.46-.46,7.87,7.87,0,0,0,3-1.22,2.64,2.64,0,0,0,1-2.22V106h0Z"/></svg>