<svg id="Camada_1" data-name="Camada 1" xmlns="http://www.w3.org/2000/svg" viewBox="0 0 127.58 93.88"><defs><style>.cls-1{fill:#fff;}.cls-2{fill:#004c94;}.cls-3{fill:#211915;}</style></defs><title>bandeiras_estabelecimentos</title><path class="cls-1" d="M125.9,85.26a7.26,7.26,0,0,1-7.25,7.25H8.93a7.26,7.26,0,0,1-7.25-7.25v-76A7.26,7.26,0,0,1,8.93,2H118.64a7.26,7.26,0,0,1,7.25,7.25v76Z"/><path class="cls-2" d="M118.64,0.32H8.93A9,9,0,0,0,0,9.26v76A9,9,0,0,0,8.93,94.2H118.64a9,9,0,0,0,8.94-8.94v-76A9,9,0,0,0,118.64.32Zm7.25,84.94a7.26,7.26,0,0,1-7.25,7.25H8.93a7.26,7.26,0,0,1-7.25-7.25v-76A7.26,7.26,0,0,1,8.93,2H118.64a7.26,7.26,0,0,1,7.25,7.25v76Z"/><path class="cls-2" d="M68.29,52.83c11.94,0.06,22.85-9.74,22.85-21.66,0-13-10.91-22-22.85-22H58c-12.09,0-22,9-22,22A21.89,21.89,0,0,0,58,52.83H68.29Z"/><path class="cls-1" d="M62.6,42.78V19.11a12.67,12.67,0,0,1,0,23.67M45.38,30.95a12.71,12.71,0,0,1,8.13-11.83V42.78a12.69,12.69,0,0,1-8.13-11.83m12.68-20a20,20,0,1,0,20,20,20,20,0,0,0-20-20"/><path class="cls-3" d="M13.63,67.74c0,1.78,1.27,2,2.41,2,5,0,6.63-3.77,6.63-7.21,0-4.32-2.77-7.44-7.23-7.44-0.95,0-1.39.07-1.8,0.09V67.74ZM11.37,56.91c0-2.07-1.09-1.94-2.12-2v-0.6c0.9,0,1.82,0,2.73,0s2.29,0,4,0c6,0,9.24,4,9.24,8.08,0,2.29-1.34,8-9.51,8-1.18,0-2.27,0-3.35,0s-2.06,0-3.09,0v-0.6c1.38-.14,2.06-0.19,2.12-1.76V56.91Z"/><path class="cls-3" d="M28.49,56.36a1.13,1.13,0,0,1,0-2.26,1.13,1.13,0,0,1,1.14,1.11,1.16,1.16,0,0,1-1.14,1.16M26,69.87h0.44c0.64,0,1.11,0,1.11-.76V62.85c0-1-.35-1.15-1.21-1.61V60.86c1.08-.32,2.38-0.76,2.47-0.83a0.84,0.84,0,0,1,.42-0.12c0.11,0,.16.14,0.16,0.32v8.87c0,0.76.51,0.76,1.16,0.76H31v0.6c-0.78,0-1.6,0-2.43,0s-1.66,0-2.52,0v-0.6Z"/><path class="cls-3" d="M33.15,63c0-.85-0.25-1.08-1.34-1.52V61a29.13,29.13,0,0,0,3.05-1.11c0.07,0,.13,0,0.13.23v1.5c1.32-.94,2.46-1.73,4-1.73,2,0,2.65,1.43,2.65,3.24v6c0,0.76.51,0.76,1.16,0.76h0.42v0.6c-0.81,0-1.61,0-2.45,0s-1.67,0-2.5,0v-0.6H38.7c0.65,0,1.11,0,1.11-.76v-6a1.85,1.85,0,0,0-2.12-2A6.22,6.22,0,0,0,35,62.27v6.84c0,0.76.51,0.76,1.16,0.76h0.41v0.6c-0.8,0-1.61,0-2.45,0s-1.66,0-2.5,0v-0.6H32c0.64,0,1.1,0,1.1-.76V63Z"/><path class="cls-3" d="M49.08,63.36a0.52,0.52,0,0,0,.64-0.58,2,2,0,0,0-2-2.12c-1.41,0-2.38,1-2.66,2.7h4ZM45,64.1a5.79,5.79,0,0,0,0,1.34c0.13,2.19,1.55,4,3.4,4a4.43,4.43,0,0,0,3.12-1.55l0.32,0.32c-1.06,1.41-2.38,2.61-4.27,2.61-3.67,0-4.42-3.56-4.42-5,0-4.53,3.05-5.87,4.67-5.87a3.67,3.67,0,0,1,3.91,3.63,3,3,0,0,1,0,.41l-0.22.14H45Z"/><path class="cls-3" d="M52.23,69.87h0.63c0.64,0,1.1,0,1.1-.76V62.62c0-.71-0.85-0.85-1.2-1V61.24c1.68-.72,2.61-1.32,2.82-1.32s0.2,0.07.2,0.3v2.08h0.06c0.57-.9,1.54-2.38,3-2.38a1.26,1.26,0,0,1,1.31,1.23A1.12,1.12,0,0,1,59,62.32c-0.72,0-.72-0.56-1.53-0.56a2,2,0,0,0-1.68,1.92v5.43c0,0.76.46,0.76,1.11,0.76h1.29v0.6c-1.27,0-2.24,0-3.23,0s-1.92,0-2.75,0v-0.6Z"/><path class="cls-3" d="M61.13,67.26c0.3,1.52,1.23,2.82,2.91,2.82a1.63,1.63,0,0,0,1.87-1.64c0-2.73-5-1.85-5-5.56,0-1.29,1-3,3.59-3a6.1,6.1,0,0,1,2.63.67l0.16,2.36H66.72a2.37,2.37,0,0,0-2.52-2.29,1.62,1.62,0,0,0-1.8,1.53c0,2.7,5.36,1.87,5.36,5.5,0,1.52-1.23,3.14-4,3.14A6.07,6.07,0,0,1,61,70l-0.26-2.66Z"/><path class="cls-3" d="M88.62,58.53H88c-0.45-2.7-2.36-3.79-5-3.79s-6.51,1.78-6.51,7.32c0,4.67,3.33,8,6.88,8a4.69,4.69,0,0,0,4.64-4l0.53,0.14L88.11,69.6A13,13,0,0,1,83,70.82c-5.4,0-8.82-3.48-8.82-8.68,0-4.74,4.23-8.13,8.75-8.13a16.6,16.6,0,0,1,5.45,1.23Z"/><path class="cls-3" d="M89.45,69.87h0.44c0.65,0,1.11,0,1.11-.76V56.24c0-1.5-.35-1.55-1.23-1.8V54.07a14.07,14.07,0,0,0,2.38-1,2.46,2.46,0,0,1,.51-0.25c0.14,0,.18.14,0.18,0.32v16c0,0.76.51,0.76,1.16,0.76H94.4v0.6c-0.79,0-1.59,0-2.43,0s-1.66,0-2.52,0v-0.6Z"/><path class="cls-3" d="M104.28,69.2c0,0.42.25,0.44,0.64,0.44l0.93,0v0.49a23.84,23.84,0,0,0-3.32.71l-0.12-.07V68.88C101,70,100,70.82,98.33,70.82a2.49,2.49,0,0,1-2.54-2.75V62.16c0-.6-0.1-1.18-1.39-1.3V60.42c0.83,0,2.68-.16,3-0.16s0.26,0.16.26,0.67v6c0,0.69,0,2.68,2,2.68a5.19,5.19,0,0,0,2.79-1.41V61.95c0-.46-1.11-0.71-1.94-0.94V60.58c2.07-.14,3.37-0.32,3.6-0.32s0.19,0.16.19,0.42V69.2Z"/><path class="cls-3" d="M108.88,67.86a2.49,2.49,0,0,0,2.38,2.36c2.47,0,3.51-2.43,3.51-4.48,0-2.5-1.89-4.57-3.7-4.57a3.55,3.55,0,0,0-2.19,1.09v5.61Zm0-6.28a5.83,5.83,0,0,1,3.44-1.67c2.68,0,4.3,2.34,4.3,4.85,0,3-2.22,6.05-5.53,6.05a6.83,6.83,0,0,1-3.21-.81l-0.7.53-0.48-.25a28,28,0,0,0,.32-4.11V56.24c0-1.5-.35-1.55-1.23-1.8V54.07a14.46,14.46,0,0,0,2.38-1,2.64,2.64,0,0,1,.51-0.25c0.14,0,.19.14,0.19,0.32v8.44Z"/><path class="cls-3" d="M9.22,83.9H9.4c0.45,0,.93-0.06.93-0.72V76.6c0-.66-0.47-0.72-0.93-0.72H9.22V75.51c0.49,0,1.24.05,1.86,0.05s1.38-.05,2-0.05v0.38H12.88c-0.45,0-.93.06-0.93,0.72v6.58c0,0.66.48,0.72,0.93,0.72h0.18v0.38c-0.61,0-1.36,0-2,0s-1.36,0-1.85,0V83.9Z"/><path class="cls-3" d="M13,84.23V84H12.88a0.79,0.79,0,0,1-1-.77V76.6a0.79,0.79,0,0,1,1-.77H13V75.56c-0.58,0-1.31.05-1.92,0.05s-1.32,0-1.81-.05v0.27H9.4a0.78,0.78,0,0,1,1,.77v6.58a0.78,0.78,0,0,1-1,.77H9.28v0.27c0.49,0,1.2-.05,1.79-0.05s1.34,0,1.93.05m0.05,0.11c-0.61,0-1.36-.05-2-0.05s-1.35.05-1.85,0.05H9.17V83.85H9.4c0.45,0,.86,0,0.87-0.66V76.6c0-.62-0.42-0.66-0.87-0.66H9.17V75.46H9.22c0.49,0,1.24,0,1.86,0s1.38,0,2,0h0.06v0.49H12.88c-0.46,0-.87,0-0.88.66v6.58c0,0.62.42,0.65,0.88,0.66h0.23v0.49H13.06Z"/><path class="cls-3" d="M21.69,81.8l0,0V77.07a1,1,0,0,0-1.09-1.18H20.35V75.51c0.59,0,1.17.05,1.76,0.05s1-.05,1.55-0.05v0.38H23.46c-0.53,0-1.12.1-1.12,1.6V83.2a8.73,8.73,0,0,0,.08,1.27H21.94l-6.47-7.22v5.18c0,1.09.21,1.47,1.18,1.47h0.21v0.38c-0.54,0-1.08,0-1.62,0s-1.14,0-1.71,0V83.9h0.18c0.87,0,1.14-.59,1.14-1.59V77a1.13,1.13,0,0,0-1.15-1.13H13.53V75.51c0.48,0,1,.05,1.44.05s0.75-.05,1.12-0.05Z"/><path class="cls-3" d="M21.66,81.78h0Zm0,0,0,0Zm0.25,2.61h0.41a8.4,8.4,0,0,1-.06-1.21V77.48c0-1.51.63-1.65,1.17-1.65H23.6V75.56c-0.5,0-1,.05-1.49.05s-1.14,0-1.71-.05v0.27h0.23a1.1,1.1,0,0,1,1.14,1.24v4.75l0,0,0,0-5.59-6.32c-0.37,0-.74.05-1.12,0.05s-0.93,0-1.39-.05v0.27h0.11A1.18,1.18,0,0,1,14.89,77v5.29c0,1-.28,1.65-1.18,1.65H13.59v0.27c0.55,0,1.11-.05,1.66-0.05s1,0,1.57.05V84H16.65c-1,0-1.23-.43-1.24-1.52V77.11Zm0.47,0.11-0.52,0L15.52,77.4v5c0,1.09.18,1.4,1.13,1.41h0.27v0.49H16.86c-0.55,0-1.09-.05-1.62-0.05s-1.14.05-1.71,0.05H13.48V83.85h0.23c0.83,0,1.07-.54,1.08-1.54V77a1.08,1.08,0,0,0-1.1-1.08H13.48V75.46h0.05c0.48,0,1,0,1.44,0s0.74,0,1.16,0l5.53,6.22V77.07a1,1,0,0,0-1-1.13H20.29V75.46h0.06c0.59,0,1.17,0,1.76,0s1,0,1.55,0h0.05v0.49H23.46c-0.52,0-1,.06-1.07,1.54V83.2a8.21,8.21,0,0,0,.08,1.26v0.06H22.42Z"/><path class="cls-3" d="M25.53,76.14c-0.95,0-1,.23-1.17,1.14H24c0-.35.11-0.7,0.15-1.07a7.81,7.81,0,0,0,.08-1.06h0.3a0.61,0.61,0,0,0,.75.36h6.48c0.34,0,.66,0,0.68-0.39l0.3,0c0,0.34-.1.68-0.14,1s0,0.68,0,1l-0.38.14a1,1,0,0,0-.93-1.21H29.21v6.69a0.88,0.88,0,0,0,1,1.08h0.24v0.38c-0.49,0-1.37,0-2,0s-1.64,0-2.13,0V83.9h0.24c0.69,0,1-.06,1-1.05V76.14H25.53Z"/><path class="cls-3" d="M30.49,84.34c-0.49,0-1.37-.05-2-0.05s-1.64.05-2.13,0.05h0V83.85h0.29c0.69,0,1,0,1-1V76.19h-2V76.08h2.12v6.77c0,1-.41,1.11-1.1,1.11H26.36v0.27c0.5,0,1.35-.05,2.08-0.05s1.5,0,2,.05V84H30.25a0.94,0.94,0,0,1-1.1-1.14V76.08h2.12a1,1,0,0,1,1,1.19l0.27-.1c0-.33,0-0.66,0-1s0.08-.65.13-1l-0.19,0a0.58,0.58,0,0,1-.73.38H25.21a0.63,0.63,0,0,1-.73-0.36H24.27a7.42,7.42,0,0,1-.07,1c0,0.34-.1.68-0.14,1h0.27c0.16-.88.27-1.16,1.21-1.15v0.11c-0.93,0-.91.17-1.12,1.1v0H23.93V77.27c0.05-.35.11-0.7,0.15-1.07a7.64,7.64,0,0,0,.07-1.05V75.09h0.4v0c0.09,0.32.32,0.32,0.64,0.32h6.54c0.35,0,.61,0,0.63-0.34V75.06h0.05l0.35,0.06v0.05c0,0.34-.1.68-0.14,1s0,0.67,0,1v0l0,0-0.45.16V77.35a1,1,0,0,0-.88-1.16h-2v6.63c0,0.95.39,1,1,1h0.3v0.49H30.49Z"/><path class="cls-3" d="M33.14,83.9h0.18c0.45,0,.93-0.06.93-0.72V76.6c0-.66-0.47-0.72-0.93-0.72H33.14V75.51c0.76,0,2.07.05,3.12,0.05s2.37-.05,3.22-0.05c0,0.54,0,1.37,0,1.92l-0.38.1a1.29,1.29,0,0,0-1.53-1.47H35.85v3.29h1.49c0.76,0,.92-0.43,1-1.11h0.38c0,0.49,0,1,0,1.47s0,1,0,1.43l-0.38.08c-0.08-.75-0.11-1.24-1-1.24H35.85v2.93c0,0.82.73,0.82,1.54,0.82,1.51,0,2.17-.1,2.55-1.53l0.35,0.09c-0.16.67-.31,1.34-0.43,2-0.8,0-2.25,0-3.38,0s-2.62,0-3.34,0V83.9Z"/><path class="cls-3" d="M39.81,84.23c0.11-.63.26-1.27,0.41-1.9L40,82.26c-0.38,1.41-1.11,1.54-2.59,1.53-0.79,0-1.58,0-1.59-.87v-3h1.56c0.88,0,1,.52,1,1.24l0.27-.06c0-.46,0-0.93,0-1.39s0-.94,0-1.42H38.39a1,1,0,0,1-1,1.11H35.8V76H37.6a1.33,1.33,0,0,1,1.58,1.46l0.27-.07c0-.36,0-0.81,0-1.23,0-.21,0-0.42,0-0.59-0.86,0-2.13.05-3.16,0.05s-2.3,0-3.07-.05v0.27h0.12a0.79,0.79,0,0,1,1,.77v6.58a0.78,0.78,0,0,1-1,.77H33.19v0.27c0.73,0,2.19-.05,3.29-0.05s2.52,0,3.33.05m0,0.11c-0.8,0-2.25-.05-3.38-0.05s-2.62.05-3.34,0.05H33.08V83.85h0.23c0.45,0,.87,0,0.87-0.66V76.6c0-.62-0.42-0.66-0.87-0.66H33.08V75.46h0.06c0.76,0,2.07,0,3.12,0s2.37,0,3.22,0h0.05v0.05c0,0.19,0,.42,0,0.65,0,0.44,0,.91,0,1.27v0h0l-0.44.12V77.54a1.24,1.24,0,0,0-1.47-1.42H35.9V79.3h1.44c0.73,0,.86-0.37.94-1.05V78.19h0.48v0.06c0,0.49,0,1,0,1.47s0,1,0,1.43v0h0l-0.43.09V81.24C38.2,80.47,38.2,80,37.36,80H35.9v2.88c0,0.76.66,0.76,1.48,0.76,1.51,0,2.12-.08,2.5-1.49v0h0.05l0.41,0.1V82.3c-0.16.66-.31,1.33-0.43,2v0h0Z"/><path class="cls-3" d="M43.59,79.76h0.62a1.67,1.67,0,0,0,1.93-2A1.72,1.72,0,0,0,44.31,76a5.72,5.72,0,0,0-.71.05v3.74ZM42,76.84a0.78,0.78,0,0,0-.89-1H40.87V75.51c0.4,0,1.18.05,1.95,0.05s1.35-.05,2-0.05c1.58,0,3,.43,3,2.22a2.37,2.37,0,0,1-1.74,2.21l2.15,3.21a1.39,1.39,0,0,0,1.22.75v0.38c-0.41,0-.82,0-1.23,0s-0.79,0-1.18,0a34.54,34.54,0,0,1-2.61-4.07H43.59V82.9a0.83,0.83,0,0,0,1,1h0.23v0.38c-0.72,0-1.45,0-2.16,0s-1.19,0-1.82,0V83.9h0.22A0.76,0.76,0,0,0,42,83.23V76.84Z"/><path class="cls-3" d="M44.21,79.7c1.24,0,1.87-.44,1.88-1.9A1.67,1.67,0,0,0,44.31,76a5.41,5.41,0,0,0-.66,0V79.7h0.56Zm-0.62.11H43.54V76h0a5.75,5.75,0,0,1,.72,0A1.77,1.77,0,0,1,46.2,77.8a1.73,1.73,0,0,1-2,2H43.59Zm0,0.34h0.86v0a39.28,39.28,0,0,0,2.57,4c0.39,0,.79-0.05,1.18-0.05s0.78,0,1.18.05V84a1.44,1.44,0,0,1-1.21-.77L46,79.91l0.06,0a2.32,2.32,0,0,0,1.71-2.16c0-1.74-1.35-2.15-2.93-2.16-0.66,0-1.27.05-2,.05s-1.49,0-1.9-.05v0.27h0.18a0.84,0.84,0,0,1,.95,1v6.39a0.82,0.82,0,0,1-.95.73H40.91v0.27c0.61,0,1.18-.05,1.77-0.05s1.41,0,2.11.05V84H44.62a0.89,0.89,0,0,1-1.08-1.06V80.15h0.05Zm5.86,4.18c-0.42,0-.82-0.05-1.23-0.05s-0.78.05-1.22,0a34.43,34.43,0,0,1-2.6-4.05H43.65V82.9c0,0.94.39,0.94,1,.95h0.29v0.49H44.85c-0.72,0-1.45-.05-2.16-0.05s-1.19.05-1.83,0.05H40.81V83.85h0.29a0.71,0.71,0,0,0,.84-0.62V76.84c0-.89-0.45-0.89-0.84-0.9H40.81V75.46h0.05c0.41,0,1.18,0,2,0s1.35,0,2,0c1.58,0,3,.44,3,2.26A2.4,2.4,0,0,1,46.16,80l2.12,3.17a1.33,1.33,0,0,0,1.17.72h0v0.48H49.45Z"/><path class="cls-3" d="M58,81.8l0,0V77.07a1,1,0,0,0-1.09-1.18H56.64V75.51c0.6,0,1.17.05,1.76,0.05s1-.05,1.55-0.05v0.38H59.76c-0.54,0-1.12.1-1.12,1.6V83.2a8.55,8.55,0,0,0,.07,1.27H58.23l-6.47-7.22v5.18c0,1.09.22,1.47,1.18,1.47h0.21v0.38c-0.53,0-1.07,0-1.62,0s-1.15,0-1.71,0V83.9H50c0.87,0,1.13-.59,1.13-1.59V77A1.13,1.13,0,0,0,50,75.88H49.83V75.51c0.47,0,1,.05,1.45.05s0.74-.05,1.12-0.05Z"/><path class="cls-3" d="M57.95,81.78h0Zm0,0,0,0Zm0.25,2.61h0.41a9.8,9.8,0,0,1-.06-1.21V77.48c0-1.51.63-1.65,1.18-1.65h0.13V75.56c-0.49,0-1,.05-1.49.05s-1.14,0-1.71-.05v0.27h0.22a1.1,1.1,0,0,1,1.15,1.24l0,4.75,0,0,0,0-5.59-6.32c-0.37,0-.73.05-1.12,0.05s-0.94,0-1.39-.05v0.27H50A1.19,1.19,0,0,1,51.19,77v5.29c0,1-.28,1.65-1.18,1.65H49.88v0.27c0.54,0,1.1-.05,1.65-0.05s1.05,0,1.57.05V84H52.94c-1,0-1.24-.43-1.24-1.53V77.11Zm0.48,0.11-0.52,0L51.82,77.4v5c0,1.1.18,1.41,1.13,1.41h0.26v0.49H53.15c-0.54,0-1.08-.05-1.62-0.05s-1.14.05-1.7,0.05H49.77V83.85H50c0.83,0,1.07-.54,1.08-1.54V77A1.08,1.08,0,0,0,50,75.94H49.77V75.46h0.06c0.48,0,1,0,1.45,0s0.73,0,1.15,0l5.52,6.23V77.07a1,1,0,0,0-1-1.13H56.58V75.46h0.05c0.6,0,1.18,0,1.76,0s1,0,1.54,0H60v0.49H59.76c-0.52,0-1.06.06-1.07,1.54V83.2a7.3,7.3,0,0,0,.08,1.26v0.06H58.71Z"/><path class="cls-3" d="M63.8,76.91h0l-1.17,3.56H65ZM62,82.49a5.43,5.43,0,0,0-.28,1c0,0.38.53,0.44,0.95,0.44h0.13v0.38c-0.5,0-1,0-1.52,0s-0.9,0-1.36,0V83.9H60a1.14,1.14,0,0,0,1.09-.82l2-5.77a10.15,10.15,0,0,0,.46-1.56,6.38,6.38,0,0,0,1.14-.54,0.31,0.31,0,0,1,.1,0,0.09,0.09,0,0,1,.09,0c0,0.1.07,0.22,0.12,0.31l2.31,6.58c0.15,0.44.3,0.9,0.46,1.28a0.8,0.8,0,0,0,.83.5h0.07v0.38c-0.57,0-1.13,0-1.73,0s-1.25,0-1.89,0V83.9h0.14c0.29,0,.78-0.05.78-0.36a3.9,3.9,0,0,0-.25-0.91l-0.49-1.46H62.37Z"/><path class="cls-3" d="M63.75,76.93h0Zm-1.07,3.48h2.19L63.79,77Zm-0.15.11,1.21-3.67H63.8v0.05h0V76.86h0L65,80.53h-2.5Zm2.57,3.7c0.62,0,1.23,0,1.83,0s1.13,0,1.68,0V84h0a0.84,0.84,0,0,1-.88-0.54c-0.17-.38-0.32-0.84-0.47-1.29l-2.31-6.57a3.07,3.07,0,0,1-.11-0.3h0l-0.07,0a5,5,0,0,1-1.12.5,10.24,10.24,0,0,1-.47,1.57l-2,5.77A1.2,1.2,0,0,1,60,84h0v0.27c0.43,0,.87,0,1.3,0s1,0,1.46,0V84H62.64c-0.42,0-1-.05-1-0.49a4.86,4.86,0,0,1,.28-1l0.05,0-0.05,0,0.41-1.34h2.94l0.5,1.49a3.81,3.81,0,0,1,.26.93c0,0.39-.55.41-0.83,0.42H65.1v0.27Zm3.56,0.11c-0.57,0-1.14-.05-1.73-0.05s-1.24,0-1.89.05H65V83.85h0.19c0.29,0,.73-0.06.73-0.3a4,4,0,0,0-.25-0.89l-0.47-1.42H62.41L62,82.5a5.32,5.32,0,0,0-.28,1c0,0.31.47,0.38,0.9,0.38h0.19v0.49H62.77c-0.51,0-1-.05-1.52-0.05s-0.9,0-1.35.05H59.84V83.85H60a1.07,1.07,0,0,0,1-.78l2-5.77a14.63,14.63,0,0,0,.5-1.59,6.63,6.63,0,0,0,1.14-.54,0.37,0.37,0,0,1,.12,0,0.17,0.17,0,0,1,.14.07c0,0.1.07,0.22,0.11,0.32l2.31,6.57c0.15,0.44.3,0.91,0.46,1.28a0.73,0.73,0,0,0,.78.47h0.13v0.49H68.67Z"/><path class="cls-3" d="M69.22,76.14c-0.95,0-1,.23-1.17,1.14H67.67c0-.35.12-0.7,0.15-1.07a8,8,0,0,0,.07-1.06H68.2a0.61,0.61,0,0,0,.76.36h6.49c0.34,0,.65,0,0.68-0.39l0.3,0c-0.05.34-.1,0.68-0.13,1a9.72,9.72,0,0,0,0,1l-0.37.14a1,1,0,0,0-.93-1.21H72.89v6.69a0.88,0.88,0,0,0,1,1.08h0.24v0.38c-0.49,0-1.37,0-2,0s-1.64,0-2.12,0V83.9h0.23c0.7,0,1.05-.06,1.05-1.05V76.14H69.22Z"/><path class="cls-3" d="M74.17,84.34c-0.49,0-1.37-.05-2-0.05s-1.63.05-2.12,0.05H69.95V83.85h0.29c0.7,0,1,0,1-1V76.19h-2V76.08h2.11v6.77A0.9,0.9,0,0,1,70.23,84H70.05v0.27c0.49,0,1.34-.05,2.07-0.05s1.5,0,2,.05V84H73.93a1,1,0,0,1-1.1-1.14V76.08h2.12a1,1,0,0,1,1,1.19l0.27-.1c0-.33,0-0.66,0-1s0.07-.65.12-1l-0.19,0a0.58,0.58,0,0,1-.72.38H68.89a0.63,0.63,0,0,1-.73-0.36H68a7,7,0,0,1-.08,1c0,0.34-.09.68-0.14,1H68c0.17-.88.28-1.17,1.22-1.15v0.11c-0.93,0-.91.17-1.12,1.1v0H67.61V77.27c0.06-.35.11-0.71,0.15-1.07a6.76,6.76,0,0,0,.08-1.06V75.09h0.4v0c0.09,0.32.32,0.32,0.64,0.32h6.55c0.34,0,.6,0,0.62-0.34V75.06h0.05l0.36,0.06v0.05c-0.05.34-.1,0.68-0.14,1s0,0.68,0,1v0l0,0-0.45.16V77.35a1,1,0,0,0-.88-1.16h-2v6.63c0,0.95.39,1,1,1h0.29v0.49H74.17Z"/><path class="cls-3" d="M76.88,83.9h0.17c0.45,0,.93-0.06.93-0.72V76.6c0-.66-0.48-0.72-0.93-0.72H76.88V75.51c0.49,0,1.24.05,1.86,0.05s1.38-.05,2-0.05v0.38H80.54c-0.45,0-.93.06-0.93,0.72v6.58c0,0.66.47,0.72,0.93,0.72h0.18v0.38c-0.6,0-1.35,0-2,0s-1.36,0-1.85,0V83.9Z"/><path class="cls-3" d="M80.66,84.23V84H80.54a0.78,0.78,0,0,1-1-.77V76.6a0.79,0.79,0,0,1,1-.77h0.12V75.56c-0.58,0-1.31.05-1.92,0.05s-1.32,0-1.81-.05v0.27h0.12a0.79,0.79,0,0,1,1,.77v6.58a0.79,0.79,0,0,1-1,.77H76.94v0.27c0.49,0,1.2-.05,1.8-0.05s1.33,0,1.93.05m0.05,0.11c-0.6,0-1.36-.05-2-0.05s-1.36.05-1.85,0.05H76.83V83.85h0.23c0.45,0,.87,0,0.87-0.66V76.6c0-.62-0.42-0.66-0.87-0.66H76.83V75.46h0.05c0.49,0,1.25,0,1.86,0s1.38,0,2,0h0.05v0.49H80.54c-0.45,0-.87,0-0.87.66v6.58c0,0.62.42,0.66,0.87,0.66h0.23v0.49H80.72Z"/><path class="cls-3" d="M85.92,83.92c2.44,0,2.86-2.15,2.86-4s-1-4.06-3.08-4.06-2.85,2-2.85,3.64c0,2.25,1,4.4,3.07,4.4m-0.19-8.6c2.68,0,4.81,1.66,4.81,4.34a4.61,4.61,0,0,1-4.75,4.81A4.44,4.44,0,0,1,81.1,80a4.57,4.57,0,0,1,4.64-4.64"/><path class="cls-3" d="M82.8,79.52c0-1.69.66-3.7,2.91-3.7s3.13,2.27,3.14,4.12-0.44,4-2.92,4V83.86c2.39,0,2.81-2.1,2.81-3.93s-1-4-3-4-2.79,1.92-2.8,3.59c0,2.24,1,4.34,3,4.35V84c-2.09,0-3.12-2.19-3.12-4.45M81,80a4.63,4.63,0,0,1,4.69-4.69v0.11A4.52,4.52,0,0,0,81.15,80a4.38,4.38,0,0,0,4.65,4.46,4.55,4.55,0,0,0,4.7-4.75c0-2.65-2.1-4.28-4.76-4.29V75.27c2.7,0,4.86,1.68,4.87,4.39a4.67,4.67,0,0,1-4.81,4.87A4.51,4.51,0,0,1,81,80"/><path class="cls-3" d="M99,81.8l0,0V77.07a1,1,0,0,0-1.09-1.18H97.68V75.51c0.59,0,1.17.05,1.76,0.05s1-.05,1.55-0.05v0.38H100.8c-0.53,0-1.12.1-1.12,1.6V83.2a8.35,8.35,0,0,0,.08,1.27H99.27L92.8,77.25v5.18c0,1.09.22,1.47,1.18,1.47h0.22v0.38c-0.54,0-1.08,0-1.62,0s-1.15,0-1.71,0V83.9H91c0.87,0,1.13-.59,1.13-1.59V77A1.13,1.13,0,0,0,91,75.88H90.86V75.51c0.48,0,1,.05,1.45.05s0.74-.05,1.12-0.05Z"/><path class="cls-3" d="M99,81.78h0Zm0,0,0,0Zm0.26,2.61h0.41a8.8,8.8,0,0,1-.07-1.21V77.48c0-1.51.63-1.65,1.18-1.65h0.13V75.56c-0.5,0-1,.05-1.5.05s-1.13,0-1.7-.05v0.27h0.22a1.1,1.1,0,0,1,1.15,1.24v4.75l0,0,0,0-5.59-6.32c-0.37,0-.74.05-1.12,0.05s-0.94,0-1.39-.05v0.27H91A1.19,1.19,0,0,1,92.22,77v5.29c0,1-.28,1.65-1.18,1.65H90.92v0.27c0.55,0,1.1-.05,1.66-0.05s1,0,1.57.05V84H94c-1,0-1.24-.43-1.24-1.52V77.11Zm0.48,0.11-0.52,0L92.85,77.4v5c0,1.09.18,1.4,1.13,1.41h0.27v0.49H94.19c-0.55,0-1.09-.05-1.62-0.05s-1.15.05-1.71,0.05H90.81V83.85H91c0.83,0,1.07-.53,1.07-1.54V77A1.07,1.07,0,0,0,91,75.94H90.81V75.46h0.05c0.48,0,1,0,1.45,0s0.73,0,1.16,0L99,81.69V77.07a1,1,0,0,0-1-1.13H97.62V75.46h0.06c0.59,0,1.17,0,1.76,0s1,0,1.55,0H101v0.49H100.8c-0.52,0-1.05.06-1.07,1.54V83.2a8.57,8.57,0,0,0,.07,1.26v0.06H99.75Z"/><path class="cls-3" d="M104.84,76.91h0l-1.18,3.56H106ZM103,82.49a5.12,5.12,0,0,0-.27,1c0,0.38.53,0.44,0.93,0.44h0.14v0.38c-0.5,0-1,0-1.52,0s-0.9,0-1.35,0V83.9H101a1.13,1.13,0,0,0,1.09-.82l2-5.77a11.15,11.15,0,0,0,.46-1.56,6.35,6.35,0,0,0,1.15-.54l0.09,0a0.08,0.08,0,0,1,.09,0c0,0.1.07,0.22,0.12,0.31l2.31,6.58c0.15,0.44.3,0.9,0.47,1.28a0.81,0.81,0,0,0,.83.5h0.08v0.38c-0.57,0-1.14,0-1.74,0s-1.24,0-1.89,0V83.9h0.14c0.28,0,.78-0.05.78-0.36a4.15,4.15,0,0,0-.25-0.91l-0.49-1.46h-2.85Z"/><path class="cls-3" d="M104.78,76.93h0Zm-1.07,3.48h2.2l-1.1-3.36Zm-0.15.11,1.2-3.66h0.07v0.05h0V76.86h0l1.19,3.66h-2.49Zm2.56,3.7c0.62,0,1.24,0,1.83,0s1.14,0,1.68,0V84h0a0.86,0.86,0,0,1-.88-0.54c-0.16-.38-0.31-0.84-0.46-1.28L106,75.56l-0.1-.3h0l-0.07,0a4.92,4.92,0,0,1-1.12.5,10.38,10.38,0,0,1-.46,1.57l-2,5.77A1.19,1.19,0,0,1,101,84h0v0.27c0.43,0,.87,0,1.3,0s1,0,1.47,0V84h-0.09c-0.41,0-1,0-1-.49a5.42,5.42,0,0,1,.28-1l0,0,0,0,0.41-1.34h2.93l0.5,1.49a3.82,3.82,0,0,1,.26.93c0,0.39-.55.41-0.83,0.42h-0.09v0.27Zm3.57,0.11c-0.57,0-1.13-.05-1.73-0.05s-1.24,0-1.88.05H106V83.85h0.2c0.29,0,.72-0.06.72-0.31a4,4,0,0,0-.25-0.89l-0.48-1.42h-2.77l-0.39,1.27a4.61,4.61,0,0,0-.27,1c0,0.31.47,0.38,0.88,0.38h0.19v0.49H103.8c-0.49,0-1-.05-1.52-0.05s-0.9,0-1.35.05h-0.05V83.85H101a1.09,1.09,0,0,0,1-.78l2-5.77c0.16-.47.38-1.09,0.5-1.59a6.67,6.67,0,0,0,1.14-.54,0.36,0.36,0,0,1,.11,0,0.15,0.15,0,0,1,.14.07c0,0.1.07,0.21,0.12,0.32l2.31,6.57c0.15,0.44.3,0.91,0.46,1.28a0.74,0.74,0,0,0,.78.46h0.14v0.49H109.7Z"/><path class="cls-3" d="M112.87,83.05a0.7,0.7,0,0,0,.76.7,8.24,8.24,0,0,0,1.66,0,1.79,1.79,0,0,0,1.2-.68,2.8,2.8,0,0,0,.39-0.91h0.37c-0.15.72-.32,1.42-0.47,2.14-1.1,0-2.21,0-3.31,0s-2.22,0-3.32,0V83.9h0.17a0.77,0.77,0,0,0,.95-0.84V76.6c0-.66-0.49-0.72-0.95-0.72h-0.17V75.51c0.66,0,1.32.05,2,.05s1.27-.05,1.91-0.05v0.38h-0.32c-0.47,0-.85,0-0.85.68v6.49Z"/><path class="cls-3" d="M116.73,84.23c0.15-.68.31-1.35,0.45-2h-0.25a3.14,3.14,0,0,1-.39.89,1.89,1.89,0,0,1-1.25.7c-0.32,0-.65.05-1,0.05l-0.7,0a0.75,0.75,0,0,1-.8-0.76V76.56c0-.7.44-0.73,0.9-0.73H114V75.56c-0.62,0-1.23.05-1.86,0.05s-1.28,0-1.93-.05v0.27h0.12a0.8,0.8,0,0,1,1,.77v6.46a0.83,0.83,0,0,1-1,.9h-0.12v0.27c1.09,0,2.18-.05,3.27-0.05s2.18,0,3.26.05m0,0.11c-1.11,0-2.22-.05-3.31-0.05s-2.22.05-3.33,0.05h-0.05V83.85h0.23a0.71,0.71,0,0,0,.89-0.79V76.6c0-.61-0.43-0.65-0.89-0.66h-0.23V75.46h0.05c0.67,0,1.32,0,2,0s1.27,0,1.91,0h0v0.49h-0.37c-0.49,0-.79,0-0.8.62v6.49a0.65,0.65,0,0,0,.7.65l0.7,0a8.43,8.43,0,0,0,1-.05,1.73,1.73,0,0,0,1.17-.66,2.9,2.9,0,0,0,.38-0.89v0h0.47v0.07c-0.14.72-.32,1.42-0.46,2.14l0,0h0Z"/><path class="cls-3" d="M116.88,76.48H117a0.27,0.27,0,0,0,.25-0.34,0.25,0.25,0,0,0-.26-0.28h-0.15v0.62Zm-0.45.7V77.11c0.16,0,.19,0,0.19-0.12V76c0-.14,0-0.19-0.18-0.18V75.77h0.68a0.39,0.39,0,0,1,.45.35,0.42,0.42,0,0,1-.31.4l0.22,0.3a1.41,1.41,0,0,0,.29.31v0H117.5a1.46,1.46,0,0,1-.47-0.61h-0.15V77c0,0.09,0,.08.19,0.1v0.07h-0.64Zm0.66,0.38a1.08,1.08,0,1,0-1-1.07,1.06,1.06,0,0,0,1,1.07m0-2.4a1.32,1.32,0,1,1-1.33,1.33,1.31,1.31,0,0,1,1.33-1.33"/></svg>