<svg id="Camada_1" data-name="Camada 1" xmlns="http://www.w3.org/2000/svg" viewBox="0 0 372.23 98.32"><defs><style>.cls-1{fill:#fff;}</style></defs><title>DINERS_branco</title><path class="cls-1" d="M20.69,49.08C20.73,61.24,29,71.58,39,75.7V22.45C29,26.58,20.73,36.94,20.69,49.08Z"/><path class="cls-1" d="M60,22.45V75.72C70,71.6,78.31,61.24,78.32,49.08S70,26.56,60,22.45Z"/><path class="cls-1" d="M72.72,0.32H49.59C22.38,0.32,0,20.42,0,49.75,0,76.57,22.38,98.32,49.59,98.32H72.72c26.88,0,51.42-21.74,51.42-48.57C124.14,20.42,99.59.32,72.72,0.32Zm-23,93.77a45,45,0,1,1,45-45A45,45,0,0,1,49.7,94.09Z"/><path class="cls-1" d="M146,42.49c0,3.84,2.74,4.3,5.2,4.3,10.78,0,14.31-8.13,14.31-15.57,0-9.32-6-16.06-15.61-16.06-2,0-3,.15-3.9.2V42.49Zm-4.88-23.4c0-4.48-2.35-4.19-4.59-4.23V13.57c1.94,0.09,3.93.09,5.89,0.09s4.94-.09,8.63-0.09C163.93,13.57,171,22.19,171,31c0,4.94-2.89,17.36-20.54,17.36-2.54,0-4.89-.1-7.24-0.1s-4.44.05-6.68,0.1v-1.3c3-.3,4.44-0.4,4.59-3.79V19.09Z"/><path class="cls-1" d="M178.05,17.91a2.56,2.56,0,0,1-2.43-2.5A2.54,2.54,0,0,1,178.05,13a2.44,2.44,0,0,1,2.46,2.39,2.5,2.5,0,0,1-2.46,2.5m-5.33,29.19h1c1.39,0,2.4,0,2.4-1.65V31.92c0-2.19-.76-2.49-2.6-3.48V27.63c2.34-.7,5.14-1.64,5.33-1.79a1.81,1.81,0,0,1,.91-0.25c0.25,0,.35.3,0.35,0.7V45.44c0,1.65,1.09,1.65,2.5,1.65h0.84v1.3c-1.69,0-3.45-.1-5.25-0.1s-3.59.05-5.43,0.1v-1.3Z"/><path class="cls-1" d="M188.12,32.22c0-1.84-.54-2.34-2.89-3.28V28a62.91,62.91,0,0,0,6.59-2.39c0.15,0,.29.11,0.29,0.5v3.24c2.85-2,5.3-3.74,8.65-3.74,4.23,0,5.73,3.09,5.73,7V45.44c0,1.65,1.11,1.65,2.5,1.65h0.9v1.3c-1.75,0-3.49-.1-5.28-0.1s-3.6.05-5.39,0.1v-1.3h0.89c1.4,0,2.4,0,2.4-1.65V32.52c0-2.84-1.74-4.24-4.59-4.24-1.59,0-4.13,1.3-5.8,2.39V45.44c0,1.65,1.11,1.65,2.51,1.65h0.89v1.3c-1.73,0-3.48-.1-5.28-0.1s-3.59.05-5.39,0.1v-1.3h0.91c1.39,0,2.38,0,2.38-1.65V32.22Z"/><path class="cls-1" d="M222.51,33a1.12,1.12,0,0,0,1.38-1.25c0-2.54-1.54-4.59-4.33-4.59-3.05,0-5.14,2.25-5.74,5.84h8.69Zm-8.83,1.6a12.5,12.5,0,0,0,0,2.9C214,42.25,217,46.14,221,46.14c2.74,0,4.89-1.49,6.73-3.34l0.7,0.7c-2.29,3-5.14,5.63-9.23,5.63-7.93,0-9.54-7.68-9.54-10.87,0-9.78,6.59-12.68,10.07-12.68,4,0,8.4,2.55,8.44,7.84a6.51,6.51,0,0,1,0,.89l-0.47.3h-14Z"/><path class="cls-1" d="M229.33,47.09h1.36c1.39,0,2.38,0,2.38-1.65v-14c0-1.54-1.84-1.84-2.58-2.24V28.44c3.64-1.55,5.64-2.85,6.09-2.85,0.29,0,.44.16,0.44,0.65v4.49h0.12c1.24-1.94,3.32-5.14,6.38-5.14a2.72,2.72,0,0,1,2.84,2.65A2.41,2.41,0,0,1,244,30.78c-1.55,0-1.55-1.2-3.3-1.2a4.2,4.2,0,0,0-3.64,4.14V45.44c0,1.65,1,1.65,2.4,1.65h2.79v1.3c-2.75-.05-4.83-0.1-7-0.1s-4.15.05-5.94,0.1v-1.3Z"/><path class="cls-1" d="M248.54,41.45c0.66,3.29,2.66,6.08,6.29,6.08,2.94,0,4-1.79,4-3.54,0-5.89-10.87-4-10.87-12,0-2.79,2.25-6.39,7.74-6.39A13.18,13.18,0,0,1,261.41,27l0.35,5.09h-1.15c-0.49-3.14-2.23-4.94-5.44-4.94-2,0-3.88,1.15-3.88,3.3,0,5.83,11.57,4,11.57,11.87,0,3.29-2.65,6.78-8.59,6.78a13.11,13.11,0,0,1-6.07-1.69l-0.55-5.73Z"/><path class="cls-1" d="M307.91,22.59h-1.25c-1-5.83-5.09-8.18-10.69-8.18s-14.06,3.83-14.06,15.81c0,10.08,7.18,17.31,14.86,17.31a10.14,10.14,0,0,0,10-8.63L308,39.2l-1.14,7.29c-2.1,1.3-7.74,2.64-11,2.64-11.67,0-19.05-7.52-19.05-18.75,0-10.23,9.12-17.56,18.9-17.56,4,0,7.93,1.29,11.77,2.65Z"/><path class="cls-1" d="M309.7,47.09h1c1.4,0,2.39,0,2.39-1.65V17.65c0-3.24-.75-3.34-2.65-3.89V13a30.38,30.38,0,0,0,5.14-2.15,5.31,5.31,0,0,1,1.1-.54c0.29,0,.39.3,0.39,0.7V45.44c0,1.65,1.09,1.65,2.5,1.65h0.84v1.3c-1.7,0-3.44-.1-5.24-0.1s-3.58.05-5.43,0.1v-1.3Z"/><path class="cls-1" d="M341.73,45.64c0,0.9.54,0.95,1.39,0.95,0.6,0,1.36,0,2,0v1.05a51.47,51.47,0,0,0-7.17,1.54L337.68,49v-4c-3,2.45-5.29,4.19-8.82,4.19-2.7,0-5.49-1.74-5.49-5.93V30.43c0-1.3-.21-2.55-3-2.8v-1c1.8,0,5.79-.34,6.44-0.34s0.56,0.34.56,1.45V40.65c0,1.49,0,5.79,4.33,5.79,1.7,0,3.93-1.3,6-3V30c0-1-2.39-1.54-4.19-2V27c4.48-.3,7.27-0.69,7.76-0.69s0.41,0.34.41,0.9v18.4Z"/><path class="cls-1" d="M351.66,42.75a5.37,5.37,0,0,0,5.14,5.1c5.33,0,7.58-5.24,7.58-9.68,0-5.39-4.09-9.88-8-9.88-1.84,0-3.39,1.19-4.73,2.34V42.75Zm0-13.56c2-1.7,4.69-3.6,7.43-3.6,5.78,0,9.27,5,9.27,10.48,0,6.54-4.79,13.07-11.93,13.07a14.74,14.74,0,0,1-6.92-1.74L348,48.53,347,48a60.53,60.53,0,0,0,.69-8.88V17.65c0-3.24-.76-3.34-2.65-3.89V13a31.22,31.22,0,0,0,5.14-2.16,5.7,5.7,0,0,1,1.1-.54c0.3,0,.41.3,0.41,0.7V29.18Z"/><path class="cls-1" d="M136.45,77.39h0.38c1,0,2-.13,2-1.55V61.63c0-1.42-1-1.55-2-1.55h-0.38V59.26c1.05,0,2.68.11,4,.11s3-.11,4.26-0.11v0.81h-0.38c-1,0-2,.14-2,1.55V75.84c0,1.42,1,1.55,2,1.55h0.38v0.82c-1.31,0-2.93-.11-4.29-0.11s-2.93.11-4,.11V77.39Z"/><path class="cls-1" d="M144.61,78.09V77.51h-0.26c-1,0-2.13-.16-2.13-1.67V61.63c0-1.5,1.15-1.67,2.13-1.67h0.26V59.38c-1.26,0-2.83.11-4.15,0.11s-2.84-.1-3.9-0.11V60h0.27c1,0,2.11.17,2.11,1.67V75.84c0,1.51-1.15,1.67-2.11,1.67h-0.27v0.58c1.05,0,2.58-.11,3.87-0.11s2.89,0.11,4.18.11m0.12,0.24c-1.31,0-2.93-.11-4.29-0.11s-2.92.11-4,.11h-0.12V77.27h0.5c1,0,1.86-.1,1.88-1.43V61.63c0-1.33-.9-1.42-1.88-1.43h-0.5v-1h0.12c1.07,0,2.68.1,4,.1s3-.1,4.26-0.1h0.12v1h-0.5c-1,0-1.88.1-1.89,1.43V75.84c0,1.33.9,1.41,1.89,1.43h0.5v1.06h-0.12Z"/><path class="cls-1" d="M163.38,72.85l0.05-.05V62.63a2.25,2.25,0,0,0-2.36-2.55h-0.6V59.26c1.27,0,2.53.11,3.8,0.11,1.11,0,2.23-.11,3.34-0.11v0.81H167.2c-1.14,0-2.42.22-2.42,3.45V75.88a18.85,18.85,0,0,0,.16,2.74h-1L149.95,63V74.22c0,2.36.45,3.17,2.54,3.17H153v0.82c-1.17,0-2.33-.11-3.5-0.11s-2.47.11-3.69,0.11V77.39h0.38c1.88,0,2.45-1.27,2.45-3.44V62.52a2.44,2.44,0,0,0-2.48-2.45h-0.35V59.26c1,0,2.08.11,3.12,0.11,0.82,0,1.61-.11,2.42-0.11Z"/><path class="cls-1" d="M163.31,72.8h0l0,0Zm0.07,0.05,0.09-.07Zm0.54,5.64h0.89a18.14,18.14,0,0,1-.14-2.61V63.52c0-3.25,1.36-3.57,2.53-3.57h0.29V59.38c-1.08,0-2.14.11-3.22,0.11-1.24,0-2.45-.1-3.69-0.11V60h0.49a2.37,2.37,0,0,1,2.46,2.67l0,10.26-0.06.06-0.09.09L151.29,59.38c-0.81,0-1.59.11-2.42,0.11-1,0-2-.1-3-0.11V60h0.23a2.55,2.55,0,0,1,2.58,2.56V73.95c0,2.17-.6,3.56-2.55,3.56h-0.26v0.58c1.18,0,2.4-.11,3.58-0.11s2.26,0.11,3.39.11V77.51h-0.35c-2.13,0-2.66-.93-2.68-3.29V62.73Zm1,0.24-1.11,0L150,63.34V74.22c0,2.36.39,3,2.44,3h0.58v1.06H153c-1.18,0-2.35-.11-3.5-0.11s-2.47.11-3.69,0.11h-0.12V77.27h0.5c1.8,0,2.31-1.16,2.34-3.32V62.52a2.33,2.33,0,0,0-2.37-2.32h-0.47v-1h0.12c1,0,2.1.1,3.12,0.1,0.81,0,1.6-.1,2.5-0.07l11.93,13.44v-10c0-2.15-1.45-2.42-2.24-2.43h-0.73v-1h0.13c1.27,0,2.53.1,3.8,0.1,1.11,0,2.22-.1,3.34-0.1h0.12v1H167.2c-1.12,0-2.26.13-2.31,3.33V75.88a17.73,17.73,0,0,0,.16,2.72l0,0.13h-0.15Z"/><path class="cls-1" d="M171.67,60.62c-2,0-2.12.49-2.53,2.47h-0.81c0.1-.76.24-1.52,0.32-2.31a16.87,16.87,0,0,0,.16-2.3h0.66c0.22,0.81.89,0.78,1.62,0.78h14c0.74,0,1.42,0,1.47-.84l0.64,0.11c-0.1.73-.21,1.47-0.29,2.2s0,1.47,0,2.2l-0.82.3c-0.06-1-.2-2.61-2-2.61h-4.45V75.06c0,2.1.95,2.33,2.25,2.33h0.52v0.82c-1.06,0-3-.11-4.42-0.11-1.63,0-3.53.11-4.59,0.11V77.39h0.52c1.49,0,2.25-.13,2.25-2.28V60.62h-4.45Z"/><path class="cls-1" d="M182.37,78.32c-1.06,0-3-.11-4.42-0.11-1.63,0-3.53.11-4.59,0.11h-0.11V77.27h0.63c1.49,0,2.1,0,2.13-2.16V60.73h-4.34V60.49h4.57V75.11c0,2.18-.88,2.4-2.37,2.4h-0.41v0.58c1.09,0,2.91-.11,4.48-0.11,1.42,0,3.23.11,4.3,0.11V77.51h-0.4c-1.31,0-2.37-.32-2.37-2.45V60.49h4.57c1.82,0,2.05,1.55,2.11,2.56l0.58-.21c0-.71,0-1.42.06-2.13s0.17-1.39.28-2.09l-0.41-.07c-0.13.79-.89,0.83-1.58,0.82H171a1.36,1.36,0,0,1-1.58-.79h-0.45a16,16,0,0,1-.16,2.21c-0.08.74-.21,1.46-0.31,2.18h0.58c0.35-1.9.58-2.5,2.61-2.48v0.24c-2,0-2,.37-2.41,2.38v0.09h-1V63.06c0.12-.75.25-1.52,0.33-2.31a16.51,16.51,0,0,0,.16-2.28V58.35h0.86v0.09c0.19,0.69.68,0.69,1.39,0.7H185.1c0.76,0,1.31,0,1.36-.74V58.28l0.12,0,0.76,0.12v0.12c-0.1.73-.22,1.46-0.29,2.19S187,62.19,187,62.93V63l-0.07,0-1,.35V63.23c-0.07-1-.17-2.5-1.89-2.5h-4.33V75.06c0,2,.85,2.19,2.13,2.21h0.65v1.06h-0.12Z"/><path class="cls-1" d="M188.09,77.39h0.38c1,0,2-.13,2-1.55V61.63c0-1.42-1-1.55-2-1.55h-0.38V59.26c1.65,0,4.47.11,6.75,0.11s5.11-.11,7-0.11c0,1.17,0,3,.06,4.15l-0.81.22c-0.13-1.76-.45-3.17-3.3-3.17H194v7.11h3.22c1.64,0,2-.92,2.15-2.39h0.81c-0.06,1.06-.09,2.11-0.09,3.17s0,2.07.09,3.1l-0.81.17c-0.17-1.63-.24-2.69-2.12-2.69H194v6.32C194,77,195.53,77,197.27,77c3.25,0,4.69-.21,5.5-3.31l0.76,0.18c-0.35,1.44-.67,2.88-0.92,4.32-1.74,0-4.86-.11-7.3-0.11s-5.66.11-7.21,0.11V77.39Z"/><path class="cls-1" d="M202.51,78.09c0.23-1.37.56-2.74,0.88-4.11l-0.53-.14c-0.82,3-2.4,3.32-5.59,3.29-1.71,0-3.42,0-3.43-1.89V68.81h3.37c1.9,0,2.09,1.12,2.22,2.67l0.58-.13c0-1-.07-2-0.07-3s0-2,.07-3.06h-0.58c-0.15,1.42-.59,2.41-2.25,2.39h-3.34V60.33h3.9c2.82,0,3.28,1.44,3.4,3.14l0.58-.16c0-.77-0.07-1.75-0.07-2.66,0-.46,0-0.9,0-1.28-1.85,0-4.6.11-6.83,0.11s-5-.1-6.63-0.11V60h0.27c1,0,2.12.17,2.12,1.67V75.84c0,1.51-1.15,1.67-2.12,1.67h-0.27v0.58c1.58,0,4.72-.11,7.1-0.11s5.45,0.11,7.2.11m0.1,0.24c-1.74,0-4.86-.11-7.3-0.11s-5.66.11-7.21,0.11H188V77.27h0.5c1,0,1.87-.1,1.89-1.43V61.63c0-1.33-.91-1.42-1.89-1.43H188v-1h0.12c1.65,0,4.47.1,6.75,0.1s5.11-.1,7-0.1h0.12v0.11c0,0.42,0,.9,0,1.4,0,0.94,0,2,.09,2.75V63.5l-0.09,0-0.95.25,0-.14c-0.16-1.76-.39-3-3.18-3.07h-3.66v6.87h3.11c1.58,0,1.86-.81,2-2.28l0-.11h1v0.12c-0.06,1.06-.09,2.11-0.09,3.17s0,2.06.09,3.1v0.1l-0.11,0-0.93.19,0-.12C199,70,199,69.06,197.21,69h-3.14v6.21c0,1.64,1.43,1.64,3.2,1.64,3.27,0,4.57-.17,5.39-3.23l0-.1,0.11,0,0.88,0.22,0,0.11c-0.35,1.43-.67,2.87-0.92,4.31v0.09h-0.1Z"/><path class="cls-1" d="M210.67,68.43H212c2.71,0,4.17-1,4.17-4.24a3.71,3.71,0,0,0-4-4,12.34,12.34,0,0,0-1.54.11v8.08Zm-3.48-6.29c0-2-1.08-2.06-1.93-2.06h-0.48V59.26c0.86,0,2.54.11,4.21,0.11s2.92-.11,4.37-0.11c3.41,0,6.45.93,6.45,4.79,0,2.44-1.62,3.93-3.77,4.77l4.64,6.94a3,3,0,0,0,2.63,1.63v0.82c-0.89,0-1.77-.11-2.66-0.11s-1.71.11-2.56,0.11a74.6,74.6,0,0,1-5.64-8.8h-1.79v5.81c0,2.09,1,2.17,2.21,2.17h0.5v0.82c-1.55,0-3.12-.11-4.67-0.11-1.3,0-2.57.11-3.93,0.11V77.39h0.48c1,0,1.93-.45,1.93-1.46V62.14Z"/><path class="cls-1" d="M212,68.31c2.68,0,4-1,4.07-4.11a3.61,3.61,0,0,0-3.86-3.85,11.68,11.68,0,0,0-1.43.1v7.86H212Zm-1.33.24h-0.12V60.24h0.1a12.42,12.42,0,0,1,1.56-.1,3.83,3.83,0,0,1,4.08,4.08c0,3.24-1.55,4.35-4.29,4.35h-1.33Zm0,0.74h1.85l0,0.06a84.82,84.82,0,0,0,5.54,8.74c0.83,0,1.71-.11,2.56-0.11s1.69,0.09,2.54.11v-0.6a3.11,3.11,0,0,1-2.62-1.66l-4.71-7.07,0.13-.05c2.12-.84,3.69-2.28,3.69-4.67,0-3.77-2.92-4.64-6.34-4.66-1.43,0-2.73.11-4.37,0.11s-3.22-.1-4.11-0.11V60h0.38c0.85,0,2,.14,2,2.18V75.93c0,1.09-1,1.58-2,1.58h-0.38v0.58c1.31,0,2.56-.11,3.83-0.11,1.52,0,3,.11,4.56.11V77.51h-0.38c-1.24,0-2.33-.15-2.33-2.29V69.29h0.12Zm12.64,9c-0.91,0-1.77-.11-2.66-0.11s-1.69.11-2.64,0.06a74.36,74.36,0,0,1-5.62-8.75h-1.61v5.69c0,2,.85,2,2.1,2h0.62v1.06h-0.12c-1.56,0-3.14-.11-4.67-0.11-1.3,0-2.57.11-3.94,0.11h-0.12V77.27h0.62c1,0,1.8-.43,1.81-1.34V62.14c0-1.93-1-1.91-1.81-1.94h-0.62v-1h0.12c0.89,0,2.55.1,4.22,0.1s2.92-.1,4.37-0.1c3.41,0,6.57.95,6.58,4.89,0,2.45-1.62,4-3.73,4.83l4.58,6.84a2.88,2.88,0,0,0,2.54,1.56l0.1,0v1h-0.12Z"/><path class="cls-1" d="M241.74,72.85l0.06-.05V62.63a2.24,2.24,0,0,0-2.36-2.55h-0.6V59.26c1.29,0,2.53.11,3.81,0.11,1.11,0,2.22-.11,3.35-0.11v0.81h-0.41c-1.16,0-2.42.22-2.42,3.45V75.88a18.46,18.46,0,0,0,.16,2.74h-1L228.31,63V74.22c0,2.36.47,3.17,2.56,3.17h0.45v0.82c-1.15,0-2.32-.11-3.49-0.11s-2.48.11-3.69,0.11V77.39h0.38c1.87,0,2.44-1.27,2.44-3.44V62.52a2.43,2.43,0,0,0-2.47-2.45h-0.35V59.26c1,0,2.09.11,3.12,0.11,0.81,0,1.59-.11,2.41-0.11Z"/><path class="cls-1" d="M241.67,72.8h0v0Zm0.07,0.05,0.09-.07Zm0.54,5.64h0.89a21.17,21.17,0,0,1-.13-2.61V63.52c0-3.25,1.37-3.56,2.54-3.57h0.27V59.38c-1.06,0-2.14.11-3.21,0.11-1.25,0-2.46-.1-3.69-0.11V60h0.48a2.38,2.38,0,0,1,2.48,2.67l0,10.26,0,0.06-0.09.09L229.67,59.38c-0.8,0-1.59.11-2.41,0.11-1,0-2-.1-3-0.11V60h0.23a2.57,2.57,0,0,1,2.59,2.56V73.94c0,2.17-.61,3.56-2.56,3.57h-0.26v0.58c1.17,0,2.38-.11,3.56-0.11s2.28,0.11,3.39.11V77.51h-0.34c-2.13,0-2.67-.93-2.67-3.3V62.73Zm1,0.24-1.12,0L228.43,63.34V74.21c0,2.37.39,3,2.44,3.05h0.57v1.06h-0.12c-1.17,0-2.34-.11-3.5-0.11s-2.45.11-3.68,0.11H224V77.27h0.51c1.78,0,2.31-1.16,2.32-3.32V62.52a2.32,2.32,0,0,0-2.35-2.32H224v-1h0.13c1,0,2.09.1,3.12,0.1,0.79,0,1.58-.1,2.49-0.07l11.93,13.44v-10c0-2.15-1.44-2.42-2.23-2.43h-0.72v-1h0.12c1.29,0,2.54.1,3.81,0.1,1.1,0,2.22-.1,3.34-0.1h0.12v1h-0.51c-1.12,0-2.28.13-2.31,3.33V75.88a15.76,15.76,0,0,0,.16,2.72v0.13h-0.14Z"/><path class="cls-1" d="M254.31,62.29h-0.06L251.74,70h5.06Zm-4,12a11.73,11.73,0,0,0-.6,2.11c0,0.81,1.14.94,2,.94h0.29v0.82c-1.08-.05-2.19-0.11-3.29-0.11s-1.94.06-2.94,0.11V77.39H246a2.46,2.46,0,0,0,2.35-1.76l4.35-12.46a21.92,21.92,0,0,0,1-3.37,13.77,13.77,0,0,0,2.47-1.17,0.66,0.66,0,0,1,.22-0.05,0.19,0.19,0,0,1,.19.08c0.07,0.22.16,0.47,0.25,0.67l5,14.2c0.32,0.95.64,2,1,2.77a1.72,1.72,0,0,0,1.8,1.08h0.16v0.82c-1.23-.05-2.44-0.11-3.74-0.11s-2.7.06-4.07,0.11V77.39h0.29c0.63,0,1.68-.11,1.68-0.78a8.43,8.43,0,0,0-.54-2l-1.05-3.15h-6.16Z"/><path class="cls-1" d="M254.2,62.33h0Zm-2.31,7.52h4.74l-2.35-7.27Zm-0.33.25,2.6-7.92h0.14v0.11h0V62.19h0.08L257,70.1h-5.41Zm5.55,8c1.34-.05,2.66-0.11,4-0.11s2.45,0.05,3.62.11V77.51h0a1.82,1.82,0,0,1-1.9-1.16c-0.37-.81-0.69-1.82-1-2.78l-5-14.19a6.63,6.63,0,0,1-.23-0.65s0,0,0,0h0a0.41,0.41,0,0,0-.16,0,10.81,10.81,0,0,1-2.42,1.09,22.1,22.1,0,0,1-1,3.39l-4.33,12.46A2.6,2.6,0,0,1,246,77.51h0v0.57c0.92-.05,1.87-0.11,2.8-0.11s2.12,0.05,3.16.11V77.51h-0.16c-0.9,0-2.14-.11-2.17-1.07a10.5,10.5,0,0,1,.6-2.15l0.11,0-0.11,0,0.89-2.9h6.34l1.08,3.22a8.23,8.23,0,0,1,.55,2c0,0.83-1.18.89-1.8,0.9h-0.17v0.57Zm7.7,0.24c-1.23-.05-2.45-0.11-3.74-0.11s-2.68.06-4.07,0.11h-0.13V77.26h0.42c0.63,0,1.57-.14,1.57-0.66a8.64,8.64,0,0,0-.54-1.92l-1-3.06h-6l-0.85,2.74a11.49,11.49,0,0,0-.6,2.09c0,0.67,1,.82,1.93.82h0.41v1.07h-0.12c-1.1-.05-2.21-0.11-3.29-0.11s-1.94.06-2.92,0.11h-0.12V77.26H246a2.3,2.3,0,0,0,2.24-1.68l4.35-12.45a31.58,31.58,0,0,0,1.08-3.44,14.31,14.31,0,0,0,2.47-1.17,0.79,0.79,0,0,1,.26-0.07,0.36,0.36,0,0,1,.3.16c0.07,0.22.16,0.46,0.25,0.69l5,14.19c0.32,1,.64,2,1,2.76a1.58,1.58,0,0,0,1.68,1h0.28v1.07h-0.12Z"/><path class="cls-1" d="M266,60.62c-2,0-2.12.49-2.53,2.47h-0.82c0.1-.76.25-1.52,0.33-2.31a17.32,17.32,0,0,0,.15-2.3h0.66c0.22,0.81.91,0.78,1.63,0.78h14c0.73,0,1.4,0,1.46-.84l0.66,0.11c-0.12.73-.22,1.47-0.29,2.2a21,21,0,0,0-.08,2.2l-0.8.3c-0.06-1-.19-2.61-2-2.61h-4.44V75.06c0,2.1.95,2.33,2.25,2.33h0.51v0.82c-1,0-3-.11-4.42-0.11-1.63,0-3.53.11-4.59,0.11V77.39h0.5c1.51,0,2.27-.13,2.27-2.28V60.62H266Z"/><path class="cls-1" d="M276.7,78.32c-1.07,0-3-.11-4.42-0.11-1.63,0-3.52.11-4.59,0.11h-0.12V77.27h0.62c1.51,0,2.11,0,2.14-2.16V60.73H266V60.49h4.56V75.11c0,2.18-.88,2.4-2.37,2.4h-0.38v0.58c1.06,0,2.89-.11,4.47-0.11,1.42,0,3.24.11,4.3,0.11V77.51h-0.39c-1.31,0-2.36-.32-2.38-2.45V60.49h4.57c1.83,0,2.08,1.55,2.12,2.56l0.58-.21c0-.71,0-1.42.07-2.13s0.16-1.39.26-2.09L281,58.56c-0.12.79-.89,0.83-1.56,0.82H265.3a1.36,1.36,0,0,1-1.58-.79h-0.44a15.14,15.14,0,0,1-.18,2.21c-0.07.74-.2,1.46-0.31,2.18h0.59c0.36-1.9.6-2.52,2.63-2.48v0.24c-2,0-2,.37-2.41,2.38l0,0.09h-1V63.07c0.12-.76.24-1.53,0.32-2.31a14.61,14.61,0,0,0,.17-2.28V58.35h0.86l0,0.09c0.19,0.69.69,0.69,1.37,0.7h14.15c0.74,0,1.3,0,1.34-.73l0-.13,0.12,0,0.77,0.12v0.12c-0.12.73-.22,1.46-0.31,2.19s-0.06,1.46-.06,2.19V63l-0.07,0-1,.35V63.23c-0.07-1-.17-2.5-1.9-2.5H274V75.06c0,2,.85,2.19,2.15,2.21h0.63v1.06H276.7Z"/><path class="cls-1" d="M282.56,77.39h0.38c1,0,2-.13,2-1.55V61.63c0-1.42-1-1.55-2-1.55h-0.38V59.26c1.07,0,2.69.11,4,.11s3-.11,4.26-0.11v0.81h-0.38c-1,0-2,.14-2,1.55V75.84c0,1.42,1,1.55,2,1.55h0.38v0.82c-1.3,0-2.92-.11-4.28-0.11s-2.93.11-4,.11V77.39Z"/><path class="cls-1" d="M290.72,78.09V77.51h-0.26c-1,0-2.12-.16-2.12-1.67V61.63c0-1.5,1.15-1.67,2.12-1.67h0.26V59.38c-1.26,0-2.82.11-4.14,0.11s-2.85-.1-3.9-0.11V60h0.26c1,0,2.13.17,2.13,1.67V75.84c0,1.51-1.17,1.67-2.13,1.67h-0.26v0.58c1.05,0,2.58-.11,3.88-0.11s2.87,0.11,4.16.11m0.12,0.24c-1.3,0-2.94-.11-4.28-0.11s-2.93.11-4,.11h-0.12V77.27h0.49c1,0,1.88-.1,1.88-1.43V61.63c0-1.33-.9-1.42-1.88-1.43h-0.49v-1h0.12c1.07,0,2.7.1,4,.1s3-.1,4.26-0.1H291v1h-0.5c-1,0-1.89.1-1.89,1.43V75.84c0,1.33.91,1.42,1.89,1.43H291v1.06h-0.12Z"/><path class="cls-1" d="M302.08,77.42c5.27,0,6.18-4.64,6.18-8.6S306.12,60,301.62,60c-4.75,0-6.16,4.24-6.16,7.87,0,4.86,2.22,9.5,6.63,9.5m-0.41-18.57c5.78,0,10.4,3.59,10.4,9.37a10,10,0,0,1-10.26,10.39c-5.76,0-10.15-3.92-10.15-9.75a9.87,9.87,0,0,1,10-10"/><path class="cls-1" d="M295.34,67.92c0-3.66,1.43-8,6.28-8,4.61,0,6.76,4.91,6.78,8.9s-1,8.71-6.31,8.71V77.3c5.16,0,6.06-4.53,6.06-8.48s-2.12-8.65-6.52-8.65c-4.66,0-6,4.14-6,7.75,0,4.84,2.21,9.38,6.51,9.39v0.23c-4.51,0-6.74-4.73-6.74-9.62m-3.8,1a10,10,0,0,1,10.13-10.13V59a9.75,9.75,0,0,0-9.9,9.9c0,5.78,4.34,9.62,10,9.62A9.83,9.83,0,0,0,312,68.22c0-5.71-4.54-9.25-10.28-9.25V58.74c5.83,0,10.5,3.63,10.51,9.49a10.09,10.09,0,0,1-10.38,10.51c-5.8,0-10.25-4-10.27-9.86"/><path class="cls-1" d="M330.35,72.85l0.06-.05V62.63A2.24,2.24,0,0,0,328,60.07h-0.59V59.26c1.27,0,2.53.11,3.79,0.11,1.11,0,2.23-.11,3.35-0.11v0.81h-0.41c-1.14,0-2.43.22-2.43,3.45V75.88a18,18,0,0,0,.16,2.74h-1L316.92,63V74.22c0,2.36.46,3.17,2.55,3.17h0.47v0.82c-1.17,0-2.33-.11-3.5-0.11s-2.49.11-3.7,0.11V77.39h0.38c1.88,0,2.44-1.27,2.44-3.44V62.52a2.43,2.43,0,0,0-2.47-2.45h-0.35V59.26c1,0,2.09.11,3.13,0.11,0.8,0,1.59-.11,2.41-0.11Z"/><path class="cls-1" d="M330.3,72.8h0v0Zm0.06,0.05,0.09-.07Zm0.55,5.64h0.89a19,19,0,0,1-.14-2.61V63.52c0-3.26,1.37-3.56,2.54-3.57h0.29V59.38c-1.08,0-2.14.11-3.23,0.11s-2.45-.1-3.67-0.11V60H328a2.38,2.38,0,0,1,2.48,2.67l0,10.26-0.06.06-0.09.09L318.28,59.38c-0.8,0-1.59.11-2.41,0.11-1,0-2-.1-3-0.11V60h0.23a2.57,2.57,0,0,1,2.58,2.56V73.95c0,2.17-.6,3.56-2.55,3.56h-0.26v0.58c1.18,0,2.38-.11,3.58-0.11s2.24,0.11,3.38.11V77.51h-0.35c-2.13,0-2.67-.93-2.67-3.29V62.73Zm1,0.24-1.12,0L317,63.34V74.22c0,2.36.4,3,2.44,3h0.58v1.06h-0.12c-1.18,0-2.35-.11-3.5-0.11s-2.47.11-3.7,0.11h-0.12V77.26h0.5c1.8,0,2.31-1.15,2.31-3.32V62.52a2.31,2.31,0,0,0-2.34-2.32h-0.47v-1h0.12c1,0,2.1.1,3.13,0.1,0.8,0,1.58-.1,2.5-0.07L330.3,72.61v-10A2.12,2.12,0,0,0,328,60.19h-0.72v-1h0.13c1.27,0,2.53.1,3.79,0.1,1.11,0,2.23-.1,3.35-0.1h0.12v1h-0.53c-1.13,0-2.28.13-2.31,3.33V75.88A18.5,18.5,0,0,0,332,78.6l0,0.13h-0.13Z"/><path class="cls-1" d="M342.93,62.29h-0.06L340.33,70h5.08Zm-4,12a11.06,11.06,0,0,0-.59,2.11c0,0.81,1.14.94,2,.94h0.31v0.82c-1.08-.05-2.19-0.11-3.29-0.11s-1.94.06-2.92,0.11V77.39h0.16A2.44,2.44,0,0,0,337,75.62l4.36-12.46a24.08,24.08,0,0,0,1-3.37,13.72,13.72,0,0,0,2.48-1.17,0.6,0.6,0,0,1,.2-0.05,0.17,0.17,0,0,1,.19.08c0.09,0.22.16,0.47,0.25,0.67l5,14.2c0.33,0.95.65,2,1,2.77a1.74,1.74,0,0,0,1.8,1.08h0.16v0.82c-1.23-.05-2.45-0.11-3.75-0.11s-2.69.06-4.07,0.11V77.39h0.31c0.61,0,1.68-.11,1.68-0.78a9,9,0,0,0-.54-2L346,71.5h-6.16Z"/><path class="cls-1" d="M342.81,62.33h0Zm-2.31,7.52h4.75l-2.37-7.26Zm-0.32.24,2.6-7.91h0.15v0.11h0V62.19H343l2.57,7.91h-5.38Zm5.53,8c1.35-.05,2.68-0.11,4-0.11s2.46,0.05,3.64.11V77.51h0a1.85,1.85,0,0,1-1.89-1.16c-0.36-.81-0.68-1.82-1-2.77l-5-14.2c-0.07-.21-0.16-0.46-0.22-0.65l0,0H345a0.53,0.53,0,0,0-.14,0,10.63,10.63,0,0,1-2.43,1.09,22.42,22.42,0,0,1-1,3.39l-4.34,12.46a2.56,2.56,0,0,1-2.47,1.84h0v0.57c0.93-.05,1.87-0.11,2.8-0.11s2.13,0.05,3.17.11V77.51h-0.19c-0.88,0-2.11-.1-2.15-1.07a11.69,11.69,0,0,1,.61-2.15l0.1,0-0.1,0,0.89-2.9h6.32l1.08,3.22a8.25,8.25,0,0,1,.55,2c0,0.83-1.19.89-1.8,0.9h-0.2v0.57Zm7.7,0.24c-1.23-.05-2.44-0.11-3.74-0.11s-2.69.06-4.06,0.11h-0.13V77.27h0.43c0.63,0,1.56-.14,1.56-0.66a8.6,8.6,0,0,0-.54-1.92l-1-3.06h-6l-0.83,2.74a10,10,0,0,0-.58,2.09c0,0.67,1,.82,1.9.82h0.41v1.06h-0.12c-1.07-.05-2.19-0.11-3.27-0.11s-1.94.06-2.92,0.11h-0.12V77.27h0.28a2.34,2.34,0,0,0,2.25-1.68l4.34-12.45c0.35-1,.83-2.36,1.08-3.44a14.41,14.41,0,0,0,2.47-1.17,0.78,0.78,0,0,1,.25-0.06,0.33,0.33,0,0,1,.31.16c0.07,0.21.16,0.46,0.25,0.68l5,14.19c0.32,1,.64,2,1,2.77a1.6,1.6,0,0,0,1.68,1h0.29v1.06h-0.13Z"/><path class="cls-1" d="M360.26,75.55c0,1.09.75,1.41,1.63,1.51a17.8,17.8,0,0,0,3.58-.05,3.86,3.86,0,0,0,2.6-1.46,6.05,6.05,0,0,0,.85-2h0.79c-0.31,1.55-.69,3.08-1,4.61-2.38,0-4.77-.11-7.15-0.11s-4.79.11-7.17,0.11V77.39h0.36c1,0,2-.13,2-1.82V61.63c0-1.42-1.07-1.55-2-1.55h-0.36V59.26c1.43,0,2.84.11,4.28,0.11s2.74-.11,4.13-0.11v0.81H362.1c-1,0-1.84,0-1.84,1.47v14Z"/><path class="cls-1" d="M368.59,78.09c0.33-1.47.67-2.91,1-4.38H369a6.78,6.78,0,0,1-.83,1.92,4.08,4.08,0,0,1-2.7,1.51c-0.7.07-1.4,0.11-2.08,0.11-0.52,0-1,0-1.52-.06a1.62,1.62,0,0,1-1.73-1.63v-14c0-1.5.94-1.58,2-1.58h0.57V59.38c-1.34,0-2.66.11-4,.11s-2.77-.1-4.17-0.11V60h0.26c1,0,2.16.17,2.16,1.67v14c0,1.76-1.19,1.94-2.16,1.94h-0.26v0.58c2.35,0,4.7-.11,7.07-0.11s4.7,0.11,7,.11m0.11,0.24c-2.39,0-4.79-.11-7.15-0.11s-4.79.11-7.18,0.11h-0.12V77.27h0.5c1,0,1.92-.09,1.93-1.7v-14c0-1.33-.93-1.41-1.93-1.43h-0.5v-1h0.12c1.45,0,2.86.1,4.29,0.1s2.74-.1,4.13-0.1h0.11v1H362.1c-1.05,0-1.71,0-1.72,1.34v14c0,1,.67,1.28,1.52,1.4,0.49,0,1,.05,1.5.05a18.19,18.19,0,0,0,2.06-.11A3.74,3.74,0,0,0,368,75.48a6.26,6.26,0,0,0,.81-1.92l0-.09h1l0,0.14c-0.31,1.55-.68,3.07-1,4.61l0,0.09H368.7Z"/><path class="cls-1" d="M368.92,61.36h0.33a0.59,0.59,0,0,0,.54-0.73,0.53,0.53,0,0,0-.56-0.61h-0.32v1.34Zm-1,1.5V62.72c0.35,0,.41,0,0.41-0.25V60.35c0-.29,0-0.4-0.39-0.38V59.82h1.46a0.83,0.83,0,0,1,1,.75,0.91,0.91,0,0,1-.68.87l0.47,0.65a3,3,0,0,0,.63.67v0.09h-0.56c-0.26,0-.52-0.57-1-1.31h-0.32v0.95c0,0.19.06,0.18,0.42,0.23v0.14H368Zm1.42,0.81a2.32,2.32,0,1,0-2.26-2.32,2.3,2.3,0,0,0,2.26,2.32m0-5.19a2.86,2.86,0,1,1-2.86,2.87,2.82,2.82,0,0,1,2.86-2.87"/></svg>