<svg id="Camada_1" data-name="Camada 1" xmlns="http://www.w3.org/2000/svg" xmlns:xlink="http://www.w3.org/1999/xlink" viewBox="0 0 127.58 75.71"><defs><style>.cls-1{fill:#d68500;}.cls-2{fill:url(#radial-gradient);}.cls-3{fill:#001219;}.cls-4{fill:#211915;}</style><radialGradient id="radial-gradient" cx="56.7" cy="-468.61" r="9.45" gradientTransform="translate(6.42 486.08)" gradientUnits="userSpaceOnUse"><stop offset="0.01" stop-color="#faf4ea"/><stop offset="0.1" stop-color="#f9f0e1"/><stop offset="0.24" stop-color="#f5e4c9"/><stop offset="0.43" stop-color="#eed1a1"/><stop offset="0.64" stop-color="#e5b66a"/><stop offset="0.88" stop-color="#da9424"/><stop offset="1" stop-color="#d48300"/></radialGradient></defs><title>bandeiras_estabelecimentos</title><path class="cls-1" d="M123.94,33.15S88.77,58,24.36,69.07h99.58V33.15Z"/><path class="cls-2" d="M63.12,8.13a9.4,9.4,0,0,0-9.57,9.22A9.56,9.56,0,1,0,63.12,8.13Z"/><path class="cls-3" d="M8.79,8.46H3.64V26.41H8.76a9.36,9.36,0,0,0,6.4-2.07,9,9,0,0,0,3.26-6.89C18.42,12.15,14.46,8.46,8.79,8.46Zm4.09,13.48c-1.11,1-2.53,1.43-4.79,1.43H7.15V11.5H8.09c2.26,0,3.63.4,4.79,1.45a6,6,0,0,1,1.93,4.47A6.14,6.14,0,0,1,12.88,21.94Z"/><rect class="cls-3" x="20.04" y="8.46" width="3.5" height="17.95"/><path class="cls-3" d="M32.1,15.35c-2.1-.78-2.72-1.29-2.72-2.26,0-1.13,1.1-2,2.61-2a3.64,3.64,0,0,1,2.83,1.45l1.83-2.39a7.84,7.84,0,0,0-5.28-2c-3.17,0-5.6,2.21-5.6,5.14,0,2.48,1.13,3.74,4.41,4.93a13.49,13.49,0,0,1,2.42,1,2.15,2.15,0,0,1,1.05,1.85,2.56,2.56,0,0,1-2.72,2.53,4.14,4.14,0,0,1-3.82-2.39l-2.26,2.18a7,7,0,0,0,6.22,3.42c3.63,0,6.19-2.43,6.19-5.9C37.26,18.09,36.08,16.8,32.1,15.35Z"/><path class="cls-3" d="M38.36,17.44a9.3,9.3,0,0,0,9.48,9.37,9.66,9.66,0,0,0,4.39-1V21.65a5.6,5.6,0,0,1-4.23,2,5.87,5.87,0,0,1-6-6.19,6,6,0,0,1,5.87-6.16,5.86,5.86,0,0,1,4.39,2V9.16a9,9,0,0,0-4.31-1.1A9.44,9.44,0,0,0,38.36,17.44Z"/><polygon class="cls-3" points="80.59 20.52 75.8 8.46 71.98 8.46 79.6 26.87 81.48 26.87 89.23 8.46 85.44 8.46 80.59 20.52"/><polygon class="cls-3" points="90.82 26.41 100.75 26.41 100.75 23.37 94.32 23.37 94.32 18.52 100.5 18.52 100.5 15.48 94.32 15.48 94.32 11.5 100.75 11.5 100.75 8.46 90.82 8.46 90.82 26.41"/><path class="cls-3" d="M114.61,13.76c0-3.36-2.31-5.3-6.35-5.3h-5.19V26.41h3.5V19.2H107l4.84,7.21h4.31l-5.65-7.56A4.78,4.78,0,0,0,114.61,13.76Zm-7,3h-1V11.28h1.07c2.18,0,3.37.92,3.37,2.66S109.82,16.72,107.58,16.72Z"/><path class="cls-4" d="M117.08,9.8a0.49,0.49,0,0,0-.6-0.48H116v1.58h0.37V10.28l0.44,0.61h0.47l-0.53-.65A0.43,0.43,0,0,0,117.08,9.8Zm-0.66.22h-0.07V9.6h0.07c0.19,0,.28.07,0.28,0.2S116.6,10,116.42,10Z"/><path class="cls-4" d="M116.56,8.72a1.38,1.38,0,1,0,1.36,1.38A1.38,1.38,0,0,0,116.56,8.72Zm0,2.51a1.13,1.13,0,1,1,1.09-1.13A1.12,1.12,0,0,1,116.55,11.23Z"/><path class="cls-4" d="M35,31.13L39.7,36V31.38h0.67v6.27l-4.68-4.89v4.63H35V31.13Z"/><path class="cls-4" d="M35,31.13v6.32h0.79V32.92l4.68,4.9V31.32H39.64v4.56L35,31v0.16Zm0.13,0.16,4.68,4.91V31.44h0.54V37.5l-4.68-4.9v4.72H35.08v-6Z"/><path class="cls-4" d="M43.61,31.38h3.11V32H44.28v1.79h2.37v0.62H44.28v2.36h2.44v0.62H43.61v-6Z"/><path class="cls-4" d="M46.72,31.32H43.55v6.13h3.24V36.7H44.34V34.47h2.37V33.73H44.34V32.07h2.44V31.32H46.72Zm-0.06.12v0.5H44.22v1.91h2.37v0.5H44.22v2.48h2.45v0.5h-3V31.44h3Z"/><path class="cls-4" d="M51.45,37.39H50.78V32H49.33V31.38h3.58V32H51.45v5.38Z"/><path class="cls-4" d="M52.91,31.32H49.26v0.75h1.45v5.38h0.79V32.07H53V31.32H52.91Zm-0.06.12v0.5H51.39v5.38H50.84V31.94H49.39v-0.5h3.46Z"/><path class="cls-4" d="M57.39,35.88l1.94-4.81,1.94,4.81,1.58-4.5h0.73l-2.3,6.31-1.94-4.84L57.39,37.7l-2.3-6.31h0.72Z"/><path class="cls-4" d="M59.28,31L57.39,35.7l-1.54-4.39H55l2.39,6.56L59.33,33l1.94,4.85,2.39-6.56H62.81L61.27,35.7l-1.94-4.8ZM57.45,35.9l1.89-4.66,1.95,4.82,1.62-4.62h0.59l-2.22,6.08-1.94-4.83-1.94,4.83-2.21-6.08h0.59l1.62,4.62Z"/><path class="cls-4" d="M72.23,34.39a3.13,3.13,0,1,1-3.13-3.11A3.12,3.12,0,0,1,72.23,34.39Zm-5.59,0A2.46,2.46,0,1,0,69.1,31.9,2.48,2.48,0,0,0,66.63,34.38Z"/><path class="cls-4" d="M65.9,34.39a3.19,3.19,0,1,0,3.19-3.17A3.18,3.18,0,0,0,65.9,34.39Zm0.12,0a3.07,3.07,0,1,1,3.07,3A3.06,3.06,0,0,1,66,34.39Z"/><path class="cls-4" d="M66.57,34.38a2.52,2.52,0,1,0,2.53-2.55A2.54,2.54,0,0,0,66.57,34.38Zm0.13,0a2.4,2.4,0,1,1,2.4,2.42A2.41,2.41,0,0,1,66.7,34.38Z"/><path class="cls-4" d="M75.8,37.39H75.13v-6H76c1.14,0,2.2.3,2.2,1.66a1.57,1.57,0,0,1-1.5,1.66l1.91,2.69H77.78L76,34.75H75.8v2.64Zm0-3.23H76c0.76,0,1.52-.14,1.52-1.07S76.8,32,76,32H75.8v2.16Z"/><path class="cls-4" d="M75.13,31.32H75.07v6.13h0.79V34.81H76s1.77,2.61,1.77,2.61l0.87,0h0.12l-1.93-2.72A1.62,1.62,0,0,0,78.25,33c0-1.16-.74-1.72-2.26-1.72H75.13ZM76,31.44c1.45,0,2.13.51,2.13,1.6a1.51,1.51,0,0,1-1.45,1.59H76.57l1.91,2.68h-0.7S76,34.71,76,34.71l-0.22,0H75.73v2.64H75.19V31.44H76Z"/><path class="cls-4" d="M75.8,31.94H75.73v2.28H76c0.74,0,1.58-.13,1.58-1.14S76.76,31.94,76,31.94H75.8ZM76,32.07c0.77,0,1.46.07,1.46,1s-0.74,1-1.46,1H75.86v-2H76Z"/><path class="cls-4" d="M84.66,31.38h0.9l-2.82,2.8,2.91,3.21H84.73l-2.46-2.76-0.17.16v2.59H81.43v-6H82.1V34Z"/><path class="cls-4" d="M85.56,31.32H84.64L82.17,33.8V31.32H81.37v6.13h0.79V34.8l0.1-.08,2.42,2.71,1,0H85.8l-3-3.27,2.89-2.86H85.56Zm-0.15.12-2.75,2.73,2.86,3.15H84.73s-2.42-2.73-2.42-2.73l0-.05-0.21.21s0,2.45,0,2.57H81.5V31.44H82v2.66l2.64-2.66h0.72Z"/></svg>