<svg id="Camada_1" data-name="Camada 1" xmlns="http://www.w3.org/2000/svg" xmlns:xlink="http://www.w3.org/1999/xlink" viewBox="0 0 372.23 98.32"><defs><style>.cls-1{fill:url(#radial-gradient);}.cls-2{fill:#001219;}.cls-3{fill:#211915;}</style><radialGradient id="radial-gradient" cx="186.9" cy="-455.49" r="30.72" gradientTransform="translate(6.42 486.08)" gradientUnits="userSpaceOnUse"><stop offset="0.01" stop-color="#faf4ea"/><stop offset="0.1" stop-color="#f9f0e1"/><stop offset="0.24" stop-color="#f5e4c9"/><stop offset="0.43" stop-color="#eed1a1"/><stop offset="0.64" stop-color="#e5b66a"/><stop offset="0.88" stop-color="#da9424"/><stop offset="1" stop-color="#d48300"/></radialGradient></defs><title>bandeiras_plataforma</title><path class="cls-1" d="M193.36,0.22c-17.18,0-31.11,13.42-31.11,30,0,17.61,13.33,30.77,31.11,30.77,17.34,0,31-13.34,31-30.42S210.79,0.22,193.36.22Z"/><path class="cls-2" d="M16.73,1.32H0V59.66H16.64c8.83,0,15.21-2.09,20.81-6.73A29.34,29.34,0,0,0,48,30.51C48,13.29,35.17,1.32,16.73,1.32ZM30,45.13c-3.6,3.25-8.23,4.65-15.58,4.65H11.39V11.2h3.06c7.36,0,11.81,1.31,15.58,4.72a19.58,19.58,0,0,1,6.28,14.51A20,20,0,0,1,30,45.13Z"/><rect class="cls-2" x="53.29" y="1.32" width="11.37" height="58.34"/><path class="cls-2" d="M92.49,23.69c-6.83-2.53-8.84-4.2-8.84-7.34,0-3.68,3.58-6.47,8.49-6.47,3.41,0,6.21,1.4,9.19,4.71l5.94-7.77A25.49,25.49,0,0,0,90.12.34C79.8,0.34,71.93,7.52,71.93,17c0,8.05,3.67,12.16,14.35,16a43.84,43.84,0,0,1,7.87,3.32,7,7,0,0,1,3.42,6c0,4.73-3.76,8.22-8.85,8.22-5.42,0-9.79-2.71-12.42-7.78L69,50c5.24,7.69,11.54,11.11,20.21,11.11,11.81,0,20.12-7.88,20.12-19.16C109.28,32.63,105.44,28.42,92.49,23.69Z"/><path class="cls-2" d="M112.86,30.51c0,17.16,13.48,30.46,30.8,30.46a31.39,31.39,0,0,0,14.26-3.41V44.17c-4.56,4.55-8.58,6.38-13.74,6.38-11.46,0-19.6-8.31-19.6-20.13,0-11.19,8.4-20,19.08-20,5.42,0,9.53,1.92,14.26,6.56V3.57a29.08,29.08,0,0,0-14-3.57A30.68,30.68,0,0,0,112.86,30.51Z"/><polygon class="cls-2" points="250.13 40.51 234.56 1.32 222.13 1.32 246.9 61.15 253.02 61.15 278.22 1.32 265.89 1.32 250.13 40.51"/><polygon class="cls-2" points="283.39 59.66 315.67 59.66 315.67 49.78 294.76 49.78 294.76 34.02 314.87 34.02 314.87 24.14 294.76 24.14 294.76 11.2 315.67 11.2 315.67 1.32 283.39 1.32 283.39 59.66"/><path class="cls-2" d="M360.71,18.53c0-10.93-7.51-17.22-20.64-17.22H323.18V59.66h11.38V36.21h1.49L351.8,59.66h14L347.41,35.08C356,33.33,360.71,27.46,360.71,18.53Zm-22.83,9.63h-3.31V10.49h3.49c7.1,0,10.95,3,10.95,8.66C349,25,345.16,28.17,337.88,28.17Z"/><path class="cls-3" d="M368.74,5.66c0-1-.68-1.58-1.93-1.58h-1.66V9.22h1.22v-2l1.44,2h1.52L367.62,7.1A1.41,1.41,0,0,0,368.74,5.66Zm-2.15.7h-0.23V5h0.24c0.61,0,.91.22,0.91,0.66S367.2,6.36,366.59,6.36Z"/><path class="cls-3" d="M367,2.15a4.49,4.49,0,1,0,4.43,4.49A4.47,4.47,0,0,0,367,2.15Zm0,8.17a3.63,3.63,0,0,1-3.6-3.67,3.57,3.57,0,1,1,7.13,0A3.62,3.62,0,0,1,367,10.32Z"/><path class="cls-3" d="M102,75l15.22,15.95V75.82h2.17V96.21L104.17,80.3v15H102V75Z"/><path class="cls-3" d="M101.79,75V95.55h2.58V80.81l15.22,15.92V75.62H117V90.43l-15.22-16V75Zm0.41,0.51,15.23,16V76h1.76v19.7L104,79.79V95.14h-1.78V75.5Z"/><path class="cls-3" d="M129.93,75.82H140v2H132.1v5.81h7.71v2H132.1v7.66H140v2H129.93V75.82Z"/><path class="cls-3" d="M140,75.62H129.72V95.55h10.53V93.11h-7.94V85.85H140V83.44h-7.71V78.05h7.94V75.62H140Zm-0.2.4v1.62h-7.95v6.21h7.71v1.61h-7.71v8.07h7.95v1.62h-9.71V76h9.71Z"/><path class="cls-3" d="M155.4,95.34h-2.18V77.84h-4.71v-2h11.65v2H155.4v17.5Z"/><path class="cls-3" d="M160.17,75.62H148.3v2.44H153V95.55h2.58V78.05h4.77V75.62h-0.2ZM160,76v1.62H155.2v17.5h-1.77V77.63h-4.71V76H160Z"/><path class="cls-3" d="M174.71,90.45L181,74.8l6.31,15.65,5.13-14.63h2.37l-7.49,20.52L181,80.62l-6.32,15.72-7.47-20.52h2.35Z"/><path class="cls-3" d="M180.85,74.73l-6.13,15.14-5-14.26h-2.79l7.77,21.31s6-14.85,6.32-15.75c0.35,0.9,6.32,15.75,6.32,15.75l7.77-21.31h-2.79l-5,14.26C187,88.94,181,74.27,181,74.27ZM174.9,90.52L181,75.36,187.36,91l5.26-15h1.92c-0.18.52-6.85,18.82-7.2,19.76L181,80.09l-6.31,15.69c-0.34-.94-7-19.25-7.19-19.76h1.92l5.26,15Z"/><path class="cls-3" d="M222.95,85.6a10.17,10.17,0,1,1-10.17-10.12A10.13,10.13,0,0,1,222.95,85.6Zm-18.18,0a8,8,0,1,0,8-8.08A8.07,8.07,0,0,0,204.77,85.58Z"/><path class="cls-3" d="M202.39,85.6a10.38,10.38,0,1,0,10.38-10.32A10.34,10.34,0,0,0,202.39,85.6Zm0.4,0a10,10,0,1,1,10,9.87A10,10,0,0,1,202.79,85.6Z"/><path class="cls-3" d="M204.56,85.58a8.2,8.2,0,1,0,8.21-8.28A8.25,8.25,0,0,0,204.56,85.58Zm0.41,0a7.79,7.79,0,1,1,7.8,7.88A7.84,7.84,0,0,1,205,85.58Z"/><path class="cls-3" d="M234.55,95.34h-2.17V75.82h2.82c3.7,0,7.14,1,7.14,5.38a5.09,5.09,0,0,1-4.89,5.38l6.21,8.75H241l-5.89-8.57h-0.55v8.57Zm0-10.49h0.67c2.45,0,4.94-.46,4.94-3.49,0-3.2-2.36-3.52-5-3.52h-0.65v7Z"/><path class="cls-3" d="M232.38,75.62h-0.2V95.55h2.58V87h0.34c0,0.15,5.74,8.48,5.74,8.48l2.83,0.09h0.4s-6-8.39-6.27-8.84a5.26,5.26,0,0,0,4.75-5.5c0-3.77-2.4-5.59-7.34-5.59h-2.82ZM235.2,76c4.73,0,6.94,1.65,6.94,5.19a4.91,4.91,0,0,1-4.7,5.18l-0.36,0,6.2,8.71H241c0-.15-5.74-8.48-5.74-8.48l-0.71-.09h-0.21v8.57h-1.76V76h2.62Z"/><path class="cls-3" d="M234.55,77.63h-0.21v7.42h0.88c2.4,0,5.15-.42,5.15-3.69,0-3.44-2.67-3.73-5.17-3.73h-0.65Zm0.65,0.42c2.51,0,4.76.24,4.76,3.31,0,2.89-2.39,3.28-4.74,3.28h-0.47V78.05h0.44Z"/><path class="cls-3" d="M263.37,75.82h2.92l-9.16,9.09,9.47,10.42h-3l-8-9-0.54.53v8.43h-2.18V75.82H255v8.36Z"/><path class="cls-3" d="M266.29,75.62h-3s-7.4,7.43-8,8.08V75.62h-2.58V95.55h2.58v-8.6a1.63,1.63,0,0,0,.32-0.27c0.27,0.3,7.87,8.8,7.87,8.8l3.15,0.07h0.47s-9.4-10.35-9.67-10.62l9.38-9.31h-0.48Zm-0.5.4c-0.65.66-9,8.89-9,8.89l9.3,10.23h-2.55c0-.1-7.86-8.89-7.86-8.89l-0.14-.17-0.7.7s-0.06,8-.06,8.36h-1.76V76h1.76v8.66l8.6-8.66h2.35Z"/></svg>