<svg id="Camada_1" data-name="Camada 1" xmlns="http://www.w3.org/2000/svg" viewBox="0 0 220.73 220.73"><defs><style>.cls-1{fill:#fff;}.cls-2{fill:#f7db2f;}.cls-3{fill:#5996d1;}.cls-4{fill:#cd4229;}</style></defs><title>bandeiras_plataforma</title><circle cx="110.64" cy="109.64" r="110.36"/><path class="cls-1" d="M75.93,131a19.38,19.38,0,0,1-24,2.56l-7.25,11.56a33.1,33.1,0,0,0,40.8-4.34Z"/><path class="cls-1" d="M62.8,84A33.16,33.16,0,0,0,34.52,135.2l60-25.66A33.17,33.17,0,0,0,62.8,84m-19.9,35.2a17.39,17.39,0,0,1-.12-2.35A19.51,19.51,0,0,1,77.2,104.52Z"/><path class="cls-1" d="M113.4,69v64l11.11,4.6-5.25,12.62-11-4.57a12.46,12.46,0,0,1-5.41-4.55,14.31,14.31,0,0,1-2.12-7.94V69H113.4Z"/><path class="cls-2" d="M153.44,98.59a19.53,19.53,0,0,1,25.3,14.61l13.38-2.73a33.18,33.18,0,0,0-43-24.83Z"/><path class="cls-3" d="M137.66,141.93l9-10.22a19.51,19.51,0,0,1,0-29.22l-9-10.22A33.16,33.16,0,0,0,137.66,141.93Z"/><path class="cls-4" d="M178.74,121a19.52,19.52,0,0,1-25.31,14.59l-4.33,12.95a33.18,33.18,0,0,0,43-24.79Z"/></svg>