<svg id="Camada_1" data-name="Camada 1" xmlns="http://www.w3.org/2000/svg" viewBox="0 0 94.57 94.56"><defs><style>.cls-1{fill:#fff;}.cls-2{fill:#f7db2f;}.cls-3{fill:#5996d1;}.cls-4{fill:#cd4229;}</style></defs><title>bandeiras_estabelecimentos</title><circle cx="47.29" cy="47.29" r="47.29"/><path class="cls-1" d="M32.42,56.46a8.3,8.3,0,0,1-10.29,1.1l-3.11,5A14.18,14.18,0,0,0,36.5,60.65Z"/><path class="cls-1" d="M26.79,36.28a14.21,14.21,0,0,0-12.12,22l25.73-11a14.21,14.21,0,0,0-13.61-11M18.26,51.37a7.45,7.45,0,0,1-.05-1A8.36,8.36,0,0,1,33,45.09Z"/><path class="cls-1" d="M48.47,29.88V57.31l4.76,2L51,64.69l-4.71-2A5.34,5.34,0,0,1,44,60.79a6.13,6.13,0,0,1-.91-3.4V29.88h5.43Z"/><path class="cls-2" d="M65.63,42.56a8.37,8.37,0,0,1,10.84,6.26l5.73-1.17A14.22,14.22,0,0,0,63.77,37Z"/><path class="cls-3" d="M58.87,61.13l3.87-4.38a8.36,8.36,0,0,1,0-12.52l-3.88-4.38A14.21,14.21,0,0,0,58.87,61.13Z"/><path class="cls-4" d="M76.47,52.16a8.37,8.37,0,0,1-10.84,6.25L63.77,64A14.22,14.22,0,0,0,82.2,53.34Z"/></svg>