<svg id="Camada_1" data-name="Camada 1" xmlns="http://www.w3.org/2000/svg" xmlns:xlink="http://www.w3.org/1999/xlink" viewBox="0 0 206.23 157.94"><defs><style>.cls-1{fill:#fff;}.cls-2{fill:url(#linear-gradient);}.cls-3{fill:url(#linear-gradient-2);}.cls-4{fill:url(#linear-gradient-3);}.cls-5{fill:url(#linear-gradient-4);}.cls-6{fill:url(#linear-gradient-5);}.cls-7{fill:url(#linear-gradient-6);}.cls-8{fill:url(#linear-gradient-7);}.cls-9{fill:url(#linear-gradient-8);}</style><linearGradient id="linear-gradient" x1="10.27" y1="76.22" x2="66.04" y2="76.22" gradientUnits="userSpaceOnUse"><stop offset="0" stop-color="#313578"/><stop offset="1" stop-color="#0077bc"/></linearGradient><linearGradient id="linear-gradient-2" x1="10.24" y1="91.73" x2="10.29" y2="91.73" xlink:href="#linear-gradient"/><linearGradient id="linear-gradient-3" x1="10.29" y1="76.22" x2="66.06" y2="76.22" xlink:href="#linear-gradient"/><linearGradient id="linear-gradient-4" x1="10.26" y1="91.73" x2="10.3" y2="91.73" xlink:href="#linear-gradient"/><linearGradient id="linear-gradient-5" x1="73.12" y1="76.22" x2="128.89" y2="76.22" gradientUnits="userSpaceOnUse"><stop offset="0" stop-color="#763137"/><stop offset="1" stop-color="#ed1846"/></linearGradient><linearGradient id="linear-gradient-6" x1="146.65" y1="84.99" x2="165.95" y2="84.99" gradientUnits="userSpaceOnUse"><stop offset="0" stop-color="#008049"/><stop offset="1" stop-color="#62ba45"/></linearGradient><linearGradient id="linear-gradient-7" x1="146.58" y1="66.76" x2="164.32" y2="66.76" xlink:href="#linear-gradient-6"/><linearGradient id="linear-gradient-8" x1="135.68" y1="76.22" x2="191.45" y2="76.22" xlink:href="#linear-gradient-6"/></defs><title>JCB</title><path class="cls-1" d="M206.23,0.36H22.9C10.18,0.36,0,13.29,0,26.15c0,7.08.17,131.2,0.17,131.2H178.8c12.72,0,27.44-15.57,27.44-28.43V0.36Z"/><path class="cls-2" d="M32.23,8.34C20.77,8.34,10.3,18.67,10.3,30.27c0,6.38,0,31.64,0,56.74,2.1,1.32,12.2,4.56,16.27,4.85,8.9,0.63,14.42-2.31,15.27-9.73l0-27.54H61.46V81.5C60.43,96.92,46.9,100.06,26.32,99a95.28,95.28,0,0,1-16-2.54c0,25.13,0,47.63,0,47.63H44.53c9.35,0,21.52-8.73,21.52-22V8.34H32.23Z"/><path class="cls-3" d="M10.24,87v9.48h0c0-3.13,0-6.29,0-9.46Z"/><path class="cls-4" d="M32.24,8.34c-11.46,0-21.93,10.34-21.93,21.93,0,6.38,0,31.64,0,56.74,2.1,1.32,12.2,4.56,16.27,4.85,8.9,0.63,14.42-2.31,15.27-9.73l0-27.54H61.48V81.5c-1,15.41-14.56,18.55-35.14,17.52a95.28,95.28,0,0,1-16-2.54c0,25.13,0,47.63,0,47.63H44.54c9.35,0,21.52-8.73,21.52-22V8.34H32.24Z"/><path class="cls-5" d="M10.26,87v9.48h0c0-3.13,0-6.29,0-9.46Z"/><path class="cls-6" d="M95.08,8.34c-11.46,0-21.93,10.34-21.93,21.93,0,4,0,15.66,0,30,6.88-5.37,18-8,32.06-6.92a90.06,90.06,0,0,1,17.2,2.7v9.53c-3.57-1.78-10.61-4.43-16.48-4.85-13.3-1-20.28,5.27-20.28,15.35,0,9.07,5.39,16.83,20.22,15.79,4.89-.34,13-3.19,16.5-4.84l0,9.24a86,86,0,0,1-21,3C88.27,99.43,79,96.63,73.13,92.1c0,26.83,0,52,0,52h34.26c9.35,0,21.52-8.73,21.52-22V8.34H95.08Z"/><path class="cls-7" d="M160.08,79c-3.75,0-11.93,0-13.42,0l0,12,13.41,0a6.09,6.09,0,0,0,5.89-6.12A5.89,5.89,0,0,0,160.08,79Z"/><path class="cls-8" d="M164.32,66.94a5.43,5.43,0,0,0-5.34-5.7c-3.86.09-10.83-.1-12.36,0l0,10.92,12.67,0.09A5.42,5.42,0,0,0,164.32,66.94Z"/><path class="cls-9" d="M157.63,8.34c-11.46,0-21.93,10.34-21.93,21.93,0,3.47,0,12.54,0,24.13h32.56c6.48,0,14.11,2.77,14.11,10.65,0,4.23-2.25,9-10.36,10.56v0.18c4.73,0,12.94,2.77,12.94,11.13,0,8.63-8.87,11-13.62,11l-35.65,0c0,24.51,0,46.12,0,46.12h34.26c9.35,0,21.52-8.73,21.52-22V8.34H157.63Z"/></svg>