<svg id="Camada_1" data-name="Camada 1" xmlns="http://www.w3.org/2000/svg" xmlns:xlink="http://www.w3.org/1999/xlink" viewBox="0 0 100.99 75.71"><defs><style>.cls-1{fill:url(#linear-gradient);}.cls-2{fill:url(#linear-gradient-2);}.cls-3{fill:url(#linear-gradient-3);}.cls-4{fill:url(#linear-gradient-4);}.cls-5{fill:url(#linear-gradient-5);}.cls-6{fill:url(#linear-gradient-6);}</style><linearGradient id="linear-gradient" x1="0.02" y1="37.83" x2="31.1" y2="37.83" gradientUnits="userSpaceOnUse"><stop offset="0" stop-color="#313578"/><stop offset="1" stop-color="#0077bc"/></linearGradient><linearGradient id="linear-gradient-2" x1="0" y1="46.48" x2="0.02" y2="46.48" xlink:href="#linear-gradient"/><linearGradient id="linear-gradient-3" x1="35.04" y1="37.83" x2="66.13" y2="37.83" gradientUnits="userSpaceOnUse"><stop offset="0" stop-color="#763137"/><stop offset="1" stop-color="#ed1846"/></linearGradient><linearGradient id="linear-gradient-4" x1="76.02" y1="42.72" x2="86.78" y2="42.72" gradientUnits="userSpaceOnUse"><stop offset="0" stop-color="#008049"/><stop offset="1" stop-color="#62ba45"/></linearGradient><linearGradient id="linear-gradient-5" x1="75.98" y1="32.56" x2="85.87" y2="32.56" xlink:href="#linear-gradient-4"/><linearGradient id="linear-gradient-6" x1="69.91" y1="37.83" x2="100.99" y2="37.83" xlink:href="#linear-gradient-4"/></defs><title>bandeiras_estabelecimentos</title><path class="cls-1" d="M12.25,0A12.67,12.67,0,0,0,0,12.22c0,3.56,0,17.63,0,31.62a34.5,34.5,0,0,0,9.07,2.7c5,0.35,8-1.29,8.51-5.42l0-15.35h11v15C28,49.37,20.43,51.12,9,50.54A53.1,53.1,0,0,1,0,49.12c0,14,0,26.54,0,26.54H19.11c5.21,0,12-4.87,12-12.27V0H12.25Z"/><path class="cls-2" d="M0,43.83v5.28H0V43.85H0Z"/><path class="cls-3" d="M47.28,0A12.67,12.67,0,0,0,35.06,12.22c0,2.25,0,8.73,0,16.73,3.83-3,10-4.46,17.87-3.86a50.19,50.19,0,0,1,9.58,1.5v5.31a28.1,28.1,0,0,0-9.18-2.7C45.91,28.67,42,32.14,42,37.76c0,5.05,3,9.38,11.27,8.8a33.27,33.27,0,0,0,9.19-2.7l0,5.15a47.92,47.92,0,0,1-11.7,1.69c-7.32.06-12.49-1.5-15.76-4v29H54.14c5.21,0,12-4.87,12-12.27V0H47.28Z"/><path class="cls-4" d="M83.51,39.37c-2.09,0-6.65,0-7.48,0v6.69l7.48,0a3.39,3.39,0,0,0,3.28-3.41A3.28,3.28,0,0,0,83.51,39.37Z"/><path class="cls-5" d="M85.87,32.66a3,3,0,0,0-3-3.18c-2.15.05-6-.05-6.89,0l0,6.09L83,35.64A3,3,0,0,0,85.87,32.66Z"/><path class="cls-6" d="M82.14,0A12.67,12.67,0,0,0,69.92,12.22c0,1.94,0,7,0,13.45H88.07c3.61,0,7.86,1.54,7.86,5.94,0,2.35-1.25,5-5.77,5.89v0.1c2.64,0,7.21,1.54,7.21,6.2,0,4.81-4.94,6.14-7.59,6.14L69.91,50c0,13.66,0,25.7,0,25.7H89c5.21,0,12-4.87,12-12.27V0H82.14Z"/></svg>