<svg id="Camada_1" data-name="Camada 1" xmlns="http://www.w3.org/2000/svg" viewBox="0 0 231.23 171.67"><defs><style>.cls-1{fill:#bf0024;}.cls-2{fill:#e6b63a;}.cls-3{fill:#003772;}.cls-4{fill:#fff;}</style></defs><title>bandeiras_plataforma</title><circle class="cls-1" cx="68.96" cy="69.31" r="68.96"/><path class="cls-2" d="M161.54,0.36a68.72,68.72,0,0,0-46.29,17.85,70.22,70.22,0,0,0-7,7.3h13.93a69.19,69.19,0,0,1,5.26,7.3H103a69.4,69.4,0,0,0-4,7.3h32.39a68.9,68.9,0,0,1,2.92,7.3H96.13a67.93,67.93,0,0,0-2,7.3h42.24a69.44,69.44,0,0,1-2,36.51H96.13a68.84,68.84,0,0,0,2.92,7.3h32.39a69.12,69.12,0,0,1-4,7.3H103a69.7,69.7,0,0,0,5.26,7.3h13.93a69.23,69.23,0,0,1-7,7.3A69,69,0,1,0,161.54.36Z"/><path class="cls-2" d="M221.3,107.75a2.23,2.23,0,1,1,2.23,2.23A2.22,2.22,0,0,1,221.3,107.75Zm2.23,1.69a1.69,1.69,0,1,0-1.69-1.69A1.69,1.69,0,0,0,223.53,109.44Zm-0.3-.72h-0.46v-2h0.83a0.93,0.93,0,0,1,.5.09,0.61,0.61,0,0,1,.24.49,0.53,0.53,0,0,1-.34.51l0.36,0.86h-0.51l-0.3-.77h-0.33v0.77Zm0-1.11h0.26a0.61,0.61,0,0,0,.28,0,0.28,0.28,0,0,0,.12-0.23,0.25,0.25,0,0,0-.11-0.2,0.62,0.62,0,0,0-.29,0h-0.25v0.5Z"/><path class="cls-3" d="M52.86,76.86a12.51,12.51,0,0,0-1.67-.12c-4.24,0-6.39,1.46-6.39,4.33A2.61,2.61,0,0,0,47.48,84C50.53,84,52.73,81.07,52.86,76.86ZM58.3,89.54H52.1l0.14-2.95A9.4,9.4,0,0,1,44.39,90c-4.06,0-6.84-3.17-6.84-7.77,0-6.92,4.84-11,13.14-11a25.25,25.25,0,0,1,3.05.22A7,7,0,0,0,54,69.67c0-1.88-1.3-2.59-4.8-2.59a25,25,0,0,0-7.93,1.28c0.08-.47,1-6.4,1-6.4a29.71,29.71,0,0,1,9-1.51c6.43,0,9.84,2.88,9.83,8.34a36.39,36.39,0,0,1-.61,5.64C59.89,78.55,58.49,87.39,58.3,89.54Zm-23.88,0H26.93l4.29-26.88L21.65,89.54h-5.1L15.92,62.8l-4.5,26.73h-7l5.85-35H21l0.65,19.58,6.57-19.58h12ZM170.79,76.86a12.5,12.5,0,0,0-1.67-.12c-4.24,0-6.39,1.46-6.39,4.33A2.61,2.61,0,0,0,165.41,84C168.46,84,170.66,81.07,170.79,76.86Zm5.45,12.67H170l0.14-2.95A9.39,9.39,0,0,1,162.33,90c-4.06,0-6.84-3.17-6.84-7.77,0-6.92,4.84-11,13.14-11a25.25,25.25,0,0,1,3.05.22,7.07,7.07,0,0,0,.29-1.85c0-1.88-1.3-2.59-4.8-2.59a25.07,25.07,0,0,0-7.93,1.28c0.08-.47,1-6.4,1-6.4a29.69,29.69,0,0,1,9-1.51c6.43,0,9.83,2.88,9.83,8.34a36.46,36.46,0,0,1-.61,5.64C177.82,78.55,176.42,87.39,176.23,89.54Zm-84.66-.43a17.12,17.12,0,0,1-5.38.92c-3.82,0-5.92-2.2-5.92-6.25a66.42,66.42,0,0,1,1-7.58c0.43-2.66,3.25-19.41,3.25-19.41H92l-0.87,4.3h4.49l-1,6.84H90.09C89.23,73.34,88,80.08,88,81c0,1.47.78,2.1,2.56,2.1a6.17,6.17,0,0,0,2-.26Zm22.82-.23A25.28,25.28,0,0,1,106.75,90c-8.33,0-12.67-4.36-12.67-12.69,0-9.72,5.52-16.88,13-16.88,6.13,0,10.06,4,10.06,10.29a30.47,30.47,0,0,1-.92,7H101.42c-0.5,4.12,2.14,5.85,6.47,5.85a17.71,17.71,0,0,0,7.73-1.79ZM110.2,72c0-.59.79-5.08-3.46-5.08-2.37,0-4.06,1.81-4.75,5.08h8.21ZM74,60.46a50.1,50.1,0,0,1,6.59.55l-1.06,6.6a41.13,41.13,0,0,0-5.38-.42c-2.42,0-3.66.78-3.66,2.32,0,1.33.36,1.65,3.5,3.09,3.75,1.73,5.28,4,5.28,7.93C79.29,87,75.65,90,67.75,90A34.62,34.62,0,0,1,60,89.19l1-6.57a21,21,0,0,0,6.71,1.12c3,0,4.3-.8,4.3-2.58,0-1.29-.47-1.71-3.5-3.14-4-1.86-5.7-4.34-5.7-7.94C62.76,64.83,65.66,60.46,74,60.46Zm67.25,13.85c0,5.31,2.63,8.52,7,8.52a14.56,14.56,0,0,0,6.36-1.8l-1.31,8a23.35,23.35,0,0,1-6.61,1c-8.06,0-13.08-5.79-13.08-15.1a32.11,32.11,0,0,1,.53-5.83c-2.64-.07-4,0.46-4.38,2l-2.82,1.56c-0.42,3.53-1.1,8.72-2.35,16.84h-7.49l0.34-1.91c1.3-8.81,3-17.72,3.9-26.53h6.88A14.73,14.73,0,0,1,128,64l1.95-.45c2.19-2.9,4-5.81,8.32-4.37a14.91,14.91,0,0,1,12.22-6.59c3.27,0,7.13,2.53,8.23,3l-1.23,7.59a14.22,14.22,0,0,0-6.69-1.89C145.21,61.21,141.29,66.6,141.29,74.31Zm72.88-19.75-1.66,10.1c-2-2.69-4.24-4.64-7.15-4.64-3.77,0-7.22,2.86-9.46,7.08a60.94,60.94,0,0,1-6.38-1.76v0a42.41,42.41,0,0,0,.33-4.28H183c-0.94,8.81-2.6,17.73-3.9,26.53l-0.34,1.91h7.49c1-6.57,1.78-12,2.35-16.34,2.56-2.32,3.84-4.32,6.42-4.19a24.4,24.4,0,0,0-1.81,9.22c0,7.11,3.6,11.8,9,11.8a8.82,8.82,0,0,0,6.9-3.14l-0.36,2.64h7.09l5.7-35h-7.38ZM204.81,83c-2.55,0-3.84-1.89-3.84-5.61,0-5.59,2.41-9.55,5.81-9.55,2.57,0,4,2,4,5.57C210.75,79,208.3,83,204.81,83Z"/><path class="cls-4" d="M36.58,87.46H29.09l4.29-26.88L23.8,87.46H18.7L18.07,60.73,13.56,87.46h-7l5.86-35H23.18l0.3,21.65,7.26-21.65H42.37ZM49.63,81.9A2.62,2.62,0,0,1,46.95,79c0-2.88,2.15-4.33,6.39-4.33a12.77,12.77,0,0,1,1.67.11C54.88,79,52.68,81.9,49.63,81.9Zm13.06-9.55a36.34,36.34,0,0,0,.61-5.64c0-5.46-3.4-8.34-9.83-8.34a29.77,29.77,0,0,0-9,1.51s-1,5.92-1,6.39A24.91,24.91,0,0,1,51.4,65c3.49,0,4.8.7,4.8,2.58a7.05,7.05,0,0,1-.29,1.85,25.22,25.22,0,0,0-3.05-.22c-8.31,0-13.14,4-13.14,11,0,4.6,2.78,7.77,6.84,7.77a9.4,9.4,0,0,0,7.84-3.44l-0.14,2.94h6.2C60.65,85.31,62,76.48,62.69,72.36Zm89.95-20.75c-9.92,0-16.86,8.74-16.86,21.25,0,9.3,5,15.1,13.08,15.1a23.4,23.4,0,0,0,6.61-1l1.32-8a14.49,14.49,0,0,1-6.36,1.79c-4.35,0-7-3.21-7-8.52,0-7.7,3.92-13.1,9.51-13.1A14.29,14.29,0,0,1,159.64,61l1.23-7.59A26,26,0,0,0,152.64,51.61ZM167.57,81.9a2.62,2.62,0,0,1-2.68-2.9c0-2.88,2.15-4.33,6.39-4.33a12.71,12.71,0,0,1,1.66.11C172.81,79,170.62,81.9,167.57,81.9Zm13.06-9.55a35.7,35.7,0,0,0,.6-5.64c0-5.46-3.4-8.34-9.82-8.34a29.79,29.79,0,0,0-9,1.51s-1,5.92-1,6.39A25,25,0,0,1,169.33,65c3.5,0,4.8.7,4.8,2.58a7.1,7.1,0,0,1-.29,1.85,25.14,25.14,0,0,0-3-.22c-8.31,0-13.14,4-13.14,11,0,4.6,2.78,7.77,6.84,7.77a9.4,9.4,0,0,0,7.84-3.44l-0.14,2.94h6.2C178.58,85.31,180,76.48,180.63,72.36ZM94.72,80.73a6,6,0,0,1-2,.27c-1.78,0-2.57-.64-2.57-2.11,0-.89,1.25-7.63,2.11-13h3.84l1-6.83H93.28l0.87-4.31H86.7s-2.82,16.75-3.25,19.41a65.44,65.44,0,0,0-1,7.58c0,4,2.09,6.25,5.91,6.25A17.22,17.22,0,0,0,93.73,87Zm23.06-1A17.59,17.59,0,0,1,110,81.52c-4.33,0-7-1.72-6.47-5.85h14.82a30.74,30.74,0,0,0,.92-7c0-6.29-3.92-10.3-10.06-10.3-7.5,0-13,7.16-13,16.89,0,8.33,4.34,12.68,12.67,12.69a25.59,25.59,0,0,0,7.64-1.15Zm-13.64-9.79c0.69-3.26,2.39-5.08,4.75-5.08,4.25,0,3.5,4.48,3.47,5.08h-8.22ZM64.94,68c0,3.6,1.75,6.07,5.7,7.94,3,1.43,3.5,1.85,3.5,3.14,0,1.77-1.34,2.57-4.3,2.57a21.15,21.15,0,0,1-6.71-1.12s-1,6.27-1,6.57A34.8,34.8,0,0,0,69.9,88c7.9,0,11.55-3,11.55-9.51,0-3.91-1.53-6.2-5.28-7.92-3.14-1.45-3.5-1.76-3.5-3.09,0-1.54,1.25-2.33,3.67-2.33a42,42,0,0,1,5.38.43l1.07-6.59a50.89,50.89,0,0,0-6.59-.56C67.82,58.38,64.92,62.76,64.94,68ZM223.71,52.49h-7.38L214.67,62.6c-2-2.69-4.24-3.88-7.15-3.88-6.6,0-12.18,8-12.18,17.43,0,7.12,3.6,11.8,9,11.8a8.81,8.81,0,0,0,6.9-3.14l-0.35,2.65H218Zm-20.58,22.8c0-5.6,2.41-9.56,5.8-9.56,2.57,0,4,2,4,5.58,0,5.63-2.45,9.58-5.94,9.58C204.42,80.89,203.13,79,203.13,75.29ZM185.13,59c-0.94,8.8-2.6,17.72-3.91,26.53l-0.34,1.91h7.49c2.68-17.39,3.32-20.79,7.53-20.36a27.8,27.8,0,0,1,2.84-8.25c-3.14-.66-4.89,1.12-7.18,4.48A25.92,25.92,0,0,0,192,59h-6.88Zm-61.62,0c-0.94,8.8-2.61,17.72-3.91,26.53l-0.34,1.91h7.49c2.68-17.39,3.33-20.79,7.52-20.36a28,28,0,0,1,2.85-8.25c-3.13-.66-4.89,1.12-7.18,4.48a25.69,25.69,0,0,0,.45-4.31h-6.87Zm100,28.44a2.23,2.23,0,1,0-2.23-2.23A2.23,2.23,0,0,0,223.53,87.46Zm-1.69-2.23a1.69,1.69,0,1,1,1.69,1.69A1.69,1.69,0,0,1,221.83,85.23Zm1.39,0.2h0.33l0.3,0.77h0.51L224,85.35a0.53,0.53,0,0,0,.34-0.51,0.59,0.59,0,0,0-.25-0.49,0.91,0.91,0,0,0-.5-0.1h-0.83v2h0.46V85.43Zm0-.83h0.24a0.61,0.61,0,0,1,.29,0,0.25,0.25,0,0,1,.11.2,0.27,0.27,0,0,1-.11.23,0.57,0.57,0,0,1-.28,0h-0.25V84.6Z"/><path class="cls-4" d="M80.08,168.58H80c-1.27,1.89-2.45,3.09-5.18,3.09-3.06,0-5.27-3.19-5.25-7,0-5.56,2.42-10.74,7.27-10.74a5,5,0,0,1,4.92,3.12h0.06l1.4-8.09h4.83L84.5,168.74c-0.17,1-.26,1.86-0.32,2.54h-4.5Zm0.67-6.7c0-1.69-.69-3.45-2.33-3.45-2.32,0-3.73,2.63-3.74,5.27,0,2.08.77,3.48,2.33,3.48C79.32,167.18,80.73,164.12,80.75,161.88Zm19.89,8.85a15.53,15.53,0,0,1-5,.94c-4.75,0-7.29-3.48-7.26-7.74,0-3.94,2.25-10,8.58-10,3.74,0,6.53,2.24,6.5,7.38a22.11,22.11,0,0,1-.37,3.19H93c0,1.82.8,3.25,3.8,3.25a9.66,9.66,0,0,0,4.45-1.17Zm-1.25-9.53c0-1.82-.58-3.35-2.38-3.35a3.87,3.87,0,0,0-3.65,3.35h6Zm-2-12.22h5.1v0.72l-3.65,2.55H95.61v-0.39Zm7,22.3c0.34-1.07.67-2.54,1-4.23L108.9,149h4.83l-1.43,7.4h0.05a5.74,5.74,0,0,1,4.6-2.44c3.49,0,5.27,3.19,5.25,7,0,5.57-2.42,10.73-7.55,10.73a4.83,4.83,0,0,1-4.91-3.58h-0.05L109,171.28H104.4Zm9-4.1c2.32,0,3.73-2.63,3.74-5.27,0-2.08-.77-3.48-2.32-3.48-2.32,0-3.73,3.06-3.74,5.3C111,165.45,111.74,167.18,113.37,167.18Zm38.29,4.49c-5.27,0-7.37-3.48-7.35-7.74,0-6,3.67-10,9.24-10,4.83,0,7.37,3.32,7.35,7.58C160.85,168.58,157,171.67,151.66,171.67ZM153.28,158c-2.38,0-3.87,3.06-3.88,5.76,0,2.28,1,3.81,2.65,3.77,2.29,0,3.76-2.28,3.78-6.12C155.83,159.7,155.19,158,153.28,158Zm-11.81,9.19c-2.17.32-3.17-.3-3.17-1.52a20.51,20.51,0,0,1,.43-3.11l0.62-3.6h3.22l0.8-4.36h-3.18l1-5.66h-5.1l-2.49,13.65a20.86,20.86,0,0,0-.46,3.71c0,3.77,2.06,5.33,4.7,5.33a16.8,16.8,0,0,0,2.84-.29Zm-15.11-12.59h4.94l-2.93,16.64h-4.94Zm1-5.66h4.94l-0.62,3.41h-4.94Z"/></svg>