<svg id="Camada_1" data-name="Camada 1" xmlns="http://www.w3.org/2000/svg" viewBox="0 0 231.23 138.36"><defs><style>.cls-1{fill:#bf0024;}.cls-2{fill:#e6b63a;}.cls-3{fill:#003772;}.cls-4{fill:#fff;}</style></defs><title>bandeiras_plataforma</title><circle class="cls-1" cx="69.18" cy="68.47" r="69.18"/><path class="cls-2" d="M162.06-.71a68.94,68.94,0,0,0-46.44,17.91,70.52,70.52,0,0,0-7,7.32h14a71,71,0,0,1,5.27,7.33H103.36a69.38,69.38,0,0,0-4,7.33h32.5a68.87,68.87,0,0,1,2.93,7.32H96.44a68.59,68.59,0,0,0-2,7.32H136.8a69.67,69.67,0,0,1-2,36.63H96.44a69.54,69.54,0,0,0,2.93,7.33h32.5a69.34,69.34,0,0,1-4,7.33H103.36a69.93,69.93,0,0,0,5.28,7.32h14a69.22,69.22,0,0,1-7,7.33A69.18,69.18,0,1,0,162.06-.71Z"/><path class="cls-2" d="M222,107a2.23,2.23,0,1,1,2.24,2.24A2.23,2.23,0,0,1,222,107Zm2.24,1.7a1.7,1.7,0,1,0-1.7-1.7A1.7,1.7,0,0,0,224.25,108.73Zm-0.3-.72h-0.46v-2h0.83a0.93,0.93,0,0,1,.5.09,0.61,0.61,0,0,1,.25.49,0.53,0.53,0,0,1-.34.51l0.36,0.86h-0.51l-0.3-.78h-0.34V108Zm0-1.11h0.25a0.59,0.59,0,0,0,.28,0,0.27,0.27,0,0,0,.12-0.23,0.26,0.26,0,0,0-.11-0.2,0.62,0.62,0,0,0-.29,0h-0.24v0.5Z"/><path class="cls-3" d="M53,76a12.9,12.9,0,0,0-1.68-.12c-4.26,0-6.41,1.46-6.41,4.35a2.62,2.62,0,0,0,2.69,2.91C50.69,83.17,52.89,80.26,53,76Zm5.46,12.72H52.26l0.14-3a9.43,9.43,0,0,1-7.87,3.45c-4.07,0-6.86-3.18-6.86-7.79,0-7,4.85-11,13.19-11a25.73,25.73,0,0,1,3.06.22,7.06,7.06,0,0,0,.29-1.85c0-1.89-1.31-2.6-4.82-2.6a25.07,25.07,0,0,0-8,1.29c0.08-.47,1-6.42,1-6.42a29.82,29.82,0,0,1,9-1.51c6.45,0,9.87,2.9,9.86,8.37a36.55,36.55,0,0,1-.61,5.65C60.08,77.74,58.68,86.6,58.49,88.76Z"/><polygon class="cls-3" points="34.53 88.76 27.02 88.76 31.33 61.78 21.72 88.76 16.6 88.76 15.97 61.93 11.45 88.76 4.42 88.76 10.29 53.67 21.09 53.67 21.74 73.31 28.33 53.67 40.34 53.67 34.53 88.76"/><path class="cls-3" d="M171.34,76a12.84,12.84,0,0,0-1.67-.12c-4.26,0-6.41,1.46-6.41,4.35a2.62,2.62,0,0,0,2.69,2.91C169,83.17,171.21,80.26,171.34,76Zm5.47,12.72h-6.22l0.14-3a9.43,9.43,0,0,1-7.87,3.45c-4.07,0-6.86-3.18-6.86-7.79,0-7,4.86-11,13.18-11a25.74,25.74,0,0,1,3.06.22,7,7,0,0,0,.29-1.85c0-1.89-1.31-2.6-4.81-2.6a25.12,25.12,0,0,0-8,1.29c0.08-.47,1-6.42,1-6.42a29.81,29.81,0,0,1,9-1.51c6.45,0,9.87,2.9,9.86,8.37A36.28,36.28,0,0,1,179,73.6C178.39,77.74,177,86.6,176.8,88.76Z"/><path class="cls-3" d="M91.87,88.32a17.17,17.17,0,0,1-5.4.93c-3.84,0-5.93-2.21-5.93-6.27a65.79,65.79,0,0,1,1-7.61C82,72.71,84.82,55.9,84.82,55.9h7.46l-0.87,4.32h4.51l-1,6.86H90.38c-0.87,5.43-2.1,12.19-2.12,13.08,0,1.47.79,2.11,2.57,2.11a6.11,6.11,0,0,0,2-.27Z"/><path class="cls-3" d="M114.75,88.09a25.41,25.41,0,0,1-7.66,1.16c-8.36,0-12.71-4.37-12.71-12.73,0-9.75,5.54-16.94,13.07-16.94,6.15,0,10.09,4,10.09,10.32a30.52,30.52,0,0,1-.92,7H101.74c-0.5,4.14,2.15,5.86,6.49,5.86A17.71,17.71,0,0,0,116,81Zm-4.2-16.92c0-.6.79-5.09-3.48-5.09-2.38,0-4.08,1.81-4.77,5.09h8.24Z"/><path class="cls-3" d="M63,69.24c0,3.61,1.75,6.1,5.72,8,3,1.43,3.51,1.85,3.51,3.15,0,1.78-1.34,2.58-4.31,2.58a21.1,21.1,0,0,1-6.73-1.13l-1,6.59a35,35,0,0,0,7.82.84c7.92,0,11.58-3,11.58-9.54,0-3.92-1.53-6.22-5.29-8-3.15-1.44-3.51-1.77-3.51-3.1,0-1.54,1.25-2.33,3.68-2.33a41.47,41.47,0,0,1,5.4.43l1.07-6.62a50.67,50.67,0,0,0-6.61-.56C65.87,59.58,63,64,63,69.24Z"/><path class="cls-3" d="M151.28,60.34A14.29,14.29,0,0,1,158,62.23l1.23-7.62c-1.1-.43-5-3-8.25-3a15,15,0,0,0-12.26,6.61c-4.36-1.44-6.15,1.47-8.35,4.38l-2,.45a14.59,14.59,0,0,0,.24-2.87h-6.9c-0.94,8.83-2.61,17.78-3.92,26.62l-0.34,1.92H125c1.25-8.15,1.94-13.36,2.36-16.9l2.83-1.57c0.42-1.58,1.74-2.1,4.4-2A32,32,0,0,0,134,74.1c0,9.34,5,15.15,13.13,15.15a23.46,23.46,0,0,0,6.64-1l1.32-8a14.61,14.61,0,0,1-6.38,1.8c-4.37,0-7-3.22-7-8.55C141.74,65.75,145.67,60.34,151.28,60.34Z"/><path class="cls-3" d="M214.86,53.67L213.19,63.8c-2-2.7-4.26-4.66-7.17-4.66-3.79,0-7.24,2.87-9.5,7.1a61.64,61.64,0,0,1-6.39-1.76v0a42.26,42.26,0,0,0,.33-4.3h-6.9C182.63,69.05,181,78,179.65,86.84l-0.35,1.92h7.52c1-6.59,1.79-12.06,2.36-16.4C191.75,70,193,68,195.63,68.15a24.46,24.46,0,0,0-1.82,9.26c0,7.13,3.61,11.84,9.07,11.84a8.85,8.85,0,0,0,6.92-3.15l-0.35,2.65h7.11l5.72-35.09h-7.41Zm-9.39,28.5c-2.56,0-3.85-1.9-3.85-5.63,0-5.61,2.42-9.59,5.82-9.59,2.58,0,4,2,4,5.59C211.43,78.2,209,82.16,205.47,82.16Z"/><polygon class="cls-4" points="36.69 86.67 29.18 86.67 33.49 59.7 23.88 86.67 18.76 86.67 18.13 59.86 13.61 86.67 6.58 86.67 12.45 51.59 23.25 51.59 23.55 73.31 30.84 51.59 42.5 51.59 36.69 86.67"/><path class="cls-4" d="M55.19,74a12.51,12.51,0,0,0-1.68-.12c-4.26,0-6.41,1.46-6.41,4.34a2.62,2.62,0,0,0,2.69,2.91C52.85,81.1,55.06,78.18,55.19,74Zm5.46,12.71H54.43l0.14-3a9.43,9.43,0,0,1-7.87,3.45c-4.07,0-6.86-3.18-6.86-7.8,0-7,4.85-11,13.19-11a25.11,25.11,0,0,1,3.06.22,7,7,0,0,0,.29-1.86c0-1.89-1.31-2.59-4.82-2.59a24.94,24.94,0,0,0-8,1.28c0.08-.47,1-6.42,1-6.42a29.94,29.94,0,0,1,9-1.51c6.45,0,9.86,2.9,9.86,8.37a36.47,36.47,0,0,1-.61,5.65C62.24,75.65,60.84,84.52,60.65,86.67Z"/><path class="cls-4" d="M161.38,52.53l-1.23,7.61a14.34,14.34,0,0,0-6.71-1.89c-5.61,0-9.54,5.42-9.54,13.15,0,5.33,2.64,8.54,7,8.54a14.54,14.54,0,0,0,6.38-1.8l-1.32,8a23.42,23.42,0,0,1-6.64,1c-8.09,0-13.12-5.81-13.12-15.15,0-12.54,7-21.31,16.92-21.31A26,26,0,0,1,161.38,52.53Z"/><path class="cls-4" d="M173.5,74a12.43,12.43,0,0,0-1.67-.12c-4.26,0-6.41,1.46-6.41,4.34a2.62,2.62,0,0,0,2.69,2.91C171.16,81.1,173.37,78.18,173.5,74ZM179,86.67h-6.22l0.14-3A9.43,9.43,0,0,1,165,87.17c-4.07,0-6.86-3.18-6.86-7.8,0-7,4.85-11,13.18-11a25,25,0,0,1,3.06.22,7.05,7.05,0,0,0,.29-1.86c0-1.89-1.3-2.59-4.81-2.59a25,25,0,0,0-7.95,1.28C162,65,163,59,163,59a29.93,29.93,0,0,1,9-1.51c6.45,0,9.87,2.9,9.86,8.37a36.17,36.17,0,0,1-.61,5.65C180.55,75.65,179.15,84.52,179,86.67Z"/><path class="cls-4" d="M94,86.24a17.16,17.16,0,0,1-5.39.93c-3.84,0-5.94-2.21-5.94-6.27a66.14,66.14,0,0,1,1-7.61C84.16,70.63,87,53.82,87,53.82h7.46l-0.87,4.32h3.83l-1,6.86H92.54c-0.87,5.43-2.1,12.19-2.12,13.08,0,1.48.79,2.11,2.57,2.11a6,6,0,0,0,2-.27Z"/><path class="cls-4" d="M116.92,86a25.57,25.57,0,0,1-7.66,1.16c-8.36,0-12.71-4.37-12.71-12.73,0-9.76,5.54-16.94,13.06-16.94,6.16,0,10.09,4,10.09,10.33a30.92,30.92,0,0,1-.92,7H103.91c-0.5,4.14,2.15,5.87,6.49,5.87a17.68,17.68,0,0,0,7.77-1.8Zm-4.2-16.92c0-.6.79-5.09-3.48-5.09-2.38,0-4.08,1.82-4.77,5.09h8.25Z"/><path class="cls-4" d="M65.15,67.16c0,3.61,1.75,6.1,5.72,8,3,1.43,3.51,1.85,3.51,3.15,0,1.78-1.34,2.58-4.31,2.58a21.16,21.16,0,0,1-6.73-1.12l-1,6.58a34.79,34.79,0,0,0,7.81.85c7.93,0,11.59-3,11.59-9.54,0-3.92-1.53-6.22-5.29-7.95-3.15-1.45-3.51-1.77-3.51-3.1,0-1.54,1.25-2.34,3.68-2.34a41.74,41.74,0,0,1,5.4.43L83,58.06a51.1,51.1,0,0,0-6.61-.56C68,57.5,65.13,61.89,65.15,67.16Z"/><path class="cls-4" d="M218.71,86.67h-7.1L212,84A8.85,8.85,0,0,1,205,87.17c-5.46,0-9.07-4.7-9.07-11.84,0-9.49,5.6-17.49,12.22-17.49,2.91,0,5.12,1.19,7.17,3.89L217,51.59h7.41Zm-11.08-6.59c3.5,0,6-4,6-9.61,0-3.63-1.4-5.6-4-5.6-3.41,0-5.82,4-5.82,9.59C203.78,78.19,205.08,80.08,207.63,80.08Z"/><path class="cls-4" d="M185.73,58.14c-0.94,8.83-2.61,17.78-3.92,26.62l-0.34,1.92H189c2.69-17.45,3.33-20.86,7.55-20.43A28,28,0,0,1,199.38,58c-3.15-.66-4.9,1.12-7.2,4.5a26,26,0,0,0,.45-4.33h-6.9Z"/><path class="cls-4" d="M123.91,58.14C123,67,121.29,75.92,120,84.75l-0.34,1.92h7.51c2.69-17.45,3.33-20.86,7.54-20.43A28.17,28.17,0,0,1,137.55,58c-3.14-.66-4.9,1.12-7.2,4.5a25.8,25.8,0,0,0,.45-4.33h-6.9Z"/><path class="cls-4" d="M222,84.44a2.23,2.23,0,1,1,2.23,2.23A2.23,2.23,0,0,1,222,84.44Zm2.23,1.7a1.7,1.7,0,1,0-1.7-1.7A1.7,1.7,0,0,0,224.24,86.14Zm-0.3-.72h-0.46v-2h0.83a0.92,0.92,0,0,1,.5.1,0.58,0.58,0,0,1,.25.49,0.54,0.54,0,0,1-.34.51l0.36,0.86h-0.51l-0.3-.78h-0.34v0.78Zm0-1.11h0.25a0.56,0.56,0,0,0,.28,0,0.27,0.27,0,0,0,.11-0.23,0.26,0.26,0,0,0-.11-0.2,0.65,0.65,0,0,0-.29,0h-0.25v0.5Z"/></svg>