<svg id="Camada_1" data-name="Camada 1" xmlns="http://www.w3.org/2000/svg" viewBox="0 0 104.94 80.12"><defs><style>.cls-1{fill:#003772;}.cls-2{fill:#bf0024;}.cls-3{fill:#e6b63a;}.cls-4{fill:#fff;}</style></defs><title>bandeiras_estabelecimentos</title><rect class="cls-1" width="104.94" height="80.12"/><circle class="cls-2" cx="33.19" cy="33.19" r="28.73"/><path class="cls-3" d="M71.75,4.46A28.63,28.63,0,0,0,52.47,11.9a29.25,29.25,0,0,0-2.9,3h5.8a28.82,28.82,0,0,1,2.19,3H47.38a28.91,28.91,0,0,0-1.66,3H59.22a28.7,28.7,0,0,1,1.22,3H44.51a28.3,28.3,0,0,0-.84,3h17.6a28.93,28.93,0,0,1-.83,15.21H44.51a28.68,28.68,0,0,0,1.22,3H59.22a28.79,28.79,0,0,1-1.66,3H47.38a29,29,0,0,0,2.19,3h5.8a28.84,28.84,0,0,1-2.9,3A28.73,28.73,0,1,0,71.75,4.46Z"/><path class="cls-3" d="M96.65,49.2a0.93,0.93,0,1,1,.93.93A0.93,0.93,0,0,1,96.65,49.2Zm0.93,0.7a0.7,0.7,0,1,0-.7-0.7A0.71,0.71,0,0,0,97.58,49.9Zm-0.13-.3H97.26V48.79h0.34a0.39,0.39,0,0,1,.21,0,0.25,0.25,0,0,1,.1.2,0.22,0.22,0,0,1-.14.21l0.15,0.36H97.72l-0.12-.32H97.45v0.32Zm0-.46h0.11a0.25,0.25,0,0,0,.12,0,0.12,0.12,0,0,0,0-.09,0.11,0.11,0,0,0,0-.08,0.26,0.26,0,0,0-.12,0h-0.1v0.21Z"/><path class="cls-1" d="M26.48,36.33a5.21,5.21,0,0,0-.7,0c-1.77,0-2.66.61-2.66,1.81a1.09,1.09,0,0,0,1.12,1.21C25.51,39.29,26.43,38.09,26.48,36.33Zm2.27,5.28H26.16l0.06-1.23A3.92,3.92,0,0,1,23,41.82c-1.69,0-2.85-1.32-2.85-3.24,0-2.88,2-4.57,5.48-4.57a10.52,10.52,0,0,1,1.27.09A2.92,2.92,0,0,0,27,33.33c0-.78-0.54-1.08-2-1.08a10.43,10.43,0,0,0-3.3.53l0.43-2.66a12.38,12.38,0,0,1,3.73-.63c2.68,0,4.1,1.2,4.09,3.47a15.16,15.16,0,0,1-.25,2.35C29.41,37,28.83,40.72,28.75,41.61Zm-9.95,0H15.68l1.79-11.2-4,11.2H11.35L11.09,30.47,9.21,41.61H6.29L8.73,27h4.48l0.27,8.16L16.22,27h5Zm56.81-5.28a5.21,5.21,0,0,0-.7,0c-1.77,0-2.66.61-2.66,1.81a1.09,1.09,0,0,0,1.12,1.21C74.64,39.29,75.56,38.09,75.61,36.33Zm2.27,5.28H75.29l0.06-1.23a3.91,3.91,0,0,1-3.27,1.43c-1.69,0-2.85-1.32-2.85-3.24,0-2.88,2-4.57,5.47-4.57A10.52,10.52,0,0,1,76,34.1a3,3,0,0,0,.12-0.77c0-.78-0.54-1.08-2-1.08a10.45,10.45,0,0,0-3.3.53l0.43-2.66A12.37,12.37,0,0,1,75,29.5c2.68,0,4.1,1.2,4.09,3.47a15.19,15.19,0,0,1-.25,2.35C78.54,37,78,40.72,77.88,41.61Zm-35.27-.18a7.13,7.13,0,0,1-2.24.38,2.28,2.28,0,0,1-2.46-2.6,27.67,27.67,0,0,1,.43-3.16C38.51,34.95,39.68,28,39.68,28h3.1l-0.36,1.79h1.87l-0.42,2.85H42c-0.36,2.25-.87,5.06-0.88,5.43,0,0.61.33,0.88,1.07,0.88A2.57,2.57,0,0,0,43,38.81Zm9.5-.1a10.53,10.53,0,0,1-3.18.48c-3.47,0-5.28-1.82-5.28-5.29,0-4.05,2.3-7,5.43-7a4,4,0,0,1,4.19,4.29,12.69,12.69,0,0,1-.38,2.92H46.71c-0.21,1.72.89,2.44,2.7,2.44a7.38,7.38,0,0,0,3.22-.74Zm-1.74-7c0-.25.33-2.12-1.44-2.12-1,0-1.69.75-2,2.12h3.42ZM35.3,29.5a20.87,20.87,0,0,1,2.74.23L37.6,32.48a17.14,17.14,0,0,0-2.24-.18c-1,0-1.53.33-1.53,1S34,34,35.29,34.55a3.25,3.25,0,0,1,2.2,3.3c0,2.71-1.52,4-4.81,4a14.42,14.42,0,0,1-3.25-.35l0.43-2.74a8.73,8.73,0,0,0,2.79.47c1.23,0,1.79-.33,1.79-1.07,0-.54-0.2-0.71-1.46-1.31C31.34,36,30.62,35,30.62,33.51,30.61,31.32,31.82,29.5,35.3,29.5Zm28,5.77c0,2.21,1.1,3.55,2.91,3.55a6.06,6.06,0,0,0,2.65-.75l-0.55,3.32a9.73,9.73,0,0,1-2.76.43c-3.36,0-5.45-2.41-5.45-6.29a13.38,13.38,0,0,1,.22-2.43c-1.1,0-1.65.19-1.83,0.85l-1.17.65c-0.17,1.47-.46,3.63-1,7H53.25l0.14-.8c0.54-3.67,1.24-7.38,1.63-11.05h2.87a6.13,6.13,0,0,1-.1,1.19l0.81-.19c0.91-1.21,1.66-2.42,3.47-1.82a6.21,6.21,0,0,1,5.09-2.74,9.14,9.14,0,0,1,3.43,1.23L70.07,30.6a5.93,5.93,0,0,0-2.79-.79C65,29.81,63.32,32.06,63.32,35.27ZM93.68,27L93,31.25c-0.85-1.12-1.77-1.93-3-1.93-1.57,0-3,1.19-3.94,2.95a25.39,25.39,0,0,1-2.66-.73h0a17.67,17.67,0,0,0,.14-1.78H80.69c-0.39,3.67-1.08,7.38-1.63,11.05l-0.14.8H82c0.42-2.73.74-5,1-6.81,1.07-1,1.6-1.8,2.68-1.75a10.16,10.16,0,0,0-.76,3.84c0,3,1.5,4.92,3.77,4.92a3.67,3.67,0,0,0,2.88-1.31l-0.15,1.1h3L96.76,27H93.68Zm-3.9,11.83c-1.06,0-1.6-.79-1.6-2.34,0-2.33,1-4,2.42-4,1.07,0,1.65.82,1.65,2.32C92.26,37.23,91.24,38.87,89.78,38.87Z"/><path class="cls-4" d="M19.7,40.75H16.58l1.79-11.2-4,11.2H12.25L12,29.61,10.11,40.75H7.19L9.63,26.18h4.48l0.12,9,3-9h4.84Zm5.44-2.31A1.09,1.09,0,0,1,24,37.22c0-1.2.9-1.8,2.66-1.8a5.32,5.32,0,0,1,.7,0C27.32,37.22,26.41,38.43,25.14,38.43Zm5.44-4a15.14,15.14,0,0,0,.25-2.35c0-2.27-1.42-3.47-4.09-3.47a12.4,12.4,0,0,0-3.73.63s-0.4,2.47-.43,2.66a10.38,10.38,0,0,1,3.3-.53c1.46,0,2,.29,2,1.07a2.94,2.94,0,0,1-.12.77,10.51,10.51,0,0,0-1.27-.09C23,33.15,21,34.83,21,37.72,21,39.63,22.16,41,23.85,41a3.92,3.92,0,0,0,3.27-1.43l-0.06,1.23h2.58C29.72,39.85,30.31,36.17,30.58,34.46ZM68,25.81c-4.13,0-7,3.64-7,8.85C61,38.54,63.11,41,66.47,41a9.75,9.75,0,0,0,2.75-.43l0.55-3.32a6,6,0,0,1-2.65.75c-1.81,0-2.91-1.34-2.91-3.55,0-3.21,1.63-5.46,4-5.46a6,6,0,0,1,2.79.79l0.51-3.16A10.83,10.83,0,0,0,68,25.81Zm6.22,12.62a1.09,1.09,0,0,1-1.12-1.21c0-1.2.89-1.8,2.66-1.8a5.29,5.29,0,0,1,.69,0C76.45,37.22,75.54,38.43,74.27,38.43Zm5.44-4A14.87,14.87,0,0,0,80,32.11c0-2.27-1.42-3.47-4.09-3.47a12.41,12.41,0,0,0-3.73.63L71.7,31.92a10.39,10.39,0,0,1,3.3-.53c1.46,0,2,.29,2,1.07a3,3,0,0,1-.12.77,10.47,10.47,0,0,0-1.27-.09c-3.46,0-5.47,1.68-5.47,4.57C70.13,39.63,71.29,41,73,41a3.91,3.91,0,0,0,3.27-1.43l-0.06,1.23h2.58C78.85,39.85,79.44,36.17,79.71,34.46ZM43.92,37.94a2.51,2.51,0,0,1-.84.11c-0.74,0-1.07-.27-1.07-0.88,0-.37.52-3.18,0.88-5.43h1.6l0.42-2.85H43.32l0.36-1.8h-3.1s-1.17,7-1.35,8.09a27.26,27.26,0,0,0-.43,3.16A2.28,2.28,0,0,0,41.26,41a7.17,7.17,0,0,0,2.24-.38Zm9.61-.42a7.33,7.33,0,0,1-3.22.75c-1.8,0-2.9-.72-2.69-2.44h6.17a12.81,12.81,0,0,0,.38-2.91A4,4,0,0,0,50,28.63c-3.12,0-5.42,3-5.42,7,0,3.47,1.81,5.28,5.28,5.29A10.66,10.66,0,0,0,53,40.47Zm-5.68-4.08c0.29-1.36,1-2.11,2-2.11,1.77,0,1.46,1.87,1.44,2.11H47.84Zm-16.33-.8c0,1.5.73,2.53,2.38,3.31,1.26,0.59,1.46.77,1.46,1.31,0,0.74-.56,1.07-1.79,1.07a8.81,8.81,0,0,1-2.79-.47L30.34,40.6a14.5,14.5,0,0,0,3.24.35c3.29,0,4.81-1.25,4.81-4a3.24,3.24,0,0,0-2.2-3.3c-1.31-.6-1.46-0.74-1.46-1.29s0.52-1,1.53-1a17.48,17.48,0,0,1,2.24.18l0.44-2.75a21.2,21.2,0,0,0-2.74-.23C32.71,28.63,31.5,30.46,31.51,32.64Zm66.14-6.47H94.58l-0.69,4.21a3.52,3.52,0,0,0-3-1.61c-2.75,0-5.07,3.32-5.07,7.26,0,3,1.5,4.92,3.76,4.92a3.67,3.67,0,0,0,2.87-1.31l-0.14,1.1h2.95Zm-8.57,9.5c0-2.33,1-4,2.42-4,1.07,0,1.65.82,1.65,2.32,0,2.35-1,4-2.47,4C89.62,38,89.08,37.23,89.08,35.68Zm-7.5-6.78C81.19,32.57,80.5,36.28,80,39.95l-0.14.8h3.12c1.12-7.25,1.38-8.66,3.14-8.48a11.58,11.58,0,0,1,1.18-3.44c-1.31-.27-2,0.46-3,1.87a10.8,10.8,0,0,0,.19-1.8H81.58Zm-25.67,0c-0.39,3.67-1.09,7.38-1.63,11.05l-0.14.8h3.12c1.12-7.25,1.39-8.66,3.13-8.48a11.68,11.68,0,0,1,1.19-3.44c-1.31-.27-2,0.46-3,1.87a10.7,10.7,0,0,0,.19-1.8H55.91ZM97.58,40.75a0.93,0.93,0,1,0-.93-0.93A0.93,0.93,0,0,0,97.58,40.75Zm-0.7-.93a0.71,0.71,0,1,1,.7.71A0.7,0.7,0,0,1,96.87,39.82Zm0.58,0.08h0.14l0.13,0.32h0.21l-0.15-.36a0.22,0.22,0,0,0,.14-0.21,0.24,0.24,0,0,0-.1-0.2,0.38,0.38,0,0,0-.21,0H97.26v0.81h0.19V39.9Zm0-.35h0.1a0.25,0.25,0,0,1,.12,0,0.1,0.1,0,0,1,0,.08,0.11,0.11,0,0,1,0,.09,0.24,0.24,0,0,1-.12,0h-0.1V39.56Z"/><path class="cls-4" d="M37.82,74.54h0a2.31,2.31,0,0,1-2.16,1.29c-1.27,0-2.2-1.33-2.19-2.91,0-2.32,1-4.47,3-4.47a2.09,2.09,0,0,1,2,1.3h0l0.58-3.37h2l-1.49,8.23c-0.07.42-.11,0.77-0.13,1.06H37.65Zm0.28-2.79a1.21,1.21,0,0,0-1-1.44c-1,0-1.55,1.1-1.56,2.2,0,0.87.32,1.45,1,1.45C37.51,74,38.09,72.68,38.1,71.75Zm8.28,3.69a6.47,6.47,0,0,1-2.07.39,2.94,2.94,0,0,1-3-3.22c0-1.64.94-4.16,3.57-4.16,1.56,0,2.72.93,2.71,3.08a9.21,9.21,0,0,1-.16,1.33H43.22c0,0.76.33,1.36,1.58,1.36a4,4,0,0,0,1.86-.49Zm-0.52-4c0-.76-0.24-1.4-1-1.4a1.61,1.61,0,0,0-1.52,1.4h2.51ZM45,66.37h2.13v0.3l-1.52,1.06H44.29V67.57ZM48,75.66c0.14-.45.28-1.06,0.42-1.76l1.45-7.53h2l-0.6,3.08h0a2.39,2.39,0,0,1,1.92-1c1.45,0,2.2,1.33,2.19,2.91,0,2.32-1,4.47-3.14,4.47a2,2,0,0,1-2-1.49h0l-0.31,1.33H48ZM51.69,74c1,0,1.55-1.1,1.56-2.19,0-.87-0.32-1.45-1-1.45-1,0-1.55,1.27-1.56,2.21A1.21,1.21,0,0,0,51.69,74Zm15.95,1.87c-2.19,0-3.07-1.45-3.06-3.22,0-2.48,1.53-4.16,3.85-4.16a2.9,2.9,0,0,1,3.06,3.16C71.47,74.54,69.86,75.83,67.64,75.83Zm0.67-5.68c-1,0-1.61,1.27-1.62,2.4,0,0.95.41,1.59,1.1,1.57,1,0,1.56-.95,1.57-2.55A1.17,1.17,0,0,0,68.31,70.15ZM63.39,74c-0.9.13-1.32-.13-1.32-0.63a8.55,8.55,0,0,1,.18-1.3l0.26-1.5h1.34l0.33-1.82H62.86l0.43-2.36H61.16l-1,5.69a8.69,8.69,0,0,0-.19,1.55c0,1.57.86,2.22,2,2.22a7,7,0,0,0,1.18-.12ZM57.1,68.73h2.06l-1.22,6.93H55.88Zm0.42-2.36h2.06L59.33,67.8H57.27Z"/></svg>