<svg id="Camada_1" data-name="Camada 1" xmlns="http://www.w3.org/2000/svg" viewBox="0 0 127.16 80.12"><defs><style>.cls-1{fill:#003772;}.cls-2{fill:#bf0024;}.cls-3{fill:#e6b63a;}.cls-4{fill:#fff;}</style></defs><title>bandeiras_estabelecimentos</title><rect class="cls-1" width="127.16" height="80.44"/><circle class="cls-2" cx="40.22" cy="40.22" r="34.81"/><path class="cls-3" d="M87,5.41a34.69,34.69,0,0,0-23.37,9,35.48,35.48,0,0,0-3.51,3.69h7a35.7,35.7,0,0,1,2.65,3.69H57.42a34.91,34.91,0,0,0-2,3.69H71.76a34.65,34.65,0,0,1,1.47,3.69H53.94a34.51,34.51,0,0,0-1,3.68H74.25a35.06,35.06,0,0,1-1,18.43H53.94A35,35,0,0,0,55.41,55H71.76a34.89,34.89,0,0,1-2,3.69H57.42a35.19,35.19,0,0,0,2.65,3.68h7A34.83,34.83,0,0,1,63.59,66,34.81,34.81,0,1,0,87,5.41Z"/><path class="cls-3" d="M117.12,59.62a1.12,1.12,0,1,1,1.12,1.12A1.12,1.12,0,0,1,117.12,59.62Zm1.12,0.86a0.85,0.85,0,1,0-.86-0.86A0.86,0.86,0,0,0,118.25,60.48Zm-0.15-.36h-0.23v-1h0.42a0.47,0.47,0,0,1,.25,0,0.31,0.31,0,0,1,.12.25,0.27,0.27,0,0,1-.17.26l0.18,0.44h-0.26l-0.15-.39h-0.17v0.39Zm0-.56h0.13a0.3,0.3,0,0,0,.14,0,0.14,0.14,0,0,0,.06-0.11,0.13,0.13,0,0,0-.06-0.1,0.31,0.31,0,0,0-.15,0h-0.12v0.25Z"/><path class="cls-1" d="M32.09,44A6.49,6.49,0,0,0,31.25,44c-2.14,0-3.22.73-3.22,2.19a1.32,1.32,0,0,0,1.35,1.46C30.92,47.62,32,46.16,32.09,44Zm2.75,6.4H31.71l0.07-1.49a4.74,4.74,0,0,1-4,1.74c-2,0-3.45-1.6-3.45-3.92,0-3.5,2.44-5.54,6.63-5.54a13,13,0,0,1,1.54.11,3.55,3.55,0,0,0,.15-0.93c0-1-.66-1.31-2.42-1.31a12.62,12.62,0,0,0-4,.65l0.52-3.23a15,15,0,0,1,4.52-.76c3.25,0,5,1.46,5,4.21A18.39,18.39,0,0,1,36,42.81C35.64,44.88,34.94,49.34,34.84,50.43Z"/><polygon class="cls-1" points="22.79 50.43 19.01 50.43 21.18 36.86 16.34 50.43 13.77 50.43 13.45 36.93 11.17 50.43 7.64 50.43 10.59 32.77 16.02 32.77 16.35 42.66 19.67 32.77 25.71 32.77 22.79 50.43"/><path class="cls-1" d="M91.62,44A6.46,6.46,0,0,0,90.78,44c-2.14,0-3.23.73-3.23,2.19a1.32,1.32,0,0,0,1.35,1.46C90.45,47.62,91.56,46.16,91.62,44Zm2.75,6.4H91.24l0.07-1.49a4.74,4.74,0,0,1-4,1.74c-2,0-3.45-1.6-3.45-3.92,0-3.5,2.44-5.54,6.63-5.54a13,13,0,0,1,1.54.11,3.52,3.52,0,0,0,.15-0.93c0-1-.66-1.31-2.42-1.31a12.64,12.64,0,0,0-4,.65c0-.24.53-3.23,0.53-3.23a15,15,0,0,1,4.52-.76c3.25,0,5,1.46,5,4.21a18.25,18.25,0,0,1-.31,2.85C95.17,44.88,94.47,49.34,94.37,50.43Z"/><path class="cls-1" d="M51.64,50.21a8.64,8.64,0,0,1-2.71.47c-1.93,0-3-1.11-3-3.15a33.1,33.1,0,0,1,.52-3.83c0.22-1.34,1.64-9.8,1.64-9.8h3.76l-0.44,2.17h2.27l-0.51,3.45H50.89c-0.44,2.73-1.06,6.13-1.07,6.58,0,0.74.4,1.06,1.29,1.06a3.07,3.07,0,0,0,1-.14Z"/><path class="cls-1" d="M63.15,50.1a12.79,12.79,0,0,1-3.85.58c-4.21,0-6.4-2.2-6.4-6.41,0-4.91,2.79-8.52,6.57-8.52,3.1,0,5.08,2,5.08,5.19a15.36,15.36,0,0,1-.46,3.53H56.61c-0.25,2.08,1.08,3,3.27,3a8.91,8.91,0,0,0,3.9-.9ZM61,41.58c0-.3.4-2.56-1.75-2.56-1.2,0-2.05.91-2.4,2.56H61Z"/><path class="cls-1" d="M37.11,40.61c0,1.81.88,3.07,2.88,4,1.53,0.72,1.77.93,1.77,1.58,0,0.89-.68,1.3-2.17,1.3a10.62,10.62,0,0,1-3.39-.57l-0.52,3.32a17.62,17.62,0,0,0,3.93.42c4,0,5.83-1.52,5.83-4.8a3.93,3.93,0,0,0-2.66-4C41.19,41.15,41,41,41,40.32s0.63-1.17,1.85-1.17a20.87,20.87,0,0,1,2.72.21L46.11,36a25.5,25.5,0,0,0-3.33-.28C38.56,35.75,37.1,38,37.11,40.61Z"/><path class="cls-1" d="M81.53,36.13a7.19,7.19,0,0,1,3.38,1l0.62-3.83C85,33,83,31.76,81.37,31.76a7.53,7.53,0,0,0-6.17,3.33c-2.19-.73-3.1.74-4.2,2.2l-1,.23a7.34,7.34,0,0,0,.12-1.44H66.67c-0.47,4.45-1.31,8.95-2,13.39l-0.17,1h3.78c0.63-4.1,1-6.72,1.19-8.5l1.42-.79c0.21-.79.88-1.06,2.21-1a16.11,16.11,0,0,0-.27,2.94c0,4.7,2.54,7.62,6.6,7.62a11.8,11.8,0,0,0,3.34-.52l0.66-4a7.35,7.35,0,0,1-3.21.91c-2.2,0-3.53-1.62-3.53-4.3C76.73,38.85,78.71,36.13,81.53,36.13Z"/><path class="cls-1" d="M113.53,32.77l-0.84,5.1c-1-1.36-2.14-2.34-3.61-2.34-1.91,0-3.64,1.45-4.78,3.57a31,31,0,0,1-3.22-.89h0a21.27,21.27,0,0,0,.17-2.16H97.78c-0.47,4.45-1.31,8.95-2,13.39l-0.17,1h3.78c0.51-3.31.9-6.07,1.19-8.25,1.29-1.17,1.94-2.18,3.24-2.12a12.31,12.31,0,0,0-.92,4.66c0,3.59,1.81,6,4.56,6A4.45,4.45,0,0,0,111,49.09l-0.18,1.34h3.58l2.88-17.65h-3.73ZM108.8,47.11c-1.29,0-1.94-1-1.94-2.83,0-2.82,1.22-4.82,2.93-4.82,1.3,0,2,1,2,2.81C111.8,45.12,110.56,47.11,108.8,47.11Z"/><polygon class="cls-4" points="23.88 49.38 20.1 49.38 22.26 35.81 17.43 49.38 14.85 49.38 14.54 35.89 12.26 49.38 8.72 49.38 11.68 31.73 17.11 31.73 17.26 42.66 20.93 31.73 26.8 31.73 23.88 49.38"/><path class="cls-4" d="M33.18,43a6.3,6.3,0,0,0-.84-0.06c-2.14,0-3.23.73-3.23,2.18a1.32,1.32,0,0,0,1.35,1.46C32,46.58,33.12,45.11,33.18,43Zm2.75,6.4H32.8l0.07-1.49a4.75,4.75,0,0,1-4,1.74c-2,0-3.45-1.6-3.45-3.92,0-3.5,2.44-5.53,6.63-5.53a12.63,12.63,0,0,1,1.54.11,3.54,3.54,0,0,0,.15-0.93c0-.95-0.66-1.3-2.42-1.3a12.55,12.55,0,0,0-4,.64l0.52-3.23a15.06,15.06,0,0,1,4.52-.76c3.25,0,5,1.46,5,4.21a18.35,18.35,0,0,1-.31,2.85C36.73,43.84,36,48.3,35.93,49.38Z"/><path class="cls-4" d="M86.61,32.2L86,36a7.22,7.22,0,0,0-3.38-1c-2.82,0-4.8,2.73-4.8,6.62,0,2.68,1.33,4.3,3.53,4.3a7.32,7.32,0,0,0,3.21-.91l-0.66,4a11.78,11.78,0,0,1-3.34.52c-4.07,0-6.6-2.93-6.6-7.62,0-6.31,3.5-10.72,8.51-10.72A13.08,13.08,0,0,1,86.61,32.2Z"/><path class="cls-4" d="M92.71,43a6.26,6.26,0,0,0-.84-0.06c-2.14,0-3.23.73-3.23,2.18A1.32,1.32,0,0,0,90,46.58C91.54,46.58,92.65,45.11,92.71,43Zm2.75,6.4H92.33L92.4,47.9a4.75,4.75,0,0,1-4,1.74c-2,0-3.45-1.6-3.45-3.92,0-3.5,2.44-5.53,6.63-5.53a12.6,12.6,0,0,1,1.54.11,3.55,3.55,0,0,0,.15-0.93c0-.95-0.66-1.3-2.42-1.3a12.56,12.56,0,0,0-4,.64l0.52-3.23a15.06,15.06,0,0,1,4.52-.76c3.24,0,5,1.46,5,4.21a18.2,18.2,0,0,1-.31,2.85C96.26,43.84,95.56,48.3,95.46,49.38Z"/><path class="cls-4" d="M52.72,49.16a8.64,8.64,0,0,1-2.71.47c-1.93,0-3-1.11-3-3.15a33.28,33.28,0,0,1,.52-3.83c0.22-1.34,1.64-9.8,1.64-9.8h3.76L52.5,35h1.93l-0.51,3.45H52c-0.44,2.73-1.06,6.13-1.07,6.58,0,0.74.4,1.06,1.29,1.06a3,3,0,0,0,1-.14Z"/><path class="cls-4" d="M64.24,49.05a12.87,12.87,0,0,1-3.86.58c-4.21,0-6.4-2.2-6.4-6.41,0-4.91,2.79-8.52,6.57-8.52,3.1,0,5.08,2,5.08,5.2a15.56,15.56,0,0,1-.46,3.53H57.7c-0.25,2.08,1.08,3,3.26,3a8.9,8.9,0,0,0,3.91-.91Zm-2.11-8.51c0-.3.4-2.56-1.75-2.56-1.2,0-2.05.91-2.4,2.56h4.15Z"/><path class="cls-4" d="M38.2,39.56c0,1.82.88,3.07,2.88,4,1.53,0.72,1.77.93,1.77,1.58,0,0.89-.67,1.3-2.17,1.3a10.65,10.65,0,0,1-3.39-.57L36.77,49.2a17.5,17.5,0,0,0,3.93.43c4,0,5.83-1.52,5.83-4.8a3.93,3.93,0,0,0-2.66-4c-1.58-.73-1.77-0.89-1.77-1.56s0.63-1.18,1.85-1.18a21,21,0,0,1,2.71.22L47.2,35a25.71,25.71,0,0,0-3.33-.28C39.65,34.7,38.18,36.91,38.2,39.56Z"/><path class="cls-4" d="M115.46,49.38h-3.57L112.06,48a4.45,4.45,0,0,1-3.48,1.59c-2.75,0-4.56-2.37-4.56-6,0-4.78,2.82-8.8,6.15-8.8a4.26,4.26,0,0,1,3.61,2l0.84-5.1h3.73Zm-5.57-3.32c1.76,0,3-2,3-4.84,0-1.82-.7-2.82-2-2.82-1.71,0-2.93,2-2.93,4.82C107.95,45.11,108.6,46.06,109.89,46.06Z"/><path class="cls-4" d="M98.86,35c-0.47,4.44-1.31,8.94-2,13.39l-0.17,1h3.78c1.35-8.78,1.68-10.49,3.8-10.28a14.09,14.09,0,0,1,1.43-4.16c-1.58-.33-2.47.56-3.62,2.26a13.1,13.1,0,0,0,.23-2.18H98.86Z"/><path class="cls-4" d="M67.76,35c-0.47,4.44-1.32,8.94-2,13.39l-0.17,1h3.78c1.35-8.78,1.68-10.49,3.79-10.28a14.17,14.17,0,0,1,1.44-4.16C73,34.61,72.16,35.5,71,37.2A13,13,0,0,0,71.23,35H67.76Z"/><path class="cls-4" d="M117.12,48.26a1.12,1.12,0,1,1,1.12,1.12A1.12,1.12,0,0,1,117.12,48.26Zm1.12,0.85a0.85,0.85,0,1,0-.85-0.85A0.86,0.86,0,0,0,118.24,49.11Zm-0.15-.36h-0.23v-1h0.42a0.46,0.46,0,0,1,.25.05,0.29,0.29,0,0,1,.13.25,0.27,0.27,0,0,1-.17.26l0.18,0.43h-0.26l-0.15-.39h-0.17v0.39Zm0-.56h0.13a0.28,0.28,0,0,0,.14,0,0.14,0.14,0,0,0,.06-0.11,0.13,0.13,0,0,0-.05-0.1,0.33,0.33,0,0,0-.15,0h-0.12v0.25Z"/></svg>