<svg id="Camada_1" data-name="Camada 1" xmlns="http://www.w3.org/2000/svg" viewBox="0 0 124.81 78.09"><defs><style>.cls-1{fill:#005694;}.cls-1,.cls-2,.cls-3{fill-rule:evenodd;}.cls-2{fill:#fff;}.cls-3{fill:#e2ad2d;}</style></defs><title>bandeiras_estabelecimentos</title><polygon class="cls-1" points="0 0 0 78.09 124.81 78.09 124.81 0 0 0 0 0"/><polygon class="cls-2" points="123.35 1.46 123.35 76.64 1.46 76.64 1.46 1.46 123.35 1.46 123.35 1.46"/><polygon class="cls-1" points="119.47 73.36 119.47 5.11 5.1 5.11 5.1 73.36 119.47 73.36 119.47 73.36"/><path class="cls-3" d="M36.39,46.34a83.06,83.06,0,0,1,51.67-5.19l0.24-5.71c-23.77-2.6-40.83,5-51.91,10.34v0.56h0Z"/><polygon class="cls-2" points="14.5 50.54 25.93 50.54 25.93 53.98 18.83 53.98 18.78 57.16 25.86 57.16 25.86 60.46 18.76 60.46 18.79 63.64 25.79 63.64 25.79 67.08 14.51 67.08 14.5 50.54 14.5 50.54"/><polygon class="cls-2" points="28.8 49.15 32.96 49.15 32.98 67.08 28.82 67.08 28.8 49.15 28.8 49.15"/><path class="cls-2" d="M47.27,65.72a8.8,8.8,0,0,1-5.47,1.79,6,6,0,0,1-6.36-6.19,6.54,6.54,0,0,1,6.48-6.72c4.59,0,6,3.25,6,7.39H39.6a2.56,2.56,0,0,0,2.89,2.51,5.34,5.34,0,0,0,3.39-1.19l1.39,2.41h0Zm-3.06-6.17c0-1.24-.6-2.37-2-2.37a2.87,2.87,0,0,0-2.58,2.37h4.57Z"/><path class="cls-2" d="M60.56,66.27a9.46,9.46,0,0,1-4.42,1.24c-3.83,0-6.57-2.2-6.57-6.17s2.73-6.74,6.84-6.74a8.54,8.54,0,0,1,4.09,1.05l-1.34,2.73a5.14,5.14,0,0,0-2-.48,3.14,3.14,0,0,0-3.47,3.23,3.05,3.05,0,0,0,3.11,3.08,5.26,5.26,0,0,0,2.25-.69l1.48,2.75h0Z"/><path class="cls-2" d="M62.1,55H64V50.95h4L67.88,55H71.3l-0.07,3H67.81c0,1.67-.12,3.44-0.12,4.47s0.26,1.55,1.19,1.55a3,3,0,0,0,1.53-.57l0.91,2.82a8.13,8.13,0,0,1-4.11,1.2c-3.37,0-3.54-2.13-3.54-4.9,0-1.48.12-3,.12-4.57H62l0.1-3h0Z"/><path class="cls-2" d="M73.43,55h4.16v1.7h0a3.44,3.44,0,0,1,3.06-2,6.44,6.44,0,0,1,1.36.14L81.51,59A4.93,4.93,0,0,0,80,58.72a2.94,2.94,0,0,0-2.46,1.41l-0.07,7H73.34l0.1-12h0Z"/><path class="cls-2" d="M89.6,54.6c4.45,0,6.74,2.82,6.74,6.45S94,67.51,89.6,67.51s-6.74-2.82-6.74-6.45,2.3-6.45,6.74-6.45h0Zm0,9.75c2,0,2.58-1.72,2.58-3.3s-0.6-3.3-2.58-3.3S87,59.48,87,61.06s0.6,3.3,2.58,3.3h0Z"/><path class="cls-2" d="M98.6,55h4.16v1.31a5.9,5.9,0,0,1,3.9-1.75c2.56,0,3.94,1.41,3.94,4.71,0,2.46,0,5.12,0,7.77h-4.16c0-2.32,0-4.66,0-7.15,0-1-.26-1.75-1.51-1.75a3.88,3.88,0,0,0-2.18,1.1l0,7.79H98.5l0.1-12h0Z"/><polygon class="cls-2" points="48.72 30.22 53.98 12.89 58.66 12.89 53.41 30.22 48.72 30.22 48.72 30.22"/><path class="cls-2" d="M46.62,12.89l-4.22,7.34a17.81,17.81,0,0,0-2,4.11H40.34c0.07-1.54-.14-3.43-0.16-4.5l-0.47-7H31.82l-0.08.47a3.27,3.27,0,0,1,3.56,3.1l1.54,13.75H41.7l9.82-17.32H46.62Z"/><path class="cls-2" d="M83.09,30.22L83,27.64H77.11l-1.2,2.58H70.82L80,12.92H86.3l1.56,17.29H83.09ZM82.55,20a39.36,39.36,0,0,1,0-4.07H82.47c-0.29.86-1.51,3.44-2.05,4.71l-1.74,3.8h4.11L82.55,20h0Z"/><path class="cls-2" d="M63.59,30.71a13.1,13.1,0,0,1-7.08-2l2.23-3.41C60.15,26.1,61.26,27,63.8,27a2.17,2.17,0,0,0,2.05-1c0.65-1.13-.15-1.73-2-2.77L63,22.66C60.26,20.81,59.08,19,60.36,16c0.82-2,3-3.46,6.54-3.46a10.49,10.49,0,0,1,6.1,2.1l-2.57,3A5.71,5.71,0,0,0,66.79,16a2.18,2.18,0,0,0-2,.9c-0.49,1,.16,1.63,1.58,2.51l1.08,0.68c3.3,2.08,4.08,4.26,3.26,6.3-1.42,3.51-4.2,4.29-7.12,4.29h0Z"/></svg>