<svg id="Camada_1" data-name="Camada 1" xmlns="http://www.w3.org/2000/svg" viewBox="0 0 127.58 78.09"><defs><style>.cls-1{fill:#005396;}.cls-2{fill:#e0a700;}</style></defs><title>bandeiras_estabelecimentos</title><polygon class="cls-1" points="48.19 54 56.33 54 61.42 24.14 53.28 24.14 48.19 54"/><path class="cls-1" d="M77.84,36.13c-2.84-1.38-4.59-2.3-4.57-3.7,0-1.24,1.47-2.57,4.66-2.57A14.94,14.94,0,0,1,84,31l0.73,0.34,1.1-6.47a21.08,21.08,0,0,0-7.3-1.25c-8,0-13.71,4.05-13.76,9.86,0,4.29,4,6.68,7.14,8.11s4.23,2.4,4.22,3.7c0,2-2.53,2.92-4.87,2.92a17,17,0,0,1-7.66-1.57l-1-.48-1.14,6.69a25.78,25.78,0,0,0,9.07,1.59c8.56,0,14.11-4,14.18-10.21C84.7,40.85,82.53,38.26,77.84,36.13Z"/><path class="cls-1" d="M106.73,24.16h-6.29c-1.95,0-3.41.53-4.26,2.48L84.09,54h8.55s1.4-3.68,1.71-4.49h10.43c0.24,1,1,4.47,1,4.47h7.55Zm-10,19.25c0.67-1.72,3.24-8.35,3.24-8.35s0.67-1.73,1.08-2.85l0.55,2.57,1.89,8.62H96.69Z"/><path class="cls-1" d="M41.37,24.16l-8,20.37-0.85-4.14L29.69,26.66c-0.49-1.89-1.92-2.46-3.69-2.52H12.88l-0.1.62A34.15,34.15,0,0,1,21.32,28L28.56,54h8.61L50,24.16H41.37Z"/><rect class="cls-2" y="66.64" width="127.58" height="11.44"/><rect class="cls-1" y="-0.02" width="127.58" height="11.44"/></svg>