<svg id="Camada_1" data-name="Camada 1" xmlns="http://www.w3.org/2000/svg" viewBox="0 0 303.71 146.62"><defs><style>.cls-1{fill:#fff;}</style></defs><title>bandeiras_plataforma</title><path class="cls-1" d="M153.93,130.87H141.33v11.74h14.11v3.53H137.08V113.58h17.63v3.53H141.33V127.4h12.61v3.48Z"/><path class="cls-1" d="M160.77,111.85H165v34.29h-4.25V111.85Z"/><path class="cls-1" d="M174.6,135.22c0.1,5.7,3.72,8.07,8,8.07a15.14,15.14,0,0,0,6.47-1.21l0.77,3a19,19,0,0,1-7.82,1.5c-7.15,0-11.5-4.79-11.5-11.79s4.21-12.6,11-12.6c7.63,0,9.61,6.71,9.61,11a10.16,10.16,0,0,1-.14,2H174.6Zm12.41-3c0.05-2.7-1.11-6.91-5.84-6.91-4.35,0-6.18,4-6.52,6.91H187Z"/><path class="cls-1" d="M213.08,145.27a16.38,16.38,0,0,1-6.71,1.36c-7.05,0-11.65-4.79-11.65-11.93s4.92-12.46,12.56-12.46a13.43,13.43,0,0,1,5.89,1.25l-1,3.23a10.42,10.42,0,0,0-4.92-1.11c-5.36,0-8.26,4-8.26,8.84,0,5.41,3.48,8.74,8.11,8.74a12.18,12.18,0,0,0,5.21-1.11Z"/><path class="cls-1" d="M223.82,117.16v5.6h6.08V126h-6.08v12.56c0,2.9.83,4.54,3.19,4.54a7.92,7.92,0,0,0,2.46-.29l0.19,3.23a11.46,11.46,0,0,1-3.77.58,6.06,6.06,0,0,1-4.58-1.79c-1.16-1.3-1.64-3.38-1.64-6.14V126H216v-3.23h3.62v-4.3Z"/><path class="cls-1" d="M234.7,130.05c0-2.75,0-5.12-.19-7.29h3.72l0.19,4.59h0.14a7.08,7.08,0,0,1,6.52-5.12,9.31,9.31,0,0,1,1.16.09v4a12.87,12.87,0,0,0-1.45-.09c-3,0-5.12,2.27-5.71,5.41a14.13,14.13,0,0,0-.14,2v12.51H234.7V130.05Z"/><path class="cls-1" d="M259.55,146.67c-6.27,0-11.21-4.64-11.21-12,0-7.83,5.17-12.41,11.59-12.41,6.71,0,11.26,4.87,11.26,12,0,8.69-6,12.46-11.59,12.46h-0.05Zm0.2-3.19c4.05,0,7.1-3.81,7.1-9.13,0-4-2-8.94-7-8.94s-7.14,4.64-7.14,9.08c0,5.12,2.9,9,7,9h0.05Z"/><path class="cls-1" d="M276.59,129.09c0-2.46,0-4.39-.19-6.33h3.77l0.24,3.81h0.1a8.65,8.65,0,0,1,7.73-4.34c3.23,0,8.26,1.93,8.26,9.95v14h-4.25V132.66c0-3.77-1.4-7-5.41-7a6.25,6.25,0,0,0-6,6.33v14.1h-4.25V129.09Z"/><polygon class="cls-1" points="107.37 92.01 132.02 92.01 147.44 1.57 122.79 1.57 107.37 92.01"/><path class="cls-1" d="M197.15,37.88c-8.61-4.18-13.9-7-13.84-11.21,0-3.76,4.47-7.78,14.11-7.78a45.23,45.23,0,0,1,18.45,3.47l2.22,1L221.43,3.8A63.84,63.84,0,0,0,199.33,0C175,0,157.82,12.27,157.67,29.85c-0.13,13,12.25,20.24,21.61,24.57,9.59,4.43,12.82,7.26,12.77,11.22-0.07,6.06-7.67,8.83-14.76,8.83-9.86,0-15.1-1.37-23.2-4.75l-3.18-1.44-3.46,20.25c5.75,2.52,16.4,4.71,27.46,4.83,25.91,0,42.74-12.13,42.93-30.91C217.94,52.17,211.37,44.34,197.15,37.88Z"/><path class="cls-1" d="M284.64,1.66H265.58c-5.9,0-10.31,1.61-12.9,7.51L216.07,92H242s4.24-11.14,5.19-13.59l31.57,0c0.73,3.16,3,13.55,3,13.55h22.87ZM254.24,60c2-5.21,9.82-25.28,9.82-25.28-0.14.24,2-5.24,3.27-8.63l1.66,7.8S273.72,55.43,274.7,60H254.24Z"/><path class="cls-1" d="M86.71,1.64L62.57,63.31,60,50.78,51.36,9.22C49.86,3.5,45.54,1.78,40.18,1.58H0.43L0.12,3.47A103.41,103.41,0,0,1,26,13.39L47.92,91.93,74,91.9,112.82,1.64H86.71Z"/></svg>