<svg id="Camada_1" data-name="Camada 1" xmlns="http://www.w3.org/2000/svg" viewBox="0 0 303.71 98.32"><defs><style>.cls-1{fill:#fff;}</style></defs><title>bandeiras_plataforma-02</title><polygon class="cls-1" points="106.71 95.24 131.3 95.24 146.68 5.03 122.1 5.03 106.71 95.24"/><path class="cls-1" d="M196.26,41.25c-8.59-4.17-13.86-7-13.8-11.18,0-3.75,4.46-7.76,14.08-7.76a45.12,45.12,0,0,1,18.4,3.46l2.21,1,3.33-19.56a63.68,63.68,0,0,0-22-3.79c-24.3,0-41.41,12.24-41.56,29.78-0.13,13,12.22,20.19,21.55,24.51C188,62.16,191.22,65,191.18,68.93c-0.07,6-7.65,8.81-14.72,8.81-9.84,0-15.06-1.37-23.14-4.74l-3.17-1.44-3.45,20.2c5.73,2.52,16.36,4.7,27.39,4.82,25.84,0,42.63-12.1,42.82-30.83C217,55.5,210.45,47.69,196.26,41.25Z"/><path class="cls-1" d="M283.54,5.11h-19c-5.88,0-10.29,1.61-12.87,7.49L215.14,95.27H241s4.23-11.11,5.18-13.56l31.5,0c0.73,3.16,3,13.52,3,13.52h22.82ZM253.22,63.26C255.25,58.07,263,38,263,38c-0.14.24,2-5.23,3.26-8.61l1.66,7.78s4.72,21.54,5.7,26H253.22Z"/><path class="cls-1" d="M86.1,5.09L62,66.61l-2.57-12.5L50.84,12.66C49.35,6.95,45,5.24,39.69,5H0L-0.27,6.92a103.15,103.15,0,0,1,25.83,9.9L47.41,95.16l26,0,38.72-90h-26Z"/></svg>