<svg id="Camada_1" data-name="Camada 1" xmlns="http://www.w3.org/2000/svg" xmlns:xlink="http://www.w3.org/1999/xlink" viewBox="0 0 89.18 49.53"><defs><style>.cls-1{fill:url(#Gradiente_sem_nome_4);}.cls-2{fill:url(#Gradiente_sem_nome_4-2);}.cls-3{fill:url(#Gradiente_sem_nome_4-3);}.cls-4{fill:url(#Gradiente_sem_nome_4-4);}</style><linearGradient id="Gradiente_sem_nome_4" x1="5827.44" y1="3573.75" x2="5873.83" y2="3527.37" gradientUnits="userSpaceOnUse"><stop offset="0" stop-color="#2979ff"/><stop offset="1" stop-color="#1de9b6"/></linearGradient><linearGradient id="Gradiente_sem_nome_4-2" x1="5825.99" y1="3572.3" x2="5872.38" y2="3525.92" xlink:href="#Gradiente_sem_nome_4"/><linearGradient id="Gradiente_sem_nome_4-3" x1="5861.73" y1="3608.04" x2="5908.12" y2="3561.65" xlink:href="#Gradiente_sem_nome_4"/><linearGradient id="Gradiente_sem_nome_4-4" x1="5847.69" y1="3594" x2="5894.08" y2="3547.61" xlink:href="#Gradiente_sem_nome_4"/></defs><title>logo_nix</title><path class="cls-1" d="M5860.18,3550.38a20.5,20.5,0,0,0-1.1-3.8,13.1,13.1,0,0,0-2.6-4.12,13.85,13.85,0,0,0-4.54-3.17A16.77,16.77,0,0,0,5845,3538a14.89,14.89,0,0,0-4.85.74,18.73,18.73,0,0,0-3.43,1.53h0v-1.06h-9.17v35.88h9.17V3553.6a13.76,13.76,0,0,1,.36-1.87,6,6,0,0,1,1.09-2.15,6.8,6.8,0,0,1,2.38-1.87,9.93,9.93,0,0,1,4.4-.79,6.5,6.5,0,0,1,3.42.75,5.36,5.36,0,0,1,1.86,1.83,6.92,6.92,0,0,1,.84,2.38,16.45,16.45,0,0,1,.22,2.38v20.85h9.17V3553a10.89,10.89,0,0,0-.08-1.25Q5860.32,3551.18,5860.18,3550.38Z" transform="translate(-5827.57 -3525.58)"/><path class="cls-2" d="M5867.16,3536.74a5.39,5.39,0,0,0,4-1.67,5.58,5.58,0,0,0-7.89-7.89,5.38,5.38,0,0,0-1.67,3.95A5.64,5.64,0,0,0,5867.16,3536.74Z" transform="translate(-5827.57 -3525.58)"/><path class="cls-3" d="M5911.21,3564.18a5.39,5.39,0,0,0,4-1.67,5.58,5.58,0,0,0-7.89-7.89,5.38,5.38,0,0,0-1.67,3.95A5.64,5.64,0,0,0,5911.21,3564.18Z" transform="translate(-5827.57 -3525.58)"/><path class="cls-4" d="M5906.46,3539.23h-11.23l-7.79,10.41-7.73-10.41h-17.12v35.88h17.12l7.73-10.35,7.8,10.35h11.23l-13.38-17.94Zm-34.71,4.49,10,13.45-10,13.45v-26.89Z" transform="translate(-5827.57 -3525.58)"/></svg>